<?xml version="1.0" encoding="UTF-8" standalone="no"?>
<!-- Created with Inkscape (http://www.inkscape.org/) -->

<svg
   xmlns:dc="http://purl.org/dc/elements/1.1/"
   xmlns:cc="http://creativecommons.org/ns#"
   xmlns:rdf="http://www.w3.org/1999/02/22-rdf-syntax-ns#"
   xmlns:svg="http://www.w3.org/2000/svg"
   xmlns="http://www.w3.org/2000/svg"
   version="1.1"
   width="1240.1575"
   height="1523.6221"
   id="svg2">
  <defs
     id="defs4" />
  <metadata
     id="metadata7">
    <rdf:RDF>
      <cc:Work
         rdf:about="">
        <dc:format>image/svg+xml</dc:format>
        <dc:type
           rdf:resource="http://purl.org/dc/dcmitype/StillImage" />
        <dc:title></dc:title>
      </cc:Work>
    </rdf:RDF>
  </metadata>
  <g
     id="layer2">
    <rect
       width="1251.4286"
       height="1531.4286"
       x="-5.7142859"
       y="-2.0922153"
       id="rect2998"
       style="opacity:0.55744683;fill:#00ffff;fill-opacity:1;fill-rule:evenodd;stroke:none" />
  </g>
  <g
     transform="translate(0,471.26118)"
     id="layer1">
    <g
       id="text2989"
       style="font-size:244px;font-style:normal;font-variant:normal;font-weight:bold;font-stretch:normal;line-height:125%;letter-spacing:0px;word-spacing:0px;fill:#ffffff;fill-opacity:1;stroke:none;font-family:'Lobster 1.4';-inkscape-font-specification:'Lobster 1.4 Bold'">
      <path
         d="m 261.81087,-58.782949 c -3.41608,0.975987 -6.66941,1.463986 -9.76,1.464 -3.09074,0.162653 -6.26274,0.325319 -9.516,0.488 -3.09073,0.162652 -7.40139,0.243986 -12.932,0.244 -5.53072,-1.4e-5 -13.82671,-0.162681 -24.888,-0.488 -2.60269,0.162653 -5.20536,0.243986 -7.808,0.244 -2.60269,-1.4e-5 -5.04268,-0.488014 -7.32,-1.464 -5.04268,-2.114677 -8.45867,-6.994672 -10.248,-14.64 -0.81334,-3.578661 -1.708,-6.099992 -2.684,-7.564 -1.13867,-1.463989 -2.03333,-2.846654 -2.684,-4.148 -1.62666,-2.60265 -1.464,-6.913313 0.488,-12.932 1.78933,-6.018631 4.148,-13.419961 7.076,-22.204001 2.92799,-8.94661 6.26265,-18.38127 10.004,-28.304 8.78397,-23.58656 16.6733,-42.29321 23.668,-56.12 2.76529,-6.18119 5.12395,-11.54919 7.076,-16.104 2.11462,-4.55451 3.98528,-8.45851 5.612,-11.712 1.62661,-3.41583 2.43994,-5.20517 2.44,-5.368 1.62661,-6.18116 7.88927,-11.38649 18.788,-15.616 10.57325,-4.39181 20.17057,-5.53048 28.792,-3.416 9.59722,2.44018 13.82655,8.78418 12.688,19.032 -2.27745,10.08549 -5.69344,20.17081 -10.248,30.256 -4.3921,10.08546 -9.43476,20.65878 -15.128,31.72 -5.69342,11.06143 -11.87474,22.77342 -18.544,35.136 -6.6694,12.36272 -13.25739,25.78271 -19.764,40.26 -0.16272,0.650696 0.16261,1.220029 0.976,1.708001 2.11461,-0.162639 5.04261,-0.813305 8.784,-1.952001 3.90393,-1.13864 7.88926,-2.11463 11.956,-2.928 4.22926,-0.97597 8.37725,-1.46397 12.444,-1.464 4.06658,3e-5 7.48257,1.05737 10.248,3.172 -0.16276,2.928029 0.56924,5.286693 2.196,7.076001 1.62657,1.626689 3.25323,3.253354 4.88,4.88 4.06656,4.229348 4.39189,9.841342 0.976,16.836 -3.25343,6.831995 -9.10943,11.46799 -17.568,13.908"
         id="path3088"
         style="font-weight:normal;fill:#ffffff;font-family:Knewave;-inkscape-font-specification:Knewave" />
      <path
         d="m 340.57331,-232.02295 c 10.24794,-11.71183 21.63459,-19.03182 34.16,-21.96 8.62124,-2.11448 16.75456,-1.78915 24.4,0.976 6.01855,-6.34381 13.82654,-8.62114 23.424,-6.832 8.78386,1.62686 16.26651,6.58818 22.448,14.884 0.32517,1.13884 0.97584,2.84684 1.952,5.124 1.13851,2.2775 2.19584,4.79883 3.172,7.564 7.15716,16.59215 7.7265,38.38946 1.708,65.392 -7.48282,33.5094 -20.74014,61.8947 -39.772,85.156001 -5.85612,7.157337 -12.44411,13.094664 -19.764,17.812 -11.71209,8.946651 -25.70141,12.93198 -41.968,11.956 -10.08539,-0.488018 -18.54405,-3.009349 -25.376,-7.564 -27.16534,-13.501331 -36.03067,-41.642641 -26.596,-84.424001 7.80798,-35.13589 21.87863,-64.49719 42.212,-88.084 m 2.928,129.564 -0.244,1.464 0.488,2.684001 c 0.97594,5.042689 2.60261,8.946685 4.88,11.712 2.27727,2.60268 4.14793,4.229345 5.612,4.88 1.6266,-1.301321 3.25326,-2.52132 4.88,-3.66 1.62659,-1.138651 3.09059,-2.521316 4.392,-4.148 11.06125,-13.663971 19.68257,-31.557281 25.864,-53.680001 6.18122,-22.12257 8.45856,-42.61855 6.832,-61.488 -6.3441,8.13346 -13.01343,17.48678 -20.008,28.06 -6.99475,10.57343 -12.52541,19.60142 -16.592,27.084 -9.27206,17.4054 -14.64006,33.10271 -16.104,47.092"
         id="path3090"
         style="font-weight:normal;fill:#ffffff;font-family:Knewave;-inkscape-font-specification:Knewave" />
      <path
         d="m 466.15324,-78.546949 -1.708,-157.624001 c -1e-5,-3.90383 1.54532,-7.23849 4.636,-10.004 3.25331,-2.92782 6.91331,-4.96115 10.98,-6.1 4.06663,-1.13848 7.8893,-1.30115 11.468,-0.488 3.57862,0.81352 5.85595,2.92818 6.832,6.344 3.09062,6.1815 5.20528,14.7215 6.344,25.62 2.11461,20.33346 3.17194,37.90145 3.172,52.704 1.62661,2.60276 3.65994,3.82276 6.1,3.66 6.9946,-17.07989 14.72125,-33.50921 23.18,-49.288 8.45857,-15.77851 13.9079,-25.86383 16.348,-30.256 2.43989,-4.55449 5.36789,-7.72648 8.784,-9.516 3.41588,-1.78915 7.07588,-2.92781 10.98,-3.416 8.45853,-0.97581 16.42919,0.48819 23.912,4.392 5.69318,1.95218 9.02784,5.28684 10.004,10.004 3.74117,7.48283 1.21984,16.10416 -7.564,25.864 -10.24814,16.2668 -20.57746,34.24145 -30.988,53.924 -19.84543,37.90139 -32.45209,61.24403 -37.82,70.028001 -5.36808,8.784013 -9.27207,15.046673 -11.712,18.788 -2.44007,3.578666 -5.2054,6.587996 -8.296,9.028 -5.53072,4.39199 -12.20005,6.181321 -20.008,5.368 -13.66403,-0.488011 -21.63469,-4.798673 -23.912,-12.932 -0.48802,-2.277329 -0.73202,-4.310661 -0.732,-6.1"
         id="path3092"
         style="font-weight:normal;fill:#ffffff;font-family:Knewave;-inkscape-font-specification:Knewave" />
      <path
         d="m 703.60718,-101.23895 c 9.4346,0.97603 16.42926,1.46403 20.984,1.464001 4.71725,2.9e-5 11.79325,-0.650641 21.228,-1.952001 2.9279,0.97603 4.6359,2.19603 5.124,3.660001 0.4879,1.464026 0.65056,3.009358 0.488,4.636 -0.16277,1.464021 -0.0814,2.92802 0.244,4.392 0.32523,1.464017 1.87056,2.684016 4.636,3.66 1.46389,0.488014 1.87056,1.952013 1.22,4.392 -0.48811,2.277341 -1.78944,4.798672 -3.904,7.564 -5.3681,6.994662 -11.71209,11.874657 -19.032,14.64 -11.71207,2.927985 -20.90273,4.635983 -27.572,5.124 -11.06138,0.813315 -23.0987,0.406649 -36.112,-1.22 -14.31467,-2.60268 -21.228,-8.540007 -20.74,-17.812 0,-34.159961 7.48266,-68.482601 22.448,-102.968001 4.87997,-11.22388 10.41063,-23.0172 16.592,-35.38 1.30129,-2.60252 2.03329,-5.53052 2.196,-8.784 0.32529,-3.25318 0.56929,-6.42518 0.732,-9.516 0.16262,-3.0905 0.65062,-5.85583 1.464,-8.296 0.81329,-2.43983 2.52129,-4.14783 5.124,-5.124 33.83458,-13.50115 60.59322,-18.70648 80.276,-15.616 6.83186,0.16286 11.30519,2.52152 13.42,7.076 2.27719,4.39218 2.52119,9.35351 0.732,14.884 -1.62681,5.53083 -4.96147,10.73616 -10.004,15.616 -4.88013,4.88015 -11.06146,7.88948 -18.544,9.028 -9.59744,2.76547 -15.45343,4.63614 -17.568,5.612 -4.06676,1.95213 -6.99476,4.5548 -8.784,7.808 -2.27742,3.57879 -4.39208,6.99479 -6.344,10.248 -1.95208,3.25345 -3.33475,6.75078 -4.148,10.492 l -0.976,5.368 c 3.09059,1.4641 6.83192,1.9521 11.224,1.464 4.55457,-0.65057 8.70257,-1.2199 12.444,-1.708 3.90389,-0.65056 6.99456,-0.7319 9.272,-0.244 2.43989,0.4881 2.92789,2.9281 1.464,7.32 -1.30144,4.22942 -3.82278,9.02809 -7.564,14.396 -3.57877,5.36808 -8.70276,9.27207 -15.372,11.712 -4.22942,0.8134 -7.15742,1.46407 -8.784,1.952 -1.46408,0.3254 -2.60274,0.5694 -3.416,0.732 -1.13874,0.16273 -4.39207,0.40673 -9.76,0.732 -7.64539,13.01339 -12.28139,23.09871 -13.908,30.256 -0.65072,2.92803 -0.24405,4.39203 1.22,4.392"
         id="path3094"
         style="font-weight:normal;fill:#ffffff;font-family:Knewave;-inkscape-font-specification:Knewave" />
      <path
         d="m 861.32649,-58.782949 c -3.41608,0.975987 -6.66941,1.463986 -9.76,1.464 -3.09074,0.162653 -6.26273,0.325319 -9.516,0.488 -3.09073,0.162652 -7.40139,0.243986 -12.932,0.244 -5.53071,-1.4e-5 -13.8267,-0.162681 -24.888,-0.488 -2.60269,0.162653 -5.20535,0.243986 -7.808,0.244 -2.60268,-1.4e-5 -5.04268,-0.488014 -7.32,-1.464 -5.04267,-2.114677 -8.45867,-6.994672 -10.248,-14.64 -0.81333,-3.578661 -1.708,-6.099992 -2.684,-7.564 -1.13866,-1.463989 -2.03333,-2.846654 -2.684,-4.148 -1.62666,-2.60265 -1.46399,-6.913313 0.488,-12.932 1.78934,-6.018631 4.148,-13.419961 7.076,-22.204001 2.928,-8.94661 6.26266,-18.38127 10.004,-28.304 8.78398,-23.58656 16.67331,-42.29321 23.668,-56.12 2.7653,-6.18119 5.12396,-11.54919 7.076,-16.104 2.11462,-4.55451 3.98529,-8.45851 5.612,-11.712 1.62662,-3.41583 2.43995,-5.20517 2.44,-5.368 1.62661,-6.18116 7.88928,-11.38649 18.788,-15.616 10.57325,-4.39181 20.17058,-5.53048 28.792,-3.416 9.59723,2.44018 13.82656,8.78418 12.688,19.032 -2.27744,10.08549 -5.69344,20.17081 -10.248,30.256 -4.3921,10.08546 -9.43476,20.65878 -15.128,31.72 -5.69341,11.06143 -11.87474,22.77342 -18.544,35.136 -6.66939,12.36272 -13.25739,25.78271 -19.764,40.26 -0.16271,0.650696 0.16262,1.220029 0.976,1.708001 2.11462,-0.162639 5.04261,-0.813305 8.784,-1.952001 3.90394,-1.13864 7.88927,-2.11463 11.956,-2.928 4.22926,-0.97597 8.37726,-1.46397 12.444,-1.464 4.06658,3e-5 7.48258,1.05737 10.248,3.172 -0.16276,2.928029 0.56924,5.286693 2.196,7.076001 1.62657,1.626689 3.25324,3.253354 4.88,4.88 4.06656,4.229348 4.3919,9.841342 0.976,16.836 -3.25343,6.831995 -9.10942,11.46799 -17.568,13.908"
         id="path3096"
         style="font-weight:normal;fill:#ffffff;font-family:Knewave;-inkscape-font-specification:Knewave" />
      <path
         d="m 919.83693,-162.97095 c -2.76536,-23.58655 -3.90402,-42.7812 -3.416,-57.584 -0.32536,-6.99451 2.52131,-13.66384 8.54,-20.008 5.69329,-6.01849 11.63062,-9.35315 17.812,-10.004 6.83194,-0.48782 11.22394,3.33484 13.176,11.468 1.30127,4.55483 2.92793,9.84149 4.88,15.86 1.95193,6.01881 3.82259,12.36281 5.612,19.032 1.78926,-2.43986 4.63592,-6.75053 8.54,-12.932 3.90391,-6.18118 7.56391,-11.71184 10.98,-16.592 8.2959,-11.87449 15.61587,-20.17048 21.95997,-24.888 6.1812,-2.43981 11.4679,-3.09047 15.86,-1.952 4.5546,0.97619 7.8079,2.60285 9.76,4.88 2.1146,2.27752 2.9279,5.61218 2.44,10.004 -0.3254,10.24817 -8.1334,26.35215 -23.424,48.312 -3.5788,5.04279 -7.2388,10.89878 -10.98,17.568 -3.57874,6.66944 -7.80807,14.1521 -12.68797,22.448 -4.71743,8.13341 -9.27209,16.26674 -13.664,24.4 -10.08541,18.38138 -17.97473,35.868027 -23.668,52.460001 0.16261,-0.325323 0.81327,0.08134 1.952,1.22 1.1386,0.976007 2.19594,2.440006 3.172,4.392 2.6026,4.879999 2.3586,8.946662 -0.732,12.2 -7.80806,8.133317 -17.48671,12.687979 -29.036,13.664 -10.57336,0.813311 -19.68268,-1.138687 -27.328,-5.856 -7.64533,-4.392012 -10.16666,-9.841339 -7.564,-16.348 l -0.732,0 c 3.57866,-9.27199 7.64533,-17.974648 12.2,-26.108 4.55465,-8.295961 9.27198,-16.835961 14.152,-25.620001 l 10.98,-19.52 c -2.76537,0.65074 -5.0427,-1.30126 -6.832,-5.856 -1.30136,-3.74125 -1.95203,-8.62125 -1.952,-14.64"
         id="path3098"
         style="font-weight:normal;fill:#ffffff;font-family:Knewave;-inkscape-font-specification:Knewave" />
    </g>
    <g
       id="text2993"
       style="font-size:244px;font-style:normal;font-variant:normal;font-weight:bold;font-stretch:normal;line-height:125%;letter-spacing:0px;word-spacing:0px;fill:#ffffff;fill-opacity:1;stroke:none;font-family:'Lobster 1.4';-inkscape-font-specification:'Lobster 1.4 Bold'">
      <path
         d="m 181.33594,820.47937 c 0.0469,-0.79686 0.28125,-1.71092 0.70312,-2.74219 0.42188,-1.03123 1.07812,-2.03904 1.96875,-3.02343 0.89062,-0.98436 2.01562,-1.85155 3.375,-2.60157 1.35937,-0.79685 2.95312,-1.35935 4.78125,-1.6875 1.87499,-0.3281 3.98436,-0.35154 6.32813,-0.0703 2.3906,0.28127 5.03904,0.9844 7.94531,2.10938 -3e-5,-0.0469 -3e-5,-0.28123 0,-0.70313 l -0.0703,-0.63281 c -3e-5,-1.21873 -0.35159,-2.46092 -1.05469,-3.72656 -0.70315,-1.2656 -1.61721,-2.3906 -2.74219,-3.375 -1.07814,-1.03123 -2.25002,-1.85154 -3.51562,-2.46094 -1.26565,-0.65622 -2.48439,-0.98435 -3.65625,-0.98438 -0.46877,3e-5 -0.89064,0.0704 -1.26563,0.21094 -0.32814,0.14066 -0.65626,0.32816 -0.98437,0.5625 -0.32814,0.18753 -0.65626,0.37503 -0.98438,0.5625 -0.28126,0.14066 -0.63282,0.21097 -1.05469,0.21094 -0.0938,3e-5 -0.14063,-0.0234 -0.14062,-0.0703 -0.0469,-0.0468 -0.0938,-0.0937 -0.14063,-0.14063 -0.0938,-0.0937 -0.23438,-0.21091 -0.42187,-0.35156 -0.14064,-0.1406 -0.21095,-0.23435 -0.21094,-0.28125 -1e-5,-0.84372 0.14062,-1.57028 0.42188,-2.17969 0.32811,-0.60934 0.74999,-1.10153 1.26562,-1.47656 0.56249,-0.37497 1.17186,-0.65622 1.82813,-0.84375 0.70311,-0.23434 1.42967,-0.35153 2.17968,-0.35156 1.87499,0.18753 3.65624,0.77347 5.34375,1.75781 1.73436,0.93753 3.30467,2.13284 4.71094,3.58594 1.4531,1.45315 2.71872,3.14065 3.79688,5.0625 1.07809,1.87502 1.96872,3.84377 2.67187,5.90625 0.74997,2.01564 1.24216,4.0547 1.47656,6.11718 0.28122,2.15626 0.30466,4.17189 0.0703,6.04688 -0.0469,10e-6 -0.18754,10e-6 -0.42188,0 -0.23441,-0.0469 -0.49222,-0.0703 -0.77344,-0.0703 -0.28128,-0.0469 -0.51565,-0.0937 -0.70312,-0.14063 l -0.35156,-0.0703 c -0.98441,-2.20312 -2.08597,-3.98437 -3.30469,-5.34375 -1.21878,-1.35936 -2.43753,-2.41405 -3.65625,-3.16406 -1.1719,-0.79686 -2.27346,-1.33592 -3.30469,-1.61719 -1.03127,-0.32811 -1.87502,-0.56248 -2.53125,-0.70313 -0.70314,2e-5 -1.54689,0.0469 -2.53125,0.14063 -0.93751,0.0938 -1.92189,0.25783 -2.95312,0.49219 -1.03126,0.23439 -2.08595,0.56251 -3.16407,0.98437 -1.03125,0.37502 -1.96875,0.84377 -2.8125,1.40625 -0.79688,0.56252 -1.45313,1.2422 -1.96875,2.03906 -0.46875,0.75002 -0.70312,1.64064 -0.70312,2.67188 0,1.12501 0.44531,2.08594 1.33594,2.88281 0.89062,0.75001 1.96874,1.38282 3.23437,1.89844 1.26562,0.46875 2.55468,0.79688 3.86719,0.98437 1.31249,0.18751 2.36717,0.28126 3.16406,0.28125 1.31248,10e-6 2.60155,-0.0703 3.86719,-0.21093 1.2656,-0.14062 2.50779,-0.30469 3.72656,-0.49219 1.2656,-0.1875 2.50779,-0.35156 3.72656,-0.49219 1.21873,-0.14062 2.43747,-0.21093 3.65625,-0.21094 0.0937,10e-6 0.25779,10e-6 0.49219,0 0.23435,10e-6 0.46872,0.0235 0.70313,0.0703 0.28121,0 0.51559,0 0.70312,0 0.23434,0 0.39841,0 0.49219,0 0.37497,0.14063 0.5859,0.35156 0.63281,0.63281 0.0468,0.28125 0.0703,0.5625 0.0703,0.84375 -3e-5,0.28125 -0.30472,0.58594 -0.91406,0.91406 -0.56253,0.32813 -1.31253,0.65625 -2.25,0.98438 -0.93753,0.32812 -1.99221,0.67968 -3.16406,1.05468 -1.12503,0.32813 -2.22659,0.60938 -3.30469,0.84375 -1.03127,0.23438 -2.01565,0.44532 -2.95312,0.63282 -0.89065,0.14062 -1.52346,0.21093 -1.89844,0.21093 -1.96877,0 -4.0547,-0.16406 -6.25781,-0.49218 -2.20314,-0.32813 -4.21876,-0.91407 -6.04688,-1.75782 -1.82813,-0.89062 -3.35156,-2.10937 -4.57031,-3.65625 -1.17188,-1.54686 -1.75781,-3.53905 -1.75781,-5.97656"
         id="path3101"
         style="font-size:72px;fill:#ffffff;font-family:Indie Flower;-inkscape-font-specification:Indie Flower Bold" />
      <path
         d="m 217.75781,823.15125 c 0,-2.95312 0.51563,-5.43749 1.54688,-7.45313 1.03124,-2.01561 2.39062,-3.63279 4.07812,-4.85156 1.73437,-1.21873 3.72655,-2.10935 5.97656,-2.67188 2.29686,-0.56247 4.68749,-0.84372 7.17188,-0.84375 2.0156,3e-5 3.96091,0.32815 5.83594,0.98438 1.92184,0.65627 3.63278,1.57033 5.13281,2.74219 1.49997,1.17189 2.69528,2.60158 3.58594,4.28906 0.89059,1.68751 1.3359,3.60939 1.33593,5.76562 -3e-5,1.87501 -0.35159,3.42189 -1.05468,4.64063 -0.70316,1.17188 -1.6641,2.10938 -2.88282,2.8125 -1.21878,0.65625 -2.57815,1.125 -4.07812,1.40625 -1.45315,0.28125 -2.95315,0.42187 -4.5,0.42187 -1.50002,0 -3.0469,-0.0703 -4.64063,-0.21093 -1.54689,-0.14063 -2.97657,-0.46875 -4.28906,-0.98438 -1.31251,-0.51562 -2.39063,-1.28906 -3.23437,-2.32031 -0.84376,-1.03125 -1.26564,-2.48437 -1.26563,-4.35938 0.98437,1e-5 1.92187,0.21095 2.8125,0.63282 0.93749,0.375 1.87499,0.79688 2.8125,1.26562 0.93749,0.42188 1.87498,0.82032 2.8125,1.19531 0.89061,0.42188 1.85154,0.63282 2.88281,0.63282 0.74998,0 1.73436,-0.0703 2.95313,-0.21094 1.2656,-0.14062 2.43747,-0.39843 3.51562,-0.77344 1.12498,-0.42187 2.08591,-0.98437 2.88282,-1.6875 0.79684,-0.70312 1.19528,-1.59374 1.19531,-2.67187 -3e-5,-1.59374 -0.35159,-2.97655 -1.05469,-4.14844 -0.70315,-1.17186 -1.61721,-2.1328 -2.74219,-2.88281 -1.12502,-0.79686 -2.39065,-1.40623 -3.79687,-1.82813 -1.40627,-0.42185 -2.81252,-0.63279 -4.21875,-0.63281 -0.18752,2e-5 -0.65627,0.0469 -1.40625,0.14062 -0.70314,0.0938 -1.52345,0.25784 -2.46094,0.49219 -0.93751,0.18752 -1.92189,0.44533 -2.95312,0.77344 -1.03126,0.28127 -1.9922,0.65627 -2.88282,1.125 -0.84375,0.42189 -1.54688,0.91408 -2.10937,1.47656 -0.56251,0.56252 -0.84376,1.19533 -0.84375,1.89844 l 0,0.84375 c 0.0469,0.51564 0.0937,1.21876 0.14062,2.10937 0.0937,0.84376 0.16406,1.71095 0.21094,2.60157 0.0469,0.84375 0.11718,1.59375 0.21094,2.25 0.0937,0.65625 0.14062,1.03125 0.14062,1.125 0.0937,0.75 0.25781,1.92187 0.49219,3.51562 0.23437,1.54688 0.49218,3.28125 0.77344,5.20313 0.28124,1.96874 0.58593,4.03124 0.91406,6.1875 0.37499,2.15623 0.72655,4.19529 1.05469,6.11718 0.32811,1.96874 0.60936,3.72655 0.84375,5.27344 0.28124,1.54685 0.49217,2.67185 0.63281,3.375 -1e-5,0.0937 -1e-5,0.16404 0,0.21094 0.0469,0.0937 0.0703,0.16404 0.0703,0.21094 -1e-5,0.0468 -1e-5,0.0703 0,0.0703 l -0.0703,0.14062 0,0.14063 c -0.0938,0.1406 -0.3047,0.37497 -0.63281,0.70312 -0.37501,0.28123 -0.60939,0.46873 -0.70313,0.5625 l -0.42187,0 c -0.46876,-2e-5 -0.96095,-0.44534 -1.47656,-1.33593 -0.51564,-0.84378 -1.0547,-2.01565 -1.61719,-3.51563 -0.51563,-1.45314 -1.05469,-3.14064 -1.61719,-5.0625 -0.51563,-1.92189 -1.03125,-3.91407 -1.54687,-5.97656 -0.51563,-2.06251 -0.98438,-4.10157 -1.40625,-6.11719 -0.42188,-2.01563 -0.79688,-3.89062 -1.125,-5.625 -0.32813,-1.73437 -0.58594,-3.23437 -0.77344,-4.5 -0.14063,-1.26562 -0.21094,-2.15624 -0.21094,-2.67187"
         id="path3103"
         style="font-size:72px;fill:#ffffff;font-family:Indie Flower;-inkscape-font-specification:Indie Flower Bold" />
      <path
         d="m 255.30469,823.15125 c 0,-2.95312 0.51562,-5.43749 1.54687,-7.45313 1.03125,-2.01561 2.39062,-3.63279 4.07813,-4.85156 1.73436,-1.21873 3.72655,-2.10935 5.97656,-2.67188 2.29686,-0.56247 4.68748,-0.84372 7.17187,-0.84375 2.01561,3e-5 3.96092,0.32815 5.83594,0.98438 1.92185,0.65627 3.63279,1.57033 5.13281,2.74219 1.49997,1.17189 2.69528,2.60158 3.58594,4.28906 0.89059,1.68751 1.3359,3.60939 1.33594,5.76562 -4e-5,1.87501 -0.3516,3.42189 -1.05469,4.64063 -0.70316,1.17188 -1.66409,2.10938 -2.88281,2.8125 -1.21878,0.65625 -2.57815,1.125 -4.07813,1.40625 -1.45315,0.28125 -2.95315,0.42187 -4.5,0.42187 -1.50002,0 -3.04689,-0.0703 -4.64062,-0.21093 -1.54689,-0.14063 -2.97658,-0.46875 -4.28906,-0.98438 -1.31252,-0.51562 -2.39064,-1.28906 -3.23438,-2.32031 -0.84376,-1.03125 -1.26563,-2.48437 -1.26562,-4.35938 0.98436,1e-5 1.92186,0.21095 2.8125,0.63282 0.93748,0.375 1.87498,0.79688 2.8125,1.26562 0.93748,0.42188 1.87498,0.82032 2.8125,1.19531 0.8906,0.42188 1.85154,0.63282 2.88281,0.63282 0.74998,0 1.73435,-0.0703 2.95312,-0.21094 1.2656,-0.14062 2.43748,-0.39843 3.51563,-0.77344 1.12497,-0.42187 2.08591,-0.98437 2.88281,-1.6875 0.79685,-0.70312 1.19528,-1.59374 1.19531,-2.67187 -3e-5,-1.59374 -0.35159,-2.97655 -1.05468,-4.14844 -0.70316,-1.17186 -1.61722,-2.1328 -2.74219,-2.88281 -1.12503,-0.79686 -2.39065,-1.40623 -3.79688,-1.82813 -1.40627,-0.42185 -2.81252,-0.63279 -4.21875,-0.63281 -0.18751,2e-5 -0.65626,0.0469 -1.40625,0.14062 -0.70314,0.0938 -1.52345,0.25784 -2.46093,0.49219 -0.93752,0.18752 -1.92189,0.44533 -2.95313,0.77344 -1.03126,0.28127 -1.9922,0.65627 -2.88281,1.125 -0.84376,0.42189 -1.54688,0.91408 -2.10938,1.47656 -0.5625,0.56252 -0.84375,1.19533 -0.84375,1.89844 l 0,0.84375 c 0.0469,0.51564 0.0937,1.21876 0.14063,2.10937 0.0937,0.84376 0.16405,1.71095 0.21094,2.60157 0.0469,0.84375 0.11718,1.59375 0.21093,2.25 0.0937,0.65625 0.14062,1.03125 0.14063,1.125 0.0937,0.75 0.2578,1.92187 0.49219,3.51562 0.23436,1.54688 0.49218,3.28125 0.77343,5.20313 0.28125,1.96874 0.58593,4.03124 0.91407,6.1875 0.37499,2.15623 0.72655,4.19529 1.05468,6.11718 0.32812,1.96874 0.60937,3.72655 0.84375,5.27344 0.28124,1.54685 0.49218,2.67185 0.63282,3.375 -2e-5,0.0937 -2e-5,0.16404 0,0.21094 0.0469,0.0937 0.0703,0.16404 0.0703,0.21094 -1e-5,0.0468 -1e-5,0.0703 0,0.0703 l -0.0703,0.14062 0,0.14063 c -0.0938,0.1406 -0.3047,0.37497 -0.63282,0.70312 -0.37501,0.28123 -0.60938,0.46873 -0.70312,0.5625 l -0.42188,0 c -0.46876,-2e-5 -0.96094,-0.44534 -1.47656,-1.33593 -0.51563,-0.84378 -1.05469,-2.01565 -1.61719,-3.51563 -0.51563,-1.45314 -1.05469,-3.14064 -1.61718,-5.0625 -0.51563,-1.92189 -1.03126,-3.91407 -1.54688,-5.97656 -0.51563,-2.06251 -0.98438,-4.10157 -1.40625,-6.11719 -0.42188,-2.01563 -0.79688,-3.89062 -1.125,-5.625 -0.32812,-1.73437 -0.58594,-3.23437 -0.77344,-4.5 -0.14062,-1.26562 -0.21093,-2.15624 -0.21093,-2.67187"
         id="path3105"
         style="font-size:72px;fill:#ffffff;font-family:Indie Flower;-inkscape-font-specification:Indie Flower Bold" />
      <path
         d="m 299.25,832.36218 c -1.03126,-1.875 -1.92188,-3.91406 -2.67188,-6.11718 -0.75,-2.20312 -1.38281,-4.42968 -1.89843,-6.67969 -0.51563,-2.24999 -0.9375,-4.42967 -1.26563,-6.53906 -0.28125,-2.15623 -0.46875,-4.10154 -0.5625,-5.83594 0,-0.3281 -0.0234,-0.67966 -0.0703,-1.05469 -0.0469,-0.42185 -0.0703,-0.84372 -0.0703,-1.26562 0.0469,-0.42185 0.11718,-0.82029 0.21093,-1.19532 0.14063,-0.37497 0.35157,-0.70309 0.63282,-0.98437 l 0.14062,0 c 0.0469,3e-5 0.0703,3e-5 0.0703,0 0,-0.0468 0.0234,-0.0703 0.0703,-0.0703 0.0469,2e-5 0.0703,0.0235 0.0703,0.0703 0,3e-5 0.0469,3e-5 0.14062,0 l 0.14063,0 c 0.0937,0.0469 0.32812,0.14065 0.70312,0.28125 0.375,0.14065 0.60938,0.25784 0.70313,0.35156 0.84375,-0.28122 1.71093,-0.60935 2.60156,-0.98437 0.89062,-0.42185 1.78124,-0.79685 2.67188,-1.125 0.93749,-0.37497 1.87499,-0.67966 2.8125,-0.91407 0.93748,-0.23434 1.85155,-0.35153 2.74218,-0.35156 0.65624,3e-5 1.21874,0.0235 1.6875,0.0703 0.51561,0.0469 1.0078,0.14066 1.47657,0.28125 0.5156,0.0938 1.05467,0.23441 1.61718,0.42188 0.56248,0.14065 1.21873,0.32815 1.96875,0.5625 0.37498,0.28128 0.70311,0.56253 0.98438,0.84375 0.3281,0.2344 0.60935,0.51565 0.84375,0.84375 0.28123,0.32815 0.49216,0.72659 0.63281,1.19531 0.1406,0.46878 0.21092,1.07815 0.21094,1.82813 -0.75002,0.0938 -1.64065,0.0469 -2.67188,-0.14063 -0.98439,-0.23435 -2.03908,-0.5156 -3.16406,-0.84375 -1.07814,-0.3281 -2.20314,-0.60935 -3.375,-0.84375 -1.17189,-0.23435 -2.29689,-0.3281 -3.375,-0.28125 -1.07813,0.0469 -2.08594,0.35159 -3.02344,0.91406 -0.98438,0.46878 -1.85156,1.31253 -2.60156,2.53125 -0.32813,1.3594 -0.46875,2.69534 -0.42187,4.00782 0.0469,1.31251 0.21093,2.60158 0.49218,3.86718 0.28125,1.21877 0.63281,2.46095 1.05469,3.72657 0.46874,1.21876 0.89062,2.46094 1.26563,3.72656 0.42186,1.21876 0.79686,2.4375 1.125,3.65625 0.32811,1.21875 0.53905,2.46094 0.63281,3.72656 -10e-6,0.46875 -0.25782,0.98438 -0.77344,1.54688 -0.51563,0.51562 -1.10157,0.77343 -1.75781,0.77343"
         id="path3107"
         style="font-size:72px;fill:#ffffff;font-family:Indie Flower;-inkscape-font-specification:Indie Flower Bold" />
      <path
         d="m 317.88281,818.01843 c 0,-2.57811 0.5625,-4.8281 1.6875,-6.75 1.125,-1.92185 2.60156,-3.53904 4.42969,-4.85156 1.82812,-1.31247 3.86718,-2.27341 6.11719,-2.88281 2.29686,-0.65622 4.59373,-0.98435 6.89062,-0.98438 1.21873,3e-5 2.34373,0.23441 3.375,0.70313 1.0781,0.4219 2.08591,1.03128 3.02344,1.82812 0.98435,0.75003 1.85153,1.64065 2.60156,2.67188 0.74997,0.9844 1.38278,2.01565 1.89844,3.09375 0.56247,1.07814 0.98434,2.1797 1.26562,3.30469 0.28122,1.07814 0.42185,2.13282 0.42188,3.16406 -3e-5,2.39064 -0.46878,4.52345 -1.40625,6.39844 -0.93753,1.875 -2.20315,3.46875 -3.79688,4.78125 -1.59377,1.26562 -3.39846,2.25 -5.41406,2.95312 -2.01564,0.65625 -4.07814,0.98438 -6.1875,0.98438 -2.15626,0 -4.14845,-0.32813 -5.97656,-0.98438 -1.78126,-0.70312 -3.35157,-1.66406 -4.71094,-2.88281 -1.3125,-1.21875 -2.34375,-2.71875 -3.09375,-4.5 -0.75,-1.82812 -1.125,-3.84374 -1.125,-6.04688 m 3.44531,-0.5625 c 0,1.45314 0.25781,2.85939 0.77344,4.21875 0.5625,1.31251 1.3125,2.46095 2.25,3.44532 0.98437,0.98438 2.13281,1.78125 3.44531,2.39062 1.31249,0.5625 2.71874,0.84375 4.21875,0.84375 0.79686,0.0937 1.7578,-0.0234 2.88282,-0.35156 1.17185,-0.375 2.32029,-0.89062 3.44531,-1.54688 1.17185,-0.70312 2.27341,-1.52343 3.30469,-2.46093 1.0781,-0.98437 1.96872,-2.03906 2.67187,-3.16407 0.7031,-1.17186 1.12497,-2.36717 1.26563,-3.58593 0.18747,-1.26561 -0.0235,-2.5078 -0.63282,-3.72657 -0.56252,-1.2656 -1.61721,-2.46091 -3.16406,-3.58593 -1.5469,-1.17186 -3.67971,-2.24998 -6.39844,-3.23438 -1.54689,3e-5 -3.16407,0.2344 -4.85156,0.70313 -1.64063,0.42189 -3.14063,1.07814 -4.5,1.96875 -1.35938,0.89064 -2.48438,2.01564 -3.375,3.375 -0.89063,1.35939 -1.33594,2.9297 -1.33594,4.71093"
         id="path3109"
         style="font-size:72px;fill:#ffffff;font-family:Indie Flower;-inkscape-font-specification:Indie Flower Bold" />
      <path
         d="m 352.40625,807.33093 c 0.0469,-0.1406 0.11719,-0.30466 0.21094,-0.49218 0.0937,-0.23435 0.21093,-0.46873 0.35156,-0.70313 0.1875,-0.23435 0.35156,-0.42185 0.49219,-0.5625 0.1875,-0.18747 0.39843,-0.28122 0.63281,-0.28125 0.0469,3e-5 0.0703,0.0235 0.0703,0.0703 0,3e-5 0.0469,3e-5 0.14063,0 l 0.14062,0 c 1.07812,0.51565 1.96875,1.26565 2.67188,2.25 0.70312,0.93753 1.31249,2.01565 1.82812,3.23438 0.56249,1.21877 1.07812,2.53127 1.54688,3.9375 0.46874,1.35939 0.98436,2.71876 1.54687,4.07812 0.60937,1.31251 1.31249,2.60158 2.10938,3.86719 0.79686,1.26563 1.80467,2.39063 3.02343,3.375 0.42186,-1.40624 0.84374,-2.76562 1.26563,-4.07812 0.42186,-1.35937 0.89061,-2.71874 1.40625,-4.07813 0.56248,-1.35936 1.19529,-2.76561 1.89844,-4.21875 0.74998,-1.4531 1.59373,-3.02342 2.53125,-4.71094 1.12497,-0.46872 2.0156,-0.74997 2.67187,-0.84375 0.7031,-0.0937 1.19529,3e-5 1.47656,0.28125 0.28123,0.2344 0.3281,0.6094 0.14063,1.125 -0.18753,0.51565 -0.58596,1.12502 -1.19531,1.82813 -0.37503,0.32814 -0.82034,1.07814 -1.33594,2.25 -0.46877,1.17189 -0.9844,2.5547 -1.54688,4.14844 -0.56252,1.59376 -1.17189,3.25782 -1.82812,4.99218 -0.6094,1.73439 -1.24221,3.32813 -1.89844,4.78125 -0.65627,1.40626 -1.31252,2.57813 -1.96875,3.51563 -0.60939,0.9375 -1.21876,1.38281 -1.82812,1.33594 -0.65627,0 -1.40627,-0.49219 -2.25,-1.47657 -0.79689,-1.03124 -1.66408,-2.34374 -2.60157,-3.9375 -0.9375,-1.59374 -1.875,-3.32811 -2.8125,-5.20312 -0.9375,-1.92186 -1.85156,-3.8203 -2.74218,-5.69531 -0.84376,-1.87499 -1.64063,-3.58592 -2.39063,-5.13282 -0.70312,-1.59372 -1.28906,-2.81247 -1.75781,-3.65625"
         id="path3111"
         style="font-size:72px;fill:#ffffff;font-family:Indie Flower;-inkscape-font-specification:Indie Flower Bold" />
      <path
         d="m 381.16406,813.51843 c 0,-2.43748 0.35156,-4.75779 1.05469,-6.96093 0.75,-2.24998 1.80468,-4.21872 3.16406,-5.90625 1.40625,-1.68747 3.09374,-3.02341 5.0625,-4.00782 2.01561,-1.03121 4.33593,-1.54684 6.96094,-1.54687 1.54686,0.18753 2.88279,0.60941 4.00781,1.26562 1.17185,0.65629 2.10935,1.4766 2.8125,2.46094 0.74998,0.93753 1.28904,2.03909 1.61719,3.30469 0.28122,1.21878 0.42185,2.53128 0.42187,3.9375 -2e-5,1.68752 -0.49221,3.21096 -1.47656,4.57031 -0.9844,1.3594 -2.22658,2.50783 -3.72656,3.44531 -1.50002,0.89065 -3.11721,1.59377 -4.85156,2.10938 -1.73439,0.46876 -3.35158,0.70314 -4.85157,0.70312 -0.56251,2e-5 -1.14844,2e-5 -1.75781,0 -0.56251,2e-5 -1.07813,-0.0937 -1.54687,-0.28125 -0.46876,-0.18748 -0.84376,-0.46873 -1.125,-0.84375 -0.28126,-0.37498 -0.42188,-0.93748 -0.42188,-1.6875 0,-0.23435 0.0234,-0.42185 0.0703,-0.5625 0.0937,-0.18748 0.30469,-0.30467 0.63282,-0.35156 0.32811,-0.0937 0.8203,-0.11717 1.47656,-0.0703 0.65624,0.0938 1.54686,0.23439 2.67187,0.42187 0.65624,2e-5 1.59374,-0.21092 2.8125,-0.63281 1.26561,-0.46873 2.53124,-1.05467 3.79688,-1.75781 1.31248,-0.70311 2.43748,-1.49998 3.375,-2.39063 0.93748,-0.93747 1.40623,-1.85153 1.40625,-2.74218 -2e-5,-0.93748 -0.16409,-1.85154 -0.49219,-2.74219 -0.28127,-0.93747 -0.72658,-1.75778 -1.33594,-2.46094 -0.60939,-0.70309 -1.33595,-1.26559 -2.17968,-1.6875 -0.7969,-0.42184 -1.71096,-0.5859 -2.74219,-0.49219 -1.64064,0.14066 -3.14064,0.58597 -4.5,1.33594 -1.31251,0.75003 -2.43751,1.73441 -3.375,2.95313 -0.93751,1.1719 -1.66407,2.4844 -2.17969,3.9375 -0.51563,1.45314 -0.77344,2.97658 -0.77344,4.57031 0,1.21877 0.0234,2.43752 0.0703,3.65625 0.0469,1.21876 0.21093,2.41407 0.49218,3.58594 0.32812,1.17188 0.82031,2.29688 1.47657,3.375 0.70311,1.07813 1.68749,2.03907 2.95312,2.88281 1.31249,0.79688 2.95311,1.47657 4.92188,2.03906 1.96873,0.51563 4.40623,0.84375 7.3125,0.98438 l 12.58593,-0.84375 c -0.75003,1.03125 -1.71097,1.875 -2.88281,2.53125 -1.12503,0.65625 -2.34378,1.19531 -3.65625,1.61718 -1.26565,0.375 -2.53127,0.65625 -3.79687,0.84375 -1.26565,0.1875 -2.46096,0.28125 -3.58594,0.28125 -2.71877,0 -5.27345,-0.44531 -7.66406,-1.33593 -2.39064,-0.89063 -4.50001,-2.13281 -6.32813,-3.72657 -1.82813,-1.64062 -3.28125,-3.60936 -4.35937,-5.90625 -1.03125,-2.34373 -1.54688,-4.96873 -1.54688,-7.875"
         id="path3113"
         style="font-size:72px;fill:#ffffff;font-family:Indie Flower;-inkscape-font-specification:Indie Flower Bold" />
      <path
         d="m 418.28906,816.40125 c 0,-1.73436 0.21094,-3.56249 0.63281,-5.48438 0.46875,-1.92185 1.17188,-3.7031 2.10938,-5.34375 0.98437,-1.6406 2.20312,-2.97653 3.65625,-4.00781 1.49999,-1.0781 3.32811,-1.61716 5.48437,-1.61719 1.12499,3e-5 2.24999,0.16409 3.375,0.49219 1.12499,0.32815 2.27342,0.7969 3.44532,1.40625 1.21873,0.6094 2.46091,1.33596 3.72656,2.17969 1.31247,0.7969 2.69529,1.68752 4.14844,2.67187 0.18747,-1.87497 0.11716,-3.79685 -0.21094,-5.76562 -0.32815,-2.0156 -0.75003,-3.98434 -1.26563,-5.90625 -0.51565,-1.92184 -1.05471,-3.72653 -1.61718,-5.41407 -0.51565,-1.73433 -0.89065,-3.2812 -1.125,-4.64062 -0.2344,-1.35933 -0.25784,-2.48433 -0.0703,-3.375 0.18748,-0.89058 0.74998,-1.45308 1.6875,-1.6875 1.2656,0.93755 2.34373,2.27349 3.23438,4.00781 0.93747,1.68755 1.73434,3.65629 2.39062,5.90625 0.65622,2.25004 1.19529,4.6641 1.61719,7.24219 0.42184,2.53128 0.77341,5.1094 1.05469,7.73437 0.28122,2.62503 0.49215,5.17971 0.63281,7.66407 0.18747,2.48439 0.37497,4.78126 0.5625,6.89062 0.18747,2.06251 0.35153,3.84376 0.49219,5.34375 0.18746,1.45313 0.44528,2.48438 0.77344,3.09375 -4e-5,0.75 -0.28129,1.21875 -0.84375,1.40625 -0.51566,0.1875 -1.05472,0.28125 -1.61719,0.28125 -0.46878,0 -0.86722,-0.16406 -1.19531,-0.49219 -0.32816,-0.37499 -0.58597,-0.79687 -0.77344,-1.26562 -0.18753,-0.46875 -0.37503,-0.98437 -0.5625,-1.54688 -0.14066,-0.60937 -0.30472,-1.14843 -0.49219,-1.61718 -0.18753,-0.51562 -0.39847,-0.9375 -0.63281,-1.26563 -0.2344,-0.32812 -0.53909,-0.49218 -0.91406,-0.49219 -0.0938,1e-5 -0.23441,0.0235 -0.42188,0.0703 -0.14065,0 -0.21096,0.0234 -0.21094,0.0703 -0.89065,1.21876 -1.94533,2.41407 -3.16406,3.58594 -1.1719,1.125 -2.4844,2.13281 -3.9375,3.02343 -1.40627,0.84375 -2.90627,1.52344 -4.5,2.03907 -1.54689,0.51562 -3.1172,0.77343 -4.71094,0.77343 -1.78126,0 -3.35157,-0.58593 -4.71093,-1.75781 -1.31251,-1.17187 -2.43751,-2.57812 -3.375,-4.21875 -0.89063,-1.64062 -1.57032,-3.37499 -2.03907,-5.20312 -0.42187,-1.82812 -0.63281,-3.42187 -0.63281,-4.78125 m 4.35938,1.26562 c 0.46874,1.68751 0.89062,3.16407 1.26562,4.42969 0.375,1.26563 0.82031,2.29688 1.33594,3.09375 0.56249,0.79688 1.21874,1.40625 1.96875,1.82812 0.74999,0.37501 1.73436,0.56251 2.95312,0.5625 1.49999,10e-6 3.09374,-0.42187 4.78125,-1.26562 1.68749,-0.89062 3.2578,-2.01562 4.71094,-3.375 1.4531,-1.35937 2.64841,-2.83593 3.58594,-4.42969 0.93747,-1.64061 1.40622,-3.21092 1.40625,-4.71094 -3e-5,-0.1406 -3e-5,-0.42185 0,-0.84375 -3e-5,-0.42185 -3e-5,-0.7031 0,-0.84375 -2.4844,-2.43747 -4.78127,-4.17185 -6.89063,-5.20312 -2.06251,-1.0781 -3.91407,-1.61716 -5.55468,-1.61719 -1.64064,-0.0469 -3.07033,0.30471 -4.28907,1.05469 -1.21875,0.75002 -2.22657,1.7344 -3.02343,2.95312 -0.79688,1.21877 -1.38282,2.57815 -1.75782,4.07813 -0.375,1.50002 -0.53906,2.9297 -0.49218,4.28906"
         id="path3115"
         style="font-size:72px;fill:#ffffff;font-family:Indie Flower;-inkscape-font-specification:Indie Flower Bold" />
    </g>
  </g>
</svg>
