<?xml version="1.0" encoding="UTF-8" standalone="no"?>
<!-- Created with Inkscape (http://www.inkscape.org/) -->

<svg
   xmlns:dc="http://purl.org/dc/elements/1.1/"
   xmlns:cc="http://creativecommons.org/ns#"
   xmlns:rdf="http://www.w3.org/1999/02/22-rdf-syntax-ns#"
   xmlns:svg="http://www.w3.org/2000/svg"
   xmlns="http://www.w3.org/2000/svg"
   xmlns:xlink="http://www.w3.org/1999/xlink"
   xmlns:sodipodi="http://sodipodi.sourceforge.net/DTD/sodipodi-0.dtd"
   xmlns:inkscape="http://www.inkscape.org/namespaces/inkscape"
   width="1024"
   height="272"
   id="svg6789"
   version="1.1"
   inkscape:version="0.48.4 r9939"
   sodipodi:docname="inspiration.svg">
  <defs
     id="defs6791">
    <linearGradient
       id="linearGradient8517">
      <stop
         style="stop-color:#ffffff;stop-opacity:1;"
         offset="0"
         id="stop8519" />
      <stop
         id="stop8525"
         offset="0.11227611"
         style="stop-color:#323356;stop-opacity:0.49803922;" />
      <stop
         style="stop-color:#0f133d;stop-opacity:0;"
         offset="1"
         id="stop8521" />
    </linearGradient>
    <linearGradient
       id="linearGradient8487">
      <stop
         style="stop-color:#ffffff;stop-opacity:0.74901962;"
         offset="0"
         id="stop8489" />
      <stop
         id="stop8495"
         offset="0.50504601"
         style="stop-color:#ffffff;stop-opacity:0;" />
      <stop
         style="stop-color:#ffffff;stop-opacity:0;"
         offset="0.86298013"
         id="stop8497" />
      <stop
         id="stop8499"
         offset="0.93620831"
         style="stop-color:#ffffff;stop-opacity:0.0877193;" />
      <stop
         style="stop-color:#ffffff;stop-opacity:0;"
         offset="1"
         id="stop8491" />
    </linearGradient>
    <linearGradient
       id="linearGradient7696">
      <stop
         style="stop-color:#07233e;stop-opacity:1;"
         offset="0"
         id="stop7698" />
      <stop
         id="stop8476"
         offset="0.63178915"
         style="stop-color:#802b2e;stop-opacity:1;" />
      <stop
         id="stop8474"
         offset="0.66293931"
         style="stop-color:#6a5d05;stop-opacity:1;" />
      <stop
         style="stop-color:#060532;stop-opacity:1;"
         offset="1"
         id="stop7700" />
    </linearGradient>
    <inkscape:path-effect
       effect="interpolate"
       id="path-effect7614"
       is_visible="true"
       trajectory="m -37.949681,-496 0,0"
       equidistant_spacing="true"
       steps="5" />
    <linearGradient
       inkscape:collect="always"
       id="linearGradient7605">
      <stop
         style="stop-color:#000000;stop-opacity:1;"
         offset="0"
         id="stop7607" />
      <stop
         style="stop-color:#000000;stop-opacity:0;"
         offset="1"
         id="stop7609" />
    </linearGradient>
    <linearGradient
       inkscape:collect="always"
       id="linearGradient7571">
      <stop
         style="stop-color:#f9f9f9;stop-opacity:0.19907407"
         offset="0"
         id="stop7573" />
      <stop
         style="stop-color:#ffffff;stop-opacity:0.68518519"
         offset="1"
         id="stop7575" />
    </linearGradient>
    <filter
       inkscape:collect="always"
       id="filter7422"
       x="-0.36175383"
       width="1.7235077"
       y="-0.40996952"
       height="1.819939">
      <feGaussianBlur
         inkscape:collect="always"
         stdDeviation="2.8967037"
         id="feGaussianBlur7424" />
    </filter>
    <linearGradient
       inkscape:collect="always"
       xlink:href="#linearGradient7571"
       id="linearGradient7577"
       x1="751.77228"
       y1="250.29756"
       x2="795.17712"
       y2="151.33447"
       gradientUnits="userSpaceOnUse" />
    <linearGradient
       inkscape:collect="always"
       xlink:href="#linearGradient7571"
       id="linearGradient7581"
       gradientUnits="userSpaceOnUse"
       x1="751.77228"
       y1="250.29756"
       x2="795.17712"
       y2="151.33447" />
    <filter
       inkscape:collect="always"
       id="filter7601">
      <feGaussianBlur
         inkscape:collect="always"
         stdDeviation="1.4394173"
         id="feGaussianBlur7603" />
    </filter>
    <linearGradient
       inkscape:collect="always"
       xlink:href="#linearGradient7605"
       id="linearGradient7611"
       x1="752.25787"
       y1="258.80249"
       x2="794.61261"
       y2="175.01367"
       gradientUnits="userSpaceOnUse" />
    <linearGradient
       inkscape:collect="always"
       xlink:href="#linearGradient7696"
       id="linearGradient7702"
       x1="531.27557"
       y1="-64.821762"
       x2="531.27557"
       y2="270.92731"
       gradientUnits="userSpaceOnUse"
       gradientTransform="matrix(0.99662162,0,0,0.80927835,3.4606582,52.744384)" />
    <filter
       inkscape:collect="always"
       id="filter7863"
       x="-0.13010751"
       width="1.260215"
       y="-0.10230843"
       height="1.2046169">
      <feGaussianBlur
         inkscape:collect="always"
         stdDeviation="11.5044"
         id="feGaussianBlur7865" />
    </filter>
    <filter
       inkscape:collect="always"
       id="filter7875">
      <feGaussianBlur
         inkscape:collect="always"
         stdDeviation="0.59450804"
         id="feGaussianBlur7877" />
    </filter>
    <filter
       inkscape:collect="always"
       id="filter8316">
      <feGaussianBlur
         inkscape:collect="always"
         stdDeviation="3.1956026"
         id="feGaussianBlur8318" />
    </filter>
    <radialGradient
       inkscape:collect="always"
       xlink:href="#linearGradient8487"
       id="radialGradient8493"
       cx="460.05075"
       cy="69.299278"
       fx="460.05075"
       fy="69.299278"
       r="70.31588"
       gradientTransform="matrix(0,1.0059163,-0.99736991,-7.5312638e-7,532.68098,-361.8182)"
       gradientUnits="userSpaceOnUse" />
    <linearGradient
       inkscape:collect="always"
       xlink:href="#linearGradient8517"
       id="linearGradient8523"
       x1="497.20837"
       y1="151.68785"
       x2="498.28787"
       y2="272"
       gradientUnits="userSpaceOnUse" />
    <linearGradient
       inkscape:collect="always"
       xlink:href="#linearGradient8517"
       id="linearGradient8529"
       gradientUnits="userSpaceOnUse"
       x1="497.20837"
       y1="151.68785"
       x2="498.28787"
       y2="272"
       gradientTransform="matrix(1.0563107,0,0,1,-60.077765,8)" />
    <linearGradient
       inkscape:collect="always"
       xlink:href="#linearGradient8517"
       id="linearGradient8533"
       gradientUnits="userSpaceOnUse"
       gradientTransform="matrix(1.1150176,0,0,1,-78.314914,24)"
       x1="497.20837"
       y1="151.68785"
       x2="498.28787"
       y2="272" />
    <linearGradient
       inkscape:collect="always"
       xlink:href="#linearGradient8517"
       id="linearGradient8537"
       gradientUnits="userSpaceOnUse"
       gradientTransform="matrix(1.1150176,0,0,1,-38.314914,42)"
       x1="497.20837"
       y1="151.68785"
       x2="498.28787"
       y2="272" />
    <linearGradient
       inkscape:collect="always"
       xlink:href="#linearGradient8517"
       id="linearGradient8541"
       gradientUnits="userSpaceOnUse"
       gradientTransform="matrix(1.1150176,0,0,1,-64.314914,60)"
       x1="497.20837"
       y1="151.68785"
       x2="498.28787"
       y2="272" />
    <linearGradient
       inkscape:collect="always"
       xlink:href="#linearGradient8517"
       id="linearGradient8545"
       gradientUnits="userSpaceOnUse"
       gradientTransform="matrix(1.1150176,0,0,1,-24.314914,82)"
       x1="497.20837"
       y1="151.68785"
       x2="498.28787"
       y2="272" />
    <radialGradient
       inkscape:collect="always"
       xlink:href="#linearGradient8487"
       id="radialGradient8551"
       gradientUnits="userSpaceOnUse"
       gradientTransform="matrix(0,1.0059163,-0.99736991,-7.5312638e-7,532.68098,-361.8182)"
       cx="460.05075"
       cy="69.299278"
       fx="460.05075"
       fy="69.299278"
       r="70.31588" />
    <radialGradient
       inkscape:collect="always"
       xlink:href="#linearGradient8487"
       id="radialGradient8554"
       gradientUnits="userSpaceOnUse"
       gradientTransform="matrix(0,1.0059163,-0.99736991,-7.5312638e-7,532.68098,-361.8182)"
       cx="460.05075"
       cy="69.299278"
       fx="460.05075"
       fy="69.299278"
       r="70.31588" />
  </defs>
  <sodipodi:namedview
     id="base"
     pagecolor="#ffffff"
     bordercolor="#666666"
     borderopacity="1.0"
     inkscape:pageopacity="0.0"
     inkscape:pageshadow="2"
     inkscape:zoom="0.81454783"
     inkscape:cx="531.1497"
     inkscape:cy="40.731098"
     inkscape:current-layer="layer6"
     inkscape:document-units="px"
     showgrid="false"
     showguides="true"
     inkscape:guide-bbox="true"
     inkscape:window-width="1518"
     inkscape:window-height="1060"
     inkscape:window-x="401"
     inkscape:window-y="19"
     inkscape:window-maximized="0"
     borderlayer="true">
    <sodipodi:guide
       orientation="0,1"
       position="498.28786,0"
       id="guide8227" />
  </sodipodi:namedview>
  <metadata
     id="metadata6794">
    <rdf:RDF>
      <cc:Work
         rdf:about="">
        <dc:format>image/svg+xml</dc:format>
        <dc:type
           rdf:resource="http://purl.org/dc/dcmitype/StillImage" />
        <dc:title></dc:title>
      </cc:Work>
    </rdf:RDF>
  </metadata>
  <g
     inkscape:groupmode="layer"
     id="layer2"
     inkscape:label="sky"
     style="display:inline">
    <rect
       style="fill:url(#linearGradient7702);fill-opacity:1;fill-rule:evenodd;stroke:none"
       id="rect7683"
       width="1024.3547"
       height="272.58255"
       x="1.860073e-08"
       y="0.28553611"
       mask="none" />
    <path
       transform="matrix(-2.4567901,0,0,-2.4567901,1662.7386,425.47592)"
       sodipodi:end="3.1415927"
       sodipodi:start="0"
       d="m 534.74795,100.98483 a 70.31588,70.31588 0 1 1 -140.63176,0 l 70.31588,0 z"
       sodipodi:ry="70.31588"
       sodipodi:rx="70.31588"
       sodipodi:cy="100.98483"
       sodipodi:cx="464.43207"
       id="path8549"
       style="fill:url(#radialGradient8554);fill-opacity:1;fill-rule:evenodd;stroke:none"
       sodipodi:type="arc" />
  </g>
  <g
     inkscape:groupmode="layer"
     id="layer5"
     inkscape:label="sun" />
  <g
     inkscape:groupmode="layer"
     id="layer6"
     inkscape:label="water">
    <path
       style="fill:url(#linearGradient8523);fill-opacity:1;fill-rule:evenodd;stroke:none"
       d="m 1.3810052,178.26459 c 0,0 47.3831368,11.9621 30.7937058,-13.98301 -16.589431,-25.94511 33.249056,13.98301 33.249056,13.98301 0,0 37.561753,-0.14969 29.566031,-13.98301 -7.995723,-13.83332 34.476732,13.98301 34.476732,13.98301 0,0 38.78941,0.74909 32.02138,-13.98301 -6.76803,-14.7321 32.02138,13.98301 32.02138,13.98301 0,0 38.43843,2.35193 29.56603,-16.43836 -8.8724,-18.79029 34.47673,16.43836 34.47673,16.43836 0,0 37.09467,0 32.02138,-17.18745 -5.07328,-17.18745 32.02139,17.18745 32.02139,17.18745 0,0 44.05288,-1.65696 34.47673,-19.6428 -9.57616,-17.98584 29.56603,19.6428 29.56603,19.6428 0,0 43.83411,-5.13431 33.24905,-20.87047 -10.58505,-15.73617 30.79371,20.87047 30.79371,20.87047 0,0 37.46775,-5.90578 30.79371,-22.09815 -6.67405,-16.19236 33.24905,22.09815 33.24905,22.09815 0,0 37.91449,-4.9107 32.02138,-19.6428 -5.8931,-14.7321 32.02138,19.6428 32.02138,19.6428 0,0 38.32234,-3.68302 32.02139,-17.18745 -6.30096,-13.50442 32.02138,17.18745 32.02138,17.18745 0,0 37.91448,-4.9107 32.02138,-19.6428 -5.89311,-14.7321 32.02138,19.6428 32.02138,19.6428 0,0 34.4405,-5.11488 33.24906,-18.41512 -1.19145,-13.30025 30.7937,18.41512 30.7937,18.41512 0,0 36.89585,-3.68302 32.02138,-18.41512 -4.87447,-14.7321 32.02138,18.41512 32.02138,18.41512 0,0 41.59754,-4.11231 34.47673,-19.6428 -7.1208,-15.53049 29.56604,19.6428 29.56604,19.6428 0,0 41.37876,-2.67896 33.24905,-20.87047 -8.1297,-18.19152 30.79371,20.87047 30.79371,20.87047 0,0 43.23316,-0.58525 35.7044,-17.18745 -7.52874,-16.6022 28.33836,17.18745 28.33836,17.18745 l 0,97.73541 -1024.6841948,0 z"
       id="rect8504"
       inkscape:connector-curvature="0"
       sodipodi:nodetypes="czczczczczczczczczczczczczczczczcccc" />
    <path
       sodipodi:nodetypes="czczczczczczczczczczczczczczczczcccc"
       inkscape:connector-curvature="0"
       id="path8527"
       d="m -58.618995,186.26459 c 0,0 50.0513165,11.9621 32.527723,-13.98301 -17.523595,-25.94511 35.1213346,13.98301 35.1213346,13.98301 0,0 39.6768824,-0.14969 31.2309164,-13.98301 -8.445969,-13.83332 36.418145,13.98301 36.418145,13.98301 0,0 40.973666,0.74909 33.824526,-13.98301 -7.14914,-14.7321 33.82453,13.98301 33.82453,13.98301 0,0 40.60292,2.35193 31.23091,-16.43836 -9.37201,-18.79029 36.41814,16.43836 36.41814,16.43836 0,0 39.1835,0 33.82453,-17.18745 -5.35896,-17.18745 33.82454,17.18745 33.82454,17.18745 0,0 46.53353,-1.65696 36.41814,-19.6428 -10.1154,-17.98584 31.23091,19.6428 31.23091,19.6428 0,0 46.30244,-5.13431 35.12132,-20.87047 -11.18109,-15.73617 32.52774,20.87047 32.52774,20.87047 0,0 39.57758,-5.90578 32.52773,-22.09815 -7.04988,-16.19236 35.12132,22.09815 35.12132,22.09815 0,0 40.04948,-4.9107 33.82453,-19.6428 -6.22494,-14.7321 33.82453,19.6428 33.82453,19.6428 0,0 40.4803,-3.68302 33.82453,-17.18745 -6.65577,-13.50442 33.82454,17.18745 33.82454,17.18745 0,0 40.04947,-4.9107 33.82452,-19.6428 -6.22495,-14.7321 33.82452,19.6428 33.82452,19.6428 0,0 36.37988,-5.11488 35.12135,-18.41512 -1.25854,-13.30025 32.52772,18.41512 32.52772,18.41512 0,0 38.97348,-3.68302 33.82452,-18.41512 -5.14896,-14.7321 33.82453,18.41512 33.82453,18.41512 0,0 43.93993,-4.11231 36.41815,-19.6428 -7.52179,-15.53049 31.23091,19.6428 31.23091,19.6428 0,0 43.70883,-2.67896 35.12134,-20.87047 -8.5875,-18.19152 32.52773,20.87047 32.52773,20.87047 0,0 45.66762,-0.58525 37.71493,-17.18745 -7.95268,-16.6022 29.93399,17.18745 29.93399,17.18745 l 0,97.73541 -1082.384795,0 z"
       style="fill:url(#linearGradient8529);fill-opacity:1;fill-rule:evenodd;stroke:none" />
    <path
       style="fill:url(#linearGradient8533);fill-opacity:1;fill-rule:evenodd;stroke:none"
       d="m -76.775069,202.26459 c 0,0 52.833035,11.9621 34.335527,-13.98301 -18.49751,-25.94511 37.0732857,13.98301 37.0732857,13.98301 0,0 41.8820233,-0.14969 32.9666473,-13.98301 -8.915373,-13.83332 38.442165,13.98301 38.442165,13.98301 0,0 43.250874,0.74909 35.704404,-13.98301 -7.54647,-14.7321 35.70441,13.98301 35.70441,13.98301 0,0 42.85952,2.35193 32.96664,-16.43836 -9.89288,-18.79029 38.44217,16.43836 38.44217,16.43836 0,0 41.36121,0 35.7044,-17.18745 -5.65679,-17.18745 35.70442,17.18745 35.70442,17.18745 0,0 49.11974,-1.65696 38.44216,-19.6428 -10.67758,-17.98584 32.96665,19.6428 32.96665,19.6428 0,0 48.8758,-5.13431 37.07327,-20.87047 -11.80251,-15.73617 34.33554,20.87047 34.33554,20.87047 0,0 41.7772,-5.90578 34.33554,-22.09815 -7.4417,-16.19236 37.07327,22.09815 37.07327,22.09815 0,0 42.27532,-4.9107 35.7044,-19.6428 -6.5709,-14.7321 35.70441,19.6428 35.70441,19.6428 0,0 42.73009,-3.68302 35.70441,-17.18745 -7.02568,-13.50442 35.70442,17.18745 35.70442,17.18745 0,0 42.27531,-4.9107 35.70439,-19.6428 -6.57091,-14.7321 35.7044,19.6428 35.7044,19.6428 0,0 38.40178,-5.11488 37.0733,-18.41512 -1.32848,-13.30025 34.33553,18.41512 34.33553,18.41512 0,0 41.13952,-3.68302 35.70439,-18.41512 -5.43512,-14.7321 35.70441,18.41512 35.70441,18.41512 0,0 46.382,-4.11231 38.44218,-19.6428 -7.93984,-15.53049 32.96664,19.6428 32.96664,19.6428 0,0 46.13805,-2.67896 37.07329,-20.87047 -9.06477,-18.19152 34.3356,20.87047 34.3356,20.87047 0,0 48.2056,-0.58525 39.8109,-17.18745 -8.3946,-16.6022 31.5977,17.18745 31.5977,17.18745 l 0,97.73541 -1142.540869,0 z"
       id="path8531"
       inkscape:connector-curvature="0"
       sodipodi:nodetypes="czczczczczczczczczczczczczczczczcccc" />
    <path
       sodipodi:nodetypes="czczczczczczczczczczczczczczczczcccc"
       inkscape:connector-curvature="0"
       id="path8535"
       d="m -36.775069,220.26459 c 0,0 52.833035,11.9621 34.335527,-13.98301 -18.49751,-25.94511 37.073286,13.98301 37.073286,13.98301 0,0 41.882023,-0.14969 32.966647,-13.98301 -8.915373,-13.83332 38.442169,13.98301 38.442169,13.98301 0,0 43.25087,0.74909 35.7044,-13.98301 -7.54647,-14.7321 35.70441,13.98301 35.70441,13.98301 0,0 42.85952,2.35193 32.96664,-16.43836 -9.89288,-18.79029 38.44217,16.43836 38.44217,16.43836 0,0 41.36121,0 35.7044,-17.18745 -5.65679,-17.18745 35.70442,17.18745 35.70442,17.18745 0,0 49.11974,-1.65696 38.44216,-19.6428 -10.67758,-17.98584 32.96665,19.6428 32.96665,19.6428 0,0 48.8758,-5.13431 37.07327,-20.87047 -11.80251,-15.73617 34.33554,20.87047 34.33554,20.87047 0,0 41.7772,-5.90578 34.33554,-22.09815 -7.4417,-16.19236 37.07327,22.09815 37.07327,22.09815 0,0 42.27532,-4.9107 35.7044,-19.6428 -6.5709,-14.7321 35.70441,19.6428 35.70441,19.6428 0,0 42.73009,-3.68302 35.70441,-17.18745 -7.02568,-13.50442 35.70442,17.18745 35.70442,17.18745 0,0 42.27531,-4.9107 35.70439,-19.6428 -6.57091,-14.7321 35.7044,19.6428 35.7044,19.6428 0,0 38.40178,-5.11488 37.0733,-18.41512 -1.32848,-13.30025 34.33553,18.41512 34.33553,18.41512 0,0 41.13952,-3.68302 35.70439,-18.41512 -5.43512,-14.7321 35.70441,18.41512 35.70441,18.41512 0,0 46.382,-4.11231 38.44218,-19.6428 -7.93984,-15.53049 32.96664,19.6428 32.96664,19.6428 0,0 46.13809,-2.67896 37.07329,-20.87047 -9.06477,-18.19152 34.3356,20.87047 34.3356,20.87047 0,0 48.2056,-0.58525 39.8109,-17.18745 -8.3946,-16.6022 31.5977,17.18745 31.5977,17.18745 l 0,97.73541 -1142.540869,0 z"
       style="fill:url(#linearGradient8537);fill-opacity:1;fill-rule:evenodd;stroke:none" />
    <path
       style="fill:url(#linearGradient8541);fill-opacity:1;fill-rule:evenodd;stroke:none"
       d="m -62.775069,238.26459 c 0,0 52.833035,11.9621 34.335527,-13.98301 -18.49751,-25.94511 37.073286,13.98301 37.073286,13.98301 0,0 41.882023,-0.14969 32.966647,-13.98301 -8.915373,-13.83332 38.442169,13.98301 38.442169,13.98301 0,0 43.25087,0.74909 35.7044,-13.98301 -7.54647,-14.7321 35.70441,13.98301 35.70441,13.98301 0,0 42.85952,2.35193 32.96664,-16.43836 -9.89288,-18.79029 38.44217,16.43836 38.44217,16.43836 0,0 41.36121,0 35.7044,-17.18745 -5.65679,-17.18745 35.70442,17.18745 35.70442,17.18745 0,0 49.11974,-1.65696 38.44216,-19.6428 -10.67758,-17.98584 32.96665,19.6428 32.96665,19.6428 0,0 48.8758,-5.13431 37.07327,-20.87047 -11.80251,-15.73617 34.33554,20.87047 34.33554,20.87047 0,0 41.7772,-5.90578 34.33554,-22.09815 -7.4417,-16.19236 37.07327,22.09815 37.07327,22.09815 0,0 42.27532,-4.9107 35.7044,-19.6428 -6.5709,-14.7321 35.70441,19.6428 35.70441,19.6428 0,0 42.73009,-3.68302 35.70441,-17.18745 -7.02568,-13.50442 35.70442,17.18745 35.70442,17.18745 0,0 42.27531,-4.9107 35.70439,-19.6428 -6.57091,-14.7321 35.7044,19.6428 35.7044,19.6428 0,0 38.40178,-5.11488 37.0733,-18.41512 -1.32848,-13.30025 34.33553,18.41512 34.33553,18.41512 0,0 41.13952,-3.68302 35.70439,-18.41512 -5.43512,-14.7321 35.70441,18.41512 35.70441,18.41512 0,0 46.382,-4.11231 38.44218,-19.6428 -7.93984,-15.53049 32.96664,19.6428 32.96664,19.6428 0,0 46.13809,-2.67896 37.07329,-20.87047 -9.06477,-18.19152 34.3356,20.87047 34.3356,20.87047 0,0 48.2056,-0.58525 39.8109,-17.18745 -8.3946,-16.6022 31.5977,17.18745 31.5977,17.18745 l 0,97.73541 -1142.540869,0 z"
       id="path8539"
       inkscape:connector-curvature="0"
       sodipodi:nodetypes="czczczczczczczczczczczczczczczczcccc" />
    <path
       sodipodi:nodetypes="czczczczczczczczczczczczczczczczcccc"
       inkscape:connector-curvature="0"
       id="path8543"
       d="m -22.775069,260.26459 c 0,0 52.833035,11.9621 34.335527,-13.98301 -18.49751,-25.94511 37.073286,13.98301 37.073286,13.98301 0,0 41.882023,-0.14969 32.966647,-13.98301 -8.915373,-13.83332 38.442169,13.98301 38.442169,13.98301 0,0 43.25087,0.74909 35.7044,-13.98301 -7.54647,-14.7321 35.70441,13.98301 35.70441,13.98301 0,0 42.85952,2.35193 32.96664,-16.43836 -9.89288,-18.79029 38.44217,16.43836 38.44217,16.43836 0,0 41.36121,0 35.7044,-17.18745 -5.65679,-17.18745 35.70442,17.18745 35.70442,17.18745 0,0 49.11974,-1.65696 38.44216,-19.6428 -10.67758,-17.98584 32.96665,19.6428 32.96665,19.6428 0,0 48.8758,-5.13431 37.07327,-20.87047 -11.80251,-15.73617 34.33554,20.87047 34.33554,20.87047 0,0 41.7772,-5.90578 34.33554,-22.09815 -7.4417,-16.19236 37.07327,22.09815 37.07327,22.09815 0,0 42.27532,-4.9107 35.7044,-19.6428 -6.5709,-14.7321 35.70441,19.6428 35.70441,19.6428 0,0 42.73009,-3.68302 35.70441,-17.18745 -7.02568,-13.50442 35.70442,17.18745 35.70442,17.18745 0,0 42.27531,-4.9107 35.70439,-19.6428 -6.57091,-14.7321 35.7044,19.6428 35.7044,19.6428 0,0 38.40178,-5.11488 37.0733,-18.41512 -1.32848,-13.30025 34.33553,18.41512 34.33553,18.41512 0,0 41.13952,-3.68302 35.70439,-18.41512 -5.43512,-14.7321 35.70441,18.41512 35.70441,18.41512 0,0 46.382,-4.11231 38.44218,-19.6428 -7.93984,-15.53049 32.96664,19.6428 32.96664,19.6428 0,0 46.13809,-2.67896 37.07329,-20.87047 -9.0648,-18.19152 34.3356,20.87047 34.3356,20.87047 0,0 48.2056,-0.58525 39.8109,-17.18745 -8.3946,-16.6022 31.5977,17.18745 31.5977,17.18745 l 0,97.73541 -1142.540869,0 z"
       style="fill:url(#linearGradient8545);fill-opacity:1;fill-rule:evenodd;stroke:none" />
    <rect
       style="fill:#ffffff;fill-opacity:1;fill-rule:evenodd;stroke:none"
       id="rect8564"
       width="1264.5052"
       height="185.37892"
       x="-93.303299"
       y="272" />
    <rect
       style="fill:#ffffff;fill-opacity:1;fill-rule:evenodd;stroke:none"
       id="rect8566"
       width="92.075623"
       height="423.54788"
       x="-90.847946"
       y="-38.601772" />
    <rect
       style="fill:#ffffff;fill-opacity:1;fill-rule:evenodd;stroke:none"
       id="rect8568"
       width="103.12467"
       height="305.69107"
       x="1025.1086"
       y="-33.691071" />
  </g>
</svg>
