<?xml version="1.0" encoding="UTF-8" standalone="no"?>
<!-- Created with Inkscape (http://www.inkscape.org/) -->

<svg
   xmlns:dc="http://purl.org/dc/elements/1.1/"
   xmlns:cc="http://creativecommons.org/ns#"
   xmlns:rdf="http://www.w3.org/1999/02/22-rdf-syntax-ns#"
   xmlns:svg="http://www.w3.org/2000/svg"
   xmlns="http://www.w3.org/2000/svg"
   xmlns:xlink="http://www.w3.org/1999/xlink"
   xmlns:sodipodi="http://sodipodi.sourceforge.net/DTD/sodipodi-0.dtd"
   xmlns:inkscape="http://www.inkscape.org/namespaces/inkscape"
   width="1024"
   height="272"
   id="svg6789"
   version="1.1"
   inkscape:version="0.48.4 r9939"
   sodipodi:docname="home.svg">
  <defs
     id="defs6791">
    <linearGradient
       id="linearGradient7696">
      <stop
         style="stop-color:#060534;stop-opacity:1;"
         offset="0"
         id="stop7698" />
      <stop
         style="stop-color:#3a363a;stop-opacity:1;"
         offset="1"
         id="stop7700" />
    </linearGradient>
    <inkscape:path-effect
       effect="interpolate"
       id="path-effect7614"
       is_visible="true"
       trajectory="m -37.949681,0 0,0"
       equidistant_spacing="true"
       steps="5" />
    <linearGradient
       inkscape:collect="always"
       id="linearGradient7605">
      <stop
         style="stop-color:#000000;stop-opacity:1;"
         offset="0"
         id="stop7607" />
      <stop
         style="stop-color:#000000;stop-opacity:0;"
         offset="1"
         id="stop7609" />
    </linearGradient>
    <linearGradient
       inkscape:collect="always"
       id="linearGradient7571">
      <stop
         style="stop-color:#f9f9f9;stop-opacity:0.19907407"
         offset="0"
         id="stop7573" />
      <stop
         style="stop-color:#ffffff;stop-opacity:0.68518519"
         offset="1"
         id="stop7575" />
    </linearGradient>
    <filter
       inkscape:collect="always"
       id="filter7422"
       x="-0.36175383"
       width="1.7235077"
       y="-0.40996952"
       height="1.819939">
      <feGaussianBlur
         inkscape:collect="always"
         stdDeviation="2.8967037"
         id="feGaussianBlur7424" />
    </filter>
    <linearGradient
       inkscape:collect="always"
       xlink:href="#linearGradient7571"
       id="linearGradient7577"
       x1="751.77228"
       y1="250.29756"
       x2="795.17712"
       y2="151.33447"
       gradientUnits="userSpaceOnUse" />
    <linearGradient
       inkscape:collect="always"
       xlink:href="#linearGradient7571"
       id="linearGradient7581"
       gradientUnits="userSpaceOnUse"
       x1="751.77228"
       y1="250.29756"
       x2="795.17712"
       y2="151.33447" />
    <filter
       inkscape:collect="always"
       id="filter7601">
      <feGaussianBlur
         inkscape:collect="always"
         stdDeviation="1.4394173"
         id="feGaussianBlur7603" />
    </filter>
    <linearGradient
       inkscape:collect="always"
       xlink:href="#linearGradient7605"
       id="linearGradient7611"
       x1="752.25787"
       y1="258.80249"
       x2="794.61261"
       y2="175.01367"
       gradientUnits="userSpaceOnUse" />
    <linearGradient
       inkscape:collect="always"
       xlink:href="#linearGradient7696"
       id="linearGradient7702"
       x1="531.27557"
       y1="-64.821762"
       x2="536.48413"
       y2="280.68097"
       gradientUnits="userSpaceOnUse" />
    <filter
       inkscape:collect="always"
       id="filter7863"
       x="-0.13010751"
       width="1.260215"
       y="-0.10230843"
       height="1.2046169">
      <feGaussianBlur
         inkscape:collect="always"
         stdDeviation="11.5044"
         id="feGaussianBlur7865" />
    </filter>
    <filter
       inkscape:collect="always"
       id="filter7875">
      <feGaussianBlur
         inkscape:collect="always"
         stdDeviation="0.59450804"
         id="feGaussianBlur7877" />
    </filter>
  </defs>
  <sodipodi:namedview
     id="base"
     pagecolor="#ffffff"
     bordercolor="#666666"
     borderopacity="1.0"
     inkscape:pageopacity="0.0"
     inkscape:pageshadow="2"
     inkscape:zoom="1.1519446"
     inkscape:cx="1148.2066"
     inkscape:cy="40.731098"
     inkscape:current-layer="layer1"
     inkscape:document-units="px"
     showgrid="false"
     showguides="true"
     inkscape:guide-bbox="true"
     inkscape:window-width="1518"
     inkscape:window-height="1060"
     inkscape:window-x="401"
     inkscape:window-y="19"
     inkscape:window-maximized="0">
    <sodipodi:guide
       orientation="0,1"
       position="769.13422,336.82176"
       id="guide6816" />
  </sodipodi:namedview>
  <metadata
     id="metadata6794">
    <rdf:RDF>
      <cc:Work
         rdf:about="">
        <dc:format>image/svg+xml</dc:format>
        <dc:type
           rdf:resource="http://purl.org/dc/dcmitype/StillImage" />
        <dc:title></dc:title>
      </cc:Work>
    </rdf:RDF>
  </metadata>
  <g
     inkscape:groupmode="layer"
     id="layer2"
     inkscape:label="sky">
    <rect
       style="fill:url(#linearGradient7702);fill-opacity:1;fill-rule:evenodd;stroke:none"
       id="rect7683"
       width="1027.8271"
       height="336.82175"
       x="-3.4723892"
       y="-64.821762" />
  </g>
  <g
     id="layer1"
     inkscape:label="foreground"
     inkscape:groupmode="layer"
     transform="translate(0,-496)">
    <path
       style="fill:#000000;fill-opacity:1;fill-rule:evenodd;stroke:none"
       d="m -39.685332,493.7321 c -0.108048,90.07468 -4.746817,277.6035 -4.746817,277.6035 0,0 730.717359,0.13565 1072.536449,-0.9606 -0.7689,-91.4375 -2.3066,-274.3125 -2.3066,-274.3125 0,0 -25.1448,12.50021 -34.27242,22.90625 -12.29656,20.08431 -18.49824,42.80999 -25.69626,64.875 -6.37444,14.97997 -12.1266,30.63957 -22.93498,43.3125 -9.69666,10.23468 -23.12349,16.15415 -36.44907,20.75 -42.46576,13.73757 -84.82584,27.89484 -128.06583,39.25793 -7.38671,1.88877 -14.73744,3.9802 -22.24063,5.39509 -17.84319,2.90713 -36.01531,0.48763 -53.67384,-2.44291 -10.87941,-1.86869 -21.81981,-3.85441 -32.2418,-7.46378 -10.29864,-4.46158 -17.35326,-13.34117 -24.04901,-21.73234 -10.32534,-12.88811 -19.12288,-26.81073 -28.54278,-40.29949 -1.38971,-2.19848 -3.49218,-3.97305 -6.15716,-4.527 -5.17527,-1.38915 -10.42746,0.44596 -15.22559,2.23088 -7.83958,2.70993 -16.39893,5.39422 -24.7505,3.30715 -8.53668,-2.36284 -14.79728,-9.51012 -17.69051,-17.36751 -3.32269,-7.46168 -6.03426,-15.78071 -12.81814,-21.09146 -3.78497,-2.92187 -10.13828,-1.72976 -12.21737,2.58306 -1.85347,3.66266 -2.06565,7.8353 -3.09289,11.74413 -2.18759,9.86358 -4.75705,19.65069 -7.5367,29.375 -5.6573,18.88973 -12.85913,37.55878 -23.77645,54.26625 -6.92782,10.16186 -16.88383,18.02706 -27.5516,24.35389 -13.45437,8.59566 -27.12113,16.88557 -40.88065,25.0189 -14.98591,8.31879 -31.29452,15.0187 -48.56287,17.16851 -7.01818,0.62033 -14.30796,-1.26915 -19.73466,-5.67711 -6.14639,-4.49558 -11.57842,-10.43423 -19.28874,-12.43616 -3.92329,-1.15264 -8.09456,-1.10134 -12.09717,-1.72891 -4.43498,-1.81681 -6.05291,-6.52412 -8.38281,-10.18412 -5.06157,-6.5284 -13.32544,-9.41048 -20.7649,-12.64843 -8.34857,-3.34366 -17.82636,-5.89392 -26.78212,-3.30135 -12.12151,3.28098 -21.85982,11.37625 -31.43432,18.85805 -9.72512,7.58962 -19.13743,16.14922 -31.05681,20.44122 -11.46,3.53074 -24.04386,0.71892 -34.2819,-4.84133 -19.36732,-10.11995 -37.66005,-22.1915 -54.10078,-36.3319 C 107.22508,689.40191 95.633862,678.26085 84.976585,666.34375 73.640603,653.53779 63.835375,639.43019 56.477939,624.15051 48.557141,608.08292 43.563859,590.85166 39.805006,573.48823 34.652085,551.67419 30.508603,529.36608 20.826802,508.86912 12.422059,492.47429 -2.4024977,492.86745 -2.4024977,492.86745 z"
       id="rect7438"
       inkscape:connector-curvature="0"
       inkscape:path-effect="#path-effect7614"
       inkscape:original-d="m -39.685332,493.7321 c -0.108048,90.07468 -4.746817,277.6035 -4.746817,277.6035 0,0 730.717359,0.13565 1072.536449,-0.9606 -0.7689,-91.4375 -2.3066,-274.3125 -2.3066,-274.3125 0,0 -25.1448,12.50021 -34.27242,22.90625 -12.29656,20.08431 -18.49824,42.80999 -25.69626,64.875 -6.37444,14.97997 -12.1266,30.63957 -22.93498,43.3125 -9.69666,10.23468 -23.12349,16.15415 -36.44907,20.75 -42.46576,13.73757 -84.82584,27.89484 -128.06583,39.25793 -7.38671,1.88877 -14.73744,3.9802 -22.24063,5.39509 -17.84319,2.90713 -36.01531,0.48763 -53.67384,-2.44291 -10.87941,-1.86869 -21.81981,-3.85441 -32.2418,-7.46378 -10.29864,-4.46158 -17.35326,-13.34117 -24.04901,-21.73234 -10.32534,-12.88811 -19.12288,-26.81073 -28.54278,-40.29949 -1.38971,-2.19848 -3.49218,-3.97305 -6.15716,-4.527 -5.17527,-1.38915 -10.42746,0.44596 -15.22559,2.23088 -7.83958,2.70993 -16.39893,5.39422 -24.7505,3.30715 -8.53668,-2.36284 -14.79728,-9.51012 -17.69051,-17.36751 -3.32269,-7.46168 -6.03426,-15.78071 -12.81814,-21.09146 -3.78497,-2.92187 -10.13828,-1.72976 -12.21737,2.58306 -1.85347,3.66266 -2.06565,7.8353 -3.09289,11.74413 -2.18759,9.86358 -4.75705,19.65069 -7.5367,29.375 -5.6573,18.88973 -12.85913,37.55878 -23.77645,54.26625 -6.92782,10.16186 -16.88383,18.02706 -27.5516,24.35389 -13.45437,8.59566 -27.12113,16.88557 -40.88065,25.0189 -14.98591,8.31879 -31.29452,15.0187 -48.56287,17.16851 -7.01818,0.62033 -14.30796,-1.26915 -19.73466,-5.67711 -6.14639,-4.49558 -11.57842,-10.43423 -19.28874,-12.43616 -3.92329,-1.15264 -8.09456,-1.10134 -12.09717,-1.72891 -4.43498,-1.81681 -6.05291,-6.52412 -8.38281,-10.18412 -5.06157,-6.5284 -13.32544,-9.41048 -20.7649,-12.64843 -8.34857,-3.34366 -17.82636,-5.89392 -26.78212,-3.30135 -12.12151,3.28098 -21.85982,11.37625 -31.43432,18.85805 -9.72512,7.58962 -19.13743,16.14922 -31.05681,20.44122 -11.46,3.53074 -24.04386,0.71892 -34.2819,-4.84133 -19.36732,-10.11995 -37.66005,-22.1915 -54.10078,-36.3319 C 107.22508,689.40191 95.633862,678.26085 84.976585,666.34375 73.640603,653.53779 63.835375,639.43019 56.477939,624.15051 48.557141,608.08292 43.563859,590.85166 39.805006,573.48823 34.652085,551.67419 30.508603,529.36608 20.826802,508.86912 12.422059,492.47429 -2.4024977,492.86745 -2.4024977,492.86745 z"
       sodipodi:nodetypes="cccccccccccccccccccccccccccccccccccccccccc" />
    <path
       style="fill:#000000;fill-opacity:1;fill-rule:evenodd;stroke:none"
       d="m 817.4375,137.34375 0,0.21875 -90.5,0 0,67.75 92.5,0 35,-28.25 0,-38.875 z"
       transform="translate(0,496)"
       id="rect6797"
       inkscape:connector-curvature="0"
       sodipodi:nodetypes="cccccccc" />
    <g
       id="g6810"
       transform="translate(10,8)">
      <rect
         y="640.38971"
         x="767.39807"
         height="12.153362"
         width="14.757656"
         id="rect6802"
         style="fill:#f9f9f9;fill-opacity:1;fill-rule:evenodd;stroke:none" />
      <rect
         style="fill:#f9f9f9;fill-opacity:1;fill-rule:evenodd;stroke:none"
         id="rect6804"
         width="14.757656"
         height="12.153362"
         x="784.1557"
         y="640.38971" />
      <rect
         y="654.54309"
         x="784.1557"
         height="12.153362"
         width="14.757656"
         id="rect6806"
         style="fill:#f9f9f9;fill-opacity:1;fill-rule:evenodd;stroke:none" />
      <rect
         style="fill:#f9f9f9;fill-opacity:1;fill-rule:evenodd;stroke:none"
         id="rect6808"
         width="14.757656"
         height="12.153362"
         x="767.39807"
         y="654.54309" />
    </g>
    <path
       style="fill:url(#linearGradient7577);fill-opacity:1;fill-rule:evenodd;stroke:none;filter:url(#filter7422)"
       d="m 779.74674,150.91315 -86.81727,101.49134 108.33408,-2.42733 10.32078,-70.73695 -0.41678,-28.46591 c 0,0 -26.61297,-0.58982 -31.42081,0.13885 z"
       transform="translate(0,496)"
       id="rect6820"
       inkscape:connector-curvature="0"
       sodipodi:nodetypes="cccccc" />
    <path
       sodipodi:nodetypes="ccccc"
       inkscape:connector-curvature="0"
       id="path7579"
       transform="matrix(1,0,0,0.42256706,0,645.76103)"
       d="m 751.09953,155.02183 -58.17006,97.38266 108.33408,-2.42733 2.09112,-97.14852 z"
       style="fill:url(#linearGradient7581);fill-opacity:1;fill-rule:evenodd;stroke:none;filter:url(#filter7422)" />
    <path
       style="fill:url(#linearGradient7611);fill-opacity:1;fill-rule:evenodd;stroke:none;filter:url(#filter7601)"
       d="m 792.0134,181.61937 -14.60157,32.66522 c 0,0 -8.24267,12.08046 -12.59933,18.80916 l -42.32326,0.90665 -2.54951,2.53258 42.90402,-0.31423 -18.53904,25.97096 9.07587,-1.26785 13.18192,-24.76561 37.73498,-0.0347 -0.24959,-2.96662 -35.51664,-0.12368 11.11049,-19.09375 z"
       transform="translate(0,496)"
       id="rect7583"
       inkscape:connector-curvature="0"
       sodipodi:nodetypes="cccccccccccccc" />
    <path
       style="fill:#000000;fill-opacity:1;fill-rule:evenodd;stroke:none"
       d="m 779.86847,118.71185 -72.71222,24.85065 130.21875,0.15625 29.15625,-4.84375 -41.625,-16.8125 z"
       transform="translate(0,496)"
       id="rect7616"
       inkscape:connector-curvature="0"
       sodipodi:nodetypes="cccccc" />
  </g>
  <g
     inkscape:groupmode="layer"
     id="layer3"
     inkscape:label="Logo">
    <g
       id="g7895"
       transform="translate(-100,-4)">
      <g
         style="opacity:0.93518521;filter:url(#filter7863)"
         transform="matrix(0.9052727,0,0,0.9052727,22.212745,-544.39002)"
         id="g7827"
         inkscape:label="Layer 1">
        <g
           transform="matrix(0.6149827,0,0,0.6149827,9.970665,245.73811)"
           id="g7829">
          <g
             transform="matrix(0.94977445,0,0,1.2358035,0,-138.78463)"
             style="font-size:352.0531311px;font-style:normal;font-variant:normal;font-weight:normal;font-stretch:normal;text-align:start;line-height:125%;letter-spacing:0px;word-spacing:0px;writing-mode:lr-tb;text-anchor:start;fill:#000000;fill-opacity:1;stroke:none;font-family:Sans;-inkscape-font-specification:Sans"
             id="g7831">
            <path
               style="fill:#ffffff"
               inkscape:connector-curvature="0"
               id="path7833"
               d="m 199.76702,609.71875 c -7.36951,44.11375 -14.69955,88.23421 -22.09376,132.34375 43.20482,0.27848 86.43632,-0.55284 129.62504,0.40625 3.7697,0.43659 7.88517,0.38717 11.3125,1.96875 1.74745,47.00845 0.25227,94.25153 0.0267,141.34354 -0.0834,6.37504 -0.13471,12.75055 -0.24548,19.12521 -28.17289,-14.67406 -57.04915,-28.15431 -84.15626,-44.5625 -9.01112,-6.37148 -13.68608,-17.74415 -12.71876,-28.6875 -16.51043,0 -33.02085,0 -49.53128,0 1.40412,17.59087 5.56872,36.41232 19.00001,48.8125 23.56984,21.31858 53.19079,34.51594 81.68549,48.10161 25.79847,11.85975 51.93612,23.04522 78.25205,33.77339 -0.16225,-79.42571 1.7869,-158.86273 0.4556,-238.28026 1.09152,-6.74927 -5.23969,-11.03192 -11.17435,-11.75099 -15.63975,-1.74212 -31.66145,-0.13405 -47.4375,-0.6875 -21.72917,0 -43.45834,0 -65.18752,0 1.92709,-13.86458 3.85417,-27.72917 5.78126,-41.59375 39.18751,0.0102 78.37501,0.0219 117.56251,0.0312 0,-20.66667 0,-41.33333 0,-62 -50.29167,0 -100.58334,0 -150.87503,0 l -0.16742,0.98589 -0.11383,0.67036 z" />
          </g>
          <g
             transform="matrix(0.81925029,0,0,1.4363004,0,-141.21124)"
             style="font-size:301.28759766px;font-style:normal;font-variant:normal;font-weight:normal;font-stretch:normal;text-align:start;line-height:125%;letter-spacing:0px;word-spacing:0px;writing-mode:lr-tb;text-anchor:start;fill:#000000;fill-opacity:1;stroke:none;font-family:Sans;-inkscape-font-specification:Sans"
             id="g7835">
            <path
               style="fill:#ffffff"
               inkscape:connector-curvature="0"
               id="path7837"
               d="m 415.26417,524.5 c -4.43832,1.89378 -0.84172,11.83458 -2.01425,16.99999 -0.12178,96.14596 -0.2909,192.29192 -0.5795,288.43751 57.85291,-17.45843 118.262,-30.99563 170.375,-62.6875 14.55195,-8.50471 29.94538,-19.32822 34.375,-36.71875 6.17305,-22.29643 1.81283,-45.94771 -0.38045,-68.5227 -2.38804,-15.82088 -3.78453,-32.08079 -8.8383,-47.2898 -4.26929,-2.55731 -11.43257,-0.23957 -16.75,-1.03125 -38.63542,0 -77.27083,0 -115.90625,0 0.15289,8.9171 0.37606,17.83293 0.53125,26.75 27.73958,0 55.47917,0 83.21875,0 3.15247,21.98995 8.57087,43.76876 10.28125,65.875 1.06817,12.36883 -5.90248,23.96556 -16.21875,30.46875 -30.80519,21.10096 -67.19345,31.64185 -102.49048,42.84513 -5.86901,2.28748 -1.05047,-9.75588 -2.61627,-13.25137 -0.0582,-62.63542 -0.11633,-125.27084 -0.1745,-187.90626 50.82292,0 101.64583,0 152.46875,0 -5.34763,-18.00714 -10.62644,-36.03534 -15.90625,-54.0625 -56.45833,0.0296 -112.91667,0.0628 -169.375,0.0937 z" />
          </g>
        </g>
      </g>
      <g
         style="filter:url(#filter7875)"
         inkscape:label="Layer 1"
         id="layer1-2"
         transform="matrix(0.9052727,0,0,0.9052727,106.21274,-544.39002)">
        <g
           id="g6700"
           transform="matrix(0.6149827,0,0,0.6149827,9.970665,245.73811)">
          <g
             id="text6369"
             style="font-size:352.0531311px;font-style:normal;font-variant:normal;font-weight:normal;font-stretch:normal;text-align:start;line-height:125%;letter-spacing:0px;word-spacing:0px;writing-mode:lr-tb;text-anchor:start;fill:#000000;fill-opacity:1;stroke:none;font-family:Sans;-inkscape-font-specification:Sans"
             transform="matrix(0.94977445,0,0,1.2358035,0,-138.78463)">
            <path
               sodipodi:nodetypes="ccccczczzcczccccc"
               inkscape:connector-curvature="0"
               id="path6388"
               d="m 190.07219,610.06313 0,57.98861 -117.284578,-0.009 -6.365424,45.57373 109.475412,0 c 0,0 12.06882,0.45315 14.17459,6.14985 2.10576,5.69669 0,162.51387 0,239.62179 0,0 -80.55506,-32.71892 -118.343064,-53.99707 C 33.941118,884.11289 27.519316,873.6932 22.236859,863.19427 16.954402,852.69535 15.390121,833.65404 15.390121,833.65404 l 45.278767,0 c 0,0 -2.046445,19.22075 16.844705,30.51803 18.891151,11.29729 83.981677,43.94596 83.981677,43.94596 0,0 2.31902,-161.57937 0,-164.81599 -2.31902,-3.23662 -24.09998,-3.23662 -24.09998,-3.23662 l -116.217329,0 21.70741,-130.00229" />
          </g>
          <g
             id="text6381"
             style="font-size:301.28759766px;font-style:normal;font-variant:normal;font-weight:normal;font-stretch:normal;text-align:start;line-height:125%;letter-spacing:0px;word-spacing:0px;writing-mode:lr-tb;text-anchor:start;fill:#000000;fill-opacity:1;stroke:none;font-family:Sans;-inkscape-font-specification:Sans"
             transform="matrix(0.81925029,0,0,1.4363004,0,-141.21124)">
            <path
               sodipodi:nodetypes="ccccszsccccccsc"
               inkscape:connector-curvature="0"
               id="path6391"
               d="m 376.80721,638.44726 -82.9202,0 -0.48984,-22.75688 128.89833,0 c 3.30832,6.59758 12.19416,61.49862 12.04967,91.68307 -0.14449,30.18445 -12.22215,39.23292 -15.12499,42.81354 -2.90284,3.58062 -26.97895,21.52064 -64.6452,37.30733 -37.66625,15.78669 -88.92264,29.42005 -124.08918,39.79199 0.40522,-100.25785 0.6138,-300.77389 0.6138,-300.77389 l 167.87144,-0.099 14.73124,50.06511 -151.79491,0 0.18592,206.56243 c 11.51126,-3.26637 64.63452,-19.09395 92.66865,-34.92346 28.03414,-15.8295 36.50335,-25.22273 31.13506,-55.96003" />
          </g>
        </g>
      </g>
    </g>
  </g>
</svg>
