<?xml version="1.0" encoding="UTF-8" standalone="no"?>
<!-- Created with Inkscape (http://www.inkscape.org/) -->

<svg
   xmlns:dc="http://purl.org/dc/elements/1.1/"
   xmlns:cc="http://creativecommons.org/ns#"
   xmlns:rdf="http://www.w3.org/1999/02/22-rdf-syntax-ns#"
   xmlns:svg="http://www.w3.org/2000/svg"
   xmlns="http://www.w3.org/2000/svg"
   xmlns:sodipodi="http://sodipodi.sourceforge.net/DTD/sodipodi-0.dtd"
   xmlns:inkscape="http://www.inkscape.org/namespaces/inkscape"
   width="256"
   height="256"
   id="svg5346"
   version="1.1"
   inkscape:version="0.48.4 r9939"
   sodipodi:docname="foliage.svg">
  <defs
     id="defs5348">
    <inkscape:path-effect
       effect="skeletal"
       id="path-effect4519"
       is_visible="true"
       pattern="M 0,0 0,10 10,5 z"
       copytype="single_stretched"
       prop_scale="1"
       scale_y_rel="false"
       spacing="0"
       normal_offset="0"
       tang_offset="0"
       prop_units="false"
       vertical_pattern="false"
       fuse_tolerance="0" />
    <inkscape:path-effect
       effect="skeletal"
       id="path-effect4515"
       is_visible="true"
       pattern="M 0,0 0,10 10,5 z"
       copytype="single_stretched"
       prop_scale="1"
       scale_y_rel="false"
       spacing="0"
       normal_offset="0"
       tang_offset="0"
       prop_units="false"
       vertical_pattern="false"
       fuse_tolerance="0" />
    <inkscape:path-effect
       effect="skeletal"
       id="path-effect4511"
       is_visible="true"
       pattern="M 0,0 0,10 10,5 z"
       copytype="single_stretched"
       prop_scale="1"
       scale_y_rel="false"
       spacing="0"
       normal_offset="0"
       tang_offset="0"
       prop_units="false"
       vertical_pattern="false"
       fuse_tolerance="0" />
    <inkscape:path-effect
       effect="skeletal"
       id="path-effect6402"
       is_visible="true"
       pattern="M 0,0 1,0"
       copytype="single_stretched"
       prop_scale="1"
       scale_y_rel="false"
       spacing="0"
       normal_offset="0"
       tang_offset="0"
       prop_units="false"
       vertical_pattern="false"
       fuse_tolerance="0" />
    <inkscape:path-effect
       effect="skeletal"
       id="path-effect5602"
       is_visible="true"
       pattern="m -6,-192 0,10 10,-5 z"
       copytype="single_stretched"
       prop_scale="1"
       scale_y_rel="false"
       spacing="0"
       normal_offset="0"
       tang_offset="0"
       prop_units="false"
       vertical_pattern="false"
       fuse_tolerance="0" />
    <inkscape:path-effect
       effect="skeletal"
       id="path-effect5598"
       is_visible="true"
       pattern="M 0,0 0,10 10,5 z"
       copytype="single_stretched"
       prop_scale="1"
       scale_y_rel="false"
       spacing="0"
       normal_offset="0"
       tang_offset="0"
       prop_units="false"
       vertical_pattern="false"
       fuse_tolerance="0" />
    <inkscape:path-effect
       effect="skeletal"
       id="path-effect5594"
       is_visible="true"
       pattern="m -6,-192 0,10 10,-5 z"
       copytype="single_stretched"
       prop_scale="1"
       scale_y_rel="false"
       spacing="0"
       normal_offset="0"
       tang_offset="0"
       prop_units="false"
       vertical_pattern="false"
       fuse_tolerance="0" />
    <inkscape:path-effect
       effect="skeletal"
       id="path-effect5590"
       is_visible="true"
       pattern="m -6,-192 0,10 10,-5 z"
       copytype="single_stretched"
       prop_scale="1"
       scale_y_rel="false"
       spacing="0"
       normal_offset="0"
       tang_offset="0"
       prop_units="false"
       vertical_pattern="false"
       fuse_tolerance="0" />
    <inkscape:path-effect
       effect="skeletal"
       id="path-effect5586"
       is_visible="true"
       pattern="m -6,-192 0,10 10,-5 z"
       copytype="single_stretched"
       prop_scale="1"
       scale_y_rel="false"
       spacing="0"
       normal_offset="0"
       tang_offset="0"
       prop_units="false"
       vertical_pattern="false"
       fuse_tolerance="0" />
    <inkscape:path-effect
       effect="skeletal"
       id="path-effect5582"
       is_visible="true"
       pattern="m -6,-192 0,10 10,-5 z"
       copytype="single_stretched"
       prop_scale="1"
       scale_y_rel="false"
       spacing="0"
       normal_offset="0"
       tang_offset="0"
       prop_units="false"
       vertical_pattern="false"
       fuse_tolerance="0" />
    <inkscape:path-effect
       effect="skeletal"
       id="path-effect5578"
       is_visible="true"
       pattern="m -6,-192 0,10 10,-5 z"
       copytype="single_stretched"
       prop_scale="1"
       scale_y_rel="false"
       spacing="0"
       normal_offset="0"
       tang_offset="0"
       prop_units="false"
       vertical_pattern="false"
       fuse_tolerance="0" />
    <inkscape:path-effect
       effect="skeletal"
       id="path-effect5574"
       is_visible="true"
       pattern="m -6,-192 0,10 10,-5 z"
       copytype="single_stretched"
       prop_scale="1"
       scale_y_rel="false"
       spacing="0"
       normal_offset="0"
       tang_offset="0"
       prop_units="false"
       vertical_pattern="false"
       fuse_tolerance="0" />
    <inkscape:path-effect
       effect="skeletal"
       id="path-effect5570"
       is_visible="true"
       pattern="m -6,-192 0,10 10,-5 z"
       copytype="single_stretched"
       prop_scale="1"
       scale_y_rel="false"
       spacing="0"
       normal_offset="0"
       tang_offset="0"
       prop_units="false"
       vertical_pattern="false"
       fuse_tolerance="0" />
    <inkscape:path-effect
       fuse_tolerance="0"
       vertical_pattern="false"
       prop_units="false"
       tang_offset="0"
       normal_offset="0"
       spacing="0"
       scale_y_rel="false"
       prop_scale="1"
       copytype="single_stretched"
       pattern="m -21.598898,1.5427784 0,9.9999996 10,-4.9999995 z"
       is_visible="true"
       id="path-effect5566"
       effect="skeletal" />
    <inkscape:path-effect
       effect="skeletal"
       id="path-effect5562"
       is_visible="true"
       pattern="m -40.969644,0.51425948 0,9.99999952 10,-4.9999995 z"
       copytype="single_stretched"
       prop_scale="1"
       scale_y_rel="false"
       spacing="0"
       normal_offset="0"
       tang_offset="0"
       prop_units="false"
       vertical_pattern="false"
       fuse_tolerance="0" />
    <filter
       id="filter5438"
       inkscape:label="Leaves"
       inkscape:menu="Scatter"
       inkscape:menu-tooltip="Leaves on the ground in Fall, or living foliage"
       color-interpolation-filters="sRGB">
      <feTurbulence
         id="feTurbulence5440"
         baseFrequency="0.09"
         numOctaves="5"
         type="fractalNoise"
         result="result6" />
      <feColorMatrix
         id="feColorMatrix5442"
         values="1 0 0 0 0 0 1 0 0 0 0 0 1 0 0 0 0 0 4.9 -2.9 "
         result="result5"
         in="result6" />
      <feComposite
         id="feComposite5444"
         in2="result5"
         operator="in"
         in="SourceGraphic" />
      <feMorphology
         id="feMorphology5446"
         result="result3"
         radius="6"
         operator="dilate" />
      <feTurbulence
         id="feTurbulence5448"
         baseFrequency="0.2"
         numOctaves="1"
         type="fractalNoise"
         result="result91" />
      <feDisplacementMap
         id="feDisplacementMap5450"
         in2="result91"
         result="result4"
         scale="15"
         yChannelSelector="G"
         xChannelSelector="R"
         in="result3" />
      <feComposite
         id="feComposite5452"
         in2="result4"
         operator="arithmetic"
         result="result2"
         k1="0.5"
         k3="1" />
      <feConvolveMatrix
         id="feConvolveMatrix5454"
         order="3 3"
         kernelMatrix="1 0 0 0 2 0 0 0 -1 "
         targetX="0"
         targetY="0"
         divisor="1.5"
         edgeMode="duplicate"
         in="result2" />
    </filter>
    <filter
       id="filter5458"
       inkscape:label="Leaves"
       inkscape:menu="Scatter"
       inkscape:menu-tooltip="Leaves on the ground in Fall, or living foliage"
       color-interpolation-filters="sRGB">
      <feTurbulence
         id="feTurbulence5460"
         baseFrequency="0.09"
         numOctaves="5"
         type="fractalNoise"
         result="result6" />
      <feColorMatrix
         id="feColorMatrix5462"
         values="1 0 0 0 0 0 1 0 0 0 0 0 1 0 0 0 0 0 4.9 -2.9 "
         result="result5"
         in="result6" />
      <feComposite
         id="feComposite5464"
         in2="result5"
         operator="in"
         in="SourceGraphic" />
      <feMorphology
         id="feMorphology5466"
         result="result3"
         radius="6"
         operator="dilate" />
      <feTurbulence
         id="feTurbulence5468"
         baseFrequency="0.2"
         numOctaves="1"
         type="fractalNoise"
         result="result91" />
      <feDisplacementMap
         id="feDisplacementMap5470"
         in2="result91"
         result="result4"
         scale="15"
         yChannelSelector="G"
         xChannelSelector="R"
         in="result3" />
      <feComposite
         id="feComposite5472"
         in2="result4"
         operator="arithmetic"
         result="result2"
         k1="0.5"
         k3="1" />
      <feConvolveMatrix
         id="feConvolveMatrix5474"
         order="3 3"
         kernelMatrix="1 0 0 0 2 0 0 0 -1 "
         targetX="0"
         targetY="0"
         divisor="1.5"
         edgeMode="duplicate"
         in="result2" />
    </filter>
    <filter
       id="filter5478"
       inkscape:label="Leaves"
       inkscape:menu="Scatter"
       inkscape:menu-tooltip="Leaves on the ground in Fall, or living foliage"
       color-interpolation-filters="sRGB">
      <feTurbulence
         id="feTurbulence5480"
         baseFrequency="0.09"
         numOctaves="5"
         type="fractalNoise"
         result="result6" />
      <feColorMatrix
         id="feColorMatrix5482"
         values="1 0 0 0 0 0 1 0 0 0 0 0 1 0 0 0 0 0 4.9 -2.9 "
         result="result5"
         in="result6" />
      <feComposite
         id="feComposite5484"
         in2="result5"
         operator="in"
         in="SourceGraphic" />
      <feMorphology
         id="feMorphology5486"
         result="result3"
         radius="6"
         operator="dilate" />
      <feTurbulence
         id="feTurbulence5488"
         baseFrequency="0.2"
         numOctaves="1"
         type="fractalNoise"
         result="result91" />
      <feDisplacementMap
         id="feDisplacementMap5490"
         in2="result91"
         result="result4"
         scale="15"
         yChannelSelector="G"
         xChannelSelector="R"
         in="result3" />
      <feComposite
         id="feComposite5492"
         in2="result4"
         operator="arithmetic"
         result="result2"
         k1="0.5"
         k3="1" />
      <feConvolveMatrix
         id="feConvolveMatrix5494"
         order="3 3"
         kernelMatrix="1 0 0 0 2 0 0 0 -1 "
         targetX="0"
         targetY="0"
         divisor="1.5"
         edgeMode="duplicate"
         in="result2" />
    </filter>
    <filter
       id="filter5498"
       inkscape:label="Leaves"
       inkscape:menu="Scatter"
       inkscape:menu-tooltip="Leaves on the ground in Fall, or living foliage"
       color-interpolation-filters="sRGB">
      <feTurbulence
         id="feTurbulence5500"
         baseFrequency="0.09"
         numOctaves="5"
         type="fractalNoise"
         result="result6" />
      <feColorMatrix
         id="feColorMatrix5502"
         values="1 0 0 0 0 0 1 0 0 0 0 0 1 0 0 0 0 0 4.9 -2.9 "
         result="result5"
         in="result6" />
      <feComposite
         id="feComposite5504"
         in2="result5"
         operator="in"
         in="SourceGraphic" />
      <feMorphology
         id="feMorphology5506"
         result="result3"
         radius="6"
         operator="dilate" />
      <feTurbulence
         id="feTurbulence5508"
         baseFrequency="0.2"
         numOctaves="1"
         type="fractalNoise"
         result="result91" />
      <feDisplacementMap
         id="feDisplacementMap5510"
         in2="result91"
         result="result4"
         scale="15"
         yChannelSelector="G"
         xChannelSelector="R"
         in="result3" />
      <feComposite
         id="feComposite5512"
         in2="result4"
         operator="arithmetic"
         result="result2"
         k1="0.5"
         k3="1" />
      <feConvolveMatrix
         id="feConvolveMatrix5514"
         order="3 3"
         kernelMatrix="1 0 0 0 2 0 0 0 -1 "
         targetX="0"
         targetY="0"
         divisor="1.5"
         edgeMode="duplicate"
         in="result2" />
    </filter>
    <filter
       id="filter5522"
       inkscape:label="Leaves"
       inkscape:menu="Scatter"
       inkscape:menu-tooltip="Leaves on the ground in Fall, or living foliage"
       color-interpolation-filters="sRGB">
      <feTurbulence
         id="feTurbulence5524"
         baseFrequency="0.09"
         numOctaves="5"
         type="fractalNoise"
         result="result6" />
      <feColorMatrix
         id="feColorMatrix5526"
         values="1 0 0 0 0 0 1 0 0 0 0 0 1 0 0 0 0 0 4.9 -2.9 "
         result="result5"
         in="result6" />
      <feComposite
         id="feComposite5528"
         in2="result5"
         operator="in"
         in="SourceGraphic" />
      <feMorphology
         id="feMorphology5530"
         result="result3"
         radius="6"
         operator="dilate" />
      <feTurbulence
         id="feTurbulence5532"
         baseFrequency="0.2"
         numOctaves="1"
         type="fractalNoise"
         result="result91" />
      <feDisplacementMap
         id="feDisplacementMap5534"
         in2="result91"
         result="result4"
         scale="15"
         yChannelSelector="G"
         xChannelSelector="R"
         in="result3" />
      <feComposite
         id="feComposite5536"
         in2="result4"
         operator="arithmetic"
         result="result2"
         k1="0.5"
         k3="1" />
      <feConvolveMatrix
         id="feConvolveMatrix5538"
         order="3 3"
         kernelMatrix="1 0 0 0 2 0 0 0 -1 "
         targetX="0"
         targetY="0"
         divisor="1.5"
         edgeMode="duplicate"
         in="result2" />
    </filter>
    <filter
       id="filter5542"
       inkscape:label="Leaves"
       inkscape:menu="Scatter"
       inkscape:menu-tooltip="Leaves on the ground in Fall, or living foliage"
       color-interpolation-filters="sRGB">
      <feTurbulence
         id="feTurbulence5544"
         baseFrequency="0.09"
         numOctaves="5"
         type="fractalNoise"
         result="result6" />
      <feColorMatrix
         id="feColorMatrix5546"
         values="1 0 0 0 0 0 1 0 0 0 0 0 1 0 0 0 0 0 4.9 -2.9 "
         result="result5"
         in="result6" />
      <feComposite
         id="feComposite5548"
         in2="result5"
         operator="in"
         in="SourceGraphic" />
      <feMorphology
         id="feMorphology5550"
         result="result3"
         radius="6"
         operator="dilate" />
      <feTurbulence
         id="feTurbulence5552"
         baseFrequency="0.2"
         numOctaves="1"
         type="fractalNoise"
         result="result91" />
      <feDisplacementMap
         id="feDisplacementMap5554"
         in2="result91"
         result="result4"
         scale="15"
         yChannelSelector="G"
         xChannelSelector="R"
         in="result3" />
      <feComposite
         id="feComposite5556"
         in2="result4"
         operator="arithmetic"
         result="result2"
         k1="0.5"
         k3="1" />
      <feConvolveMatrix
         id="feConvolveMatrix5558"
         order="3 3"
         kernelMatrix="1 0 0 0 2 0 0 0 -1 "
         targetX="0"
         targetY="0"
         divisor="1.5"
         edgeMode="duplicate"
         in="result2" />
    </filter>
  </defs>
  <sodipodi:namedview
     id="base"
     pagecolor="#ffffff"
     bordercolor="#666666"
     borderopacity="1.0"
     inkscape:pageopacity="0.0"
     inkscape:pageshadow="2"
     inkscape:zoom="1.375"
     inkscape:cx="62.983489"
     inkscape:cy="124.17534"
     inkscape:current-layer="layer1"
     showgrid="true"
     inkscape:document-units="px"
     inkscape:grid-bbox="true"
     inkscape:window-width="1920"
     inkscape:window-height="1065"
     inkscape:window-x="0"
     inkscape:window-y="15"
     inkscape:window-maximized="0" />
  <metadata
     id="metadata5351">
    <rdf:RDF>
      <cc:Work
         rdf:about="">
        <dc:format>image/svg+xml</dc:format>
        <dc:type
           rdf:resource="http://purl.org/dc/dcmitype/StillImage" />
        <dc:title></dc:title>
      </cc:Work>
    </rdf:RDF>
  </metadata>
  <g
     inkscape:groupmode="layer"
     id="layer2"
     inkscape:label="twigs" />
  <g
     id="layer1"
     inkscape:label="Layer 1"
     inkscape:groupmode="layer"
     transform="translate(0,192)"
     style="display:inline">
    <path
       style="fill:#000000;stroke:#000000;stroke-width:1px;stroke-linecap:butt;stroke-linejoin:miter;stroke-opacity:1"
       d="m -275.64309,71.380843 c -0.51426,-30.51273 -5.65685,-32.741187 8.22816,-55.540025 9.77093,41.483599 -10e-6,31.02699 -4.11408,57.082804 -0.68568,-8.570992 1.19993,-17.141984 0.51426,-25.712975 -2.91414,7.713892 -1.7142,16.456304 -4.62834,24.170196 z"
       id="path3430"
       inkscape:connector-curvature="0"
       transform="translate(0,-192)"
       sodipodi:nodetypes="ccccc" />
    <path
       style="fill:#1a1a1a;fill-opacity:1;stroke:none"
       d="m -189.97625,-56.836464 c 13.79319,-37.998738 47.02949,-52.203636 47.02949,-52.203636 0,0 -6.30298,37.249354 -38.13615,58.905165 -8.58065,5.837332 9.91898,-21.505575 9.91898,-21.505575 0,0 -22.43533,24.78505 -18.81232,14.804046 z"
       id="path3456"
       inkscape:connector-curvature="0"
       sodipodi:nodetypes="scscs" />
    <g
       style="opacity:0.86000001;fill:#112b00;stroke:none"
       transform="matrix(-1,0,0,-1,228.00721,-167.10823)"
       id="g4397" />
    <path
       style="fill:#000000;fill-rule:evenodd;stroke:none"
       d="m 80.008681,-126.29246 c 6.32167,2.38926 12.00349,6.27132 16.59375,11.125 4.808469,5.08127 8.485419,11.13435 11.343749,17.5 3.17525,7.07845 5.34971,14.58284 6.9375,22.1875 1.72619,8.27999 2.73373,16.67239 3.28125,25.125 0.41462,6.40385 0.30588,13.86493 0.24287,20.27852 -6.07139,-10.25656 -12.56921,-21.09333 -19.899119,-30.37227 -8.80334,-11.18296 -18.48613,-22.0835 -30.3125,-29.84375 10.88856,9.02905 20.013359,19.10308 27.466019,31.01972 6.12784,7.37449 11.66098,17.11506 19.99393,36.93856 1.44163,4.66023 1.65527,17.79588 0.9463,24.22922 -1.60915,14.53746 -3.97338,28.94375 -7.53125,42.96875 l 9.75,2.21875 c 1.62446,-4.38825 0.74797,-9.29164 1.9912,-17.15352 2.2441,-12.81422 3.11578,-14.88082 4.40898,-25.50213 1.40221,-11.41819 6.21826,-28.4179 8.22482,-39.59435 1.90688,-10.5572 4.41997,-21.01821 8.9375,-30.6875 2.0747,-4.44458 4.57423,-8.68955 7.65625,-12.53125 3.03211,-3.78053 6.63411,-7.16559 10.71875,-9.875 -4.28282,2.38382 -8.20208,5.51023 -11.59375,9.125 -3.44428,3.67163 -6.35984,7.81677 -8.84375,12.21875 -5.39301,9.56339 -8.84863,20.14603 -11.59375,30.71875 -1.46896,5.63513 -3.26489,10.2674 -4.45176,15.94023 -0.0432,-10.54622 -0.062,-20.06577 -1.29824,-30.53398 -1.01359,-8.58611 -2.50584,-17.12951 -4.71875,-25.5 -2.02984,-7.68698 -4.70785,-15.26133 -8.34375,-22.34375 -3.27014,-6.37589 -7.38399,-12.35425 -12.562499,-17.28125 -4.95359,-4.71052 -10.90391,-8.32548 -17.34375,-10.375 z"
       id="path4509"
       inkscape:connector-curvature="0"
       sodipodi:nodetypes="cccccccccccccccccccccccccccc" />
    <g
       id="g4256"
       style="fill:#89a02c;stroke:none">
      <path
         style="fill:#89a02c;stroke:none"
         d="m 193.71722,-72.846859 c 5.87796,18.821772 13.09685,18.740988 -1.48942,36.872542 -20.05671,-23.002748 -5.2815,-19.287952 -4.24523,-36.658769 2.37046,5.132929 1.32193,10.998577 3.693,16.131296 2.56262,-5.62623 -0.5214,-10.718868 2.04132,-16.345163 z"
         id="path3432"
         inkscape:connector-curvature="0"
         sodipodi:nodetypes="ccccc" />
      <path
         sodipodi:nodetypes="ccccc"
         inkscape:connector-curvature="0"
         id="path3434"
         d="m 192.85607,-128.64122 c 13.07538,-14.43026 11.14406,-18.2095 28.98114,-21.37439 -12.64739,24.46159 -13.59104,14.39465 -27.33095,24.28642 3.36674,-4.34257 8.18744,-7.31223 11.55422,-11.65447 -5.02641,2.02325 -8.17778,6.71941 -13.2044,8.74249 z"
         style="fill:#89a02c;stroke:none" />
      <path
         style="fill:#89a02c;stroke:none"
         d="m 55.827646,-45.113794 c -18.213974,-6.888341 -21.024308,-3.7076 -30.496928,-19.149719 27.393231,2.819096 18.369533,7.381453 32.603218,16.548384 -5.273248,-1.544297 -9.801108,-4.943816 -15.074377,-6.488147 3.722176,3.937709 9.246011,5.151799 12.968397,9.08912 z"
         id="path3436"
         inkscape:connector-curvature="0"
         sodipodi:nodetypes="ccccc" />
      <path
         sodipodi:nodetypes="ccccc"
         inkscape:connector-curvature="0"
         id="path3438"
         d="m 53.666638,-136.77545 c -17.921979,-7.61585 -20.858223,-4.55117 -29.701062,-20.36239 27.257486,3.92023 18.057505,8.11493 31.910237,17.84783 -5.206761,-1.75547 -9.593751,-5.33496 -14.800814,-7.08969 3.560511,4.08438 9.031028,5.51983 12.591727,9.60392 z"
         style="fill:#89a02c;stroke:none" />
      <path
         style="fill:#89a02c;stroke:none"
         d="m 156.56888,-141.75436 c 19.32888,-2.36498 20.33946,-6.48697 35.90291,2.78468 -25.56587,10.23321 -19.69572,2.0003 -36.55902,0.49754 5.38692,-1.08305 10.97589,-0.17696 16.36287,-1.25996 -5.12572,-1.75702 -10.58112,-0.26507 -15.70677,-2.0223 z"
         id="path3440"
         inkscape:connector-curvature="0"
         sodipodi:nodetypes="ccccc" />
      <path
         sodipodi:nodetypes="ccccc"
         inkscape:connector-curvature="0"
         id="path3442"
         d="M 85.089955,-33.491711 C 74.666407,-49.93998 70.509222,-49.08568 72.212772,-67.121266 c 20.206103,18.709488 10.251411,16.935946 16.12374,32.815176 -3.287769,-4.402567 -4.86557,-9.840201 -8.153564,-14.242575 0.610267,5.383988 4.297296,9.672758 4.907093,15.056885 z"
         style="fill:#89a02c;stroke:none" />
      <path
         style="fill:#89a02c;stroke:none"
         d="m 172.95859,-56.897214 c -12.02509,15.316567 -9.83186,18.950213 -27.40177,23.364909 10.89105,-25.29254 12.54216,-15.317134 25.55024,-26.15318 -3.0519,4.569251 -7.65131,7.871223 -10.70367,12.44026 4.8714,-2.372805 7.68339,-7.27985 12.55516,-9.652066 z"
         id="path3444"
         inkscape:connector-curvature="0"
         sodipodi:nodetypes="ccccc" />
      <path
         sodipodi:nodetypes="ccccc"
         inkscape:connector-curvature="0"
         id="path3446"
         d="m 54.221525,-117.26703 c -19.002098,4.2565 -19.602039,8.45794 -36.002683,0.76349 24.434274,-12.70036 19.403134,-3.9296 36.332505,-4.09419 -5.254177,1.60801 -10.905208,1.25678 -16.159412,2.86468 5.273915,1.24385 10.555859,-0.77778 15.829587,0.46591 z"
         style="fill:#89a02c;stroke:none" />
      <path
         style="fill:#89a02c;stroke:none"
         d="M 49.825869,-78.566768 C 38.421282,-94.35078 34.323706,-93.245278 34.927382,-111.35112 c 21.306455,17.446141 11.262354,16.281382 18.089375,31.773975 -3.549611,-4.194296 -5.454983,-9.525973 -9.004592,-13.720288 0.936476,5.336933 4.877227,9.393709 5.813691,14.730653 z"
         id="path3448"
         inkscape:connector-curvature="0"
         sodipodi:nodetypes="ccccc" />
      <path
         sodipodi:nodetypes="ccccc"
         inkscape:connector-curvature="0"
         id="path3450"
         d="m 184.93008,-104.38781 c 10.78515,16.213664 14.9224,15.267459 13.61852,33.336391 -20.61532,-18.257667 -10.62364,-16.705056 -16.84621,-32.450281 3.38467,4.328623 5.08219,9.73006 8.46693,14.058552 -0.72907,-5.369122 -4.51013,-9.575376 -5.23926,-14.944652 z"
         style="fill:#89a02c;stroke:none" />
      <path
         style="fill:#89a02c;stroke:none"
         d="m 69.09793,-150.59516 c 1.243755,-19.4333 -2.621026,-21.18731 9.364003,-34.77213 5.338412,27.01566 -1.669643,19.72662 -6.259417,36.02273 -0.07017,-5.49433 1.852621,-10.81985 1.782109,-16.3142 -2.673252,4.71322 -2.213545,10.35036 -4.886599,15.06363 z"
         id="path3452"
         inkscape:connector-curvature="0"
         sodipodi:nodetypes="ccccc" />
      <path
         sodipodi:nodetypes="ccccc"
         inkscape:connector-curvature="0"
         id="path3454"
         d="m 140.88928,-154.30149 c 14.54297,-13.8739 12.81985,-17.54417 31.47074,-20.48352 -14.82264,23.58403 -15.07335,13.83528 -29.97606,23.31253 3.78988,-4.17872 8.98247,-7.01923 12.77228,-11.19802 -5.33722,1.923 -8.92984,6.44577 -14.26701,8.36899 z"
         style="fill:#89a02c;stroke:none" />
      <path
         style="fill:#89a02c;fill-opacity:1;stroke:none"
         d="m 122.31287,-133.35757 c 8.73531,24.57377 -1.76193,44.934253 -1.76193,44.934253 0,0 -12.10061,-21.217013 -5.32963,-44.761163 1.82592,-6.34613 3.90834,14.74832 3.90834,14.74832 0,0 0.88879,-21.37617 3.18331,-14.92139 z"
         id="path4226"
         inkscape:connector-curvature="0"
         sodipodi:nodetypes="scscs" />
      <path
         sodipodi:nodetypes="scscs"
         inkscape:connector-curvature="0"
         id="path4228"
         d="m 138.11119,-114.09042 c 22.64444,12.93861 27.95856,35.220604 27.95856,35.220604 0,0 -23.00776,-8.199103 -33.2231,-30.466104 -2.75353,-6.00219 12.57866,8.6351 12.57866,8.6351 0,0 -13.26208,-16.78823 -7.31412,-13.3896 z"
         style="fill:#89a02c;fill-opacity:1;stroke:none" />
      <path
         style="fill:#89a02c;fill-opacity:1;stroke:none"
         d="m 68.544304,-139.3651 c 23.115768,12.07639 29.265536,34.14241 29.265536,34.14241 0,0 -23.30024,-7.3264 -34.34716,-29.19289 -2.977781,-5.89404 12.894722,8.15571 12.894722,8.15571 0,0 -13.885108,-16.27682 -7.813359,-13.1048 z"
         id="path4230"
         inkscape:connector-curvature="0"
         sodipodi:nodetypes="scscs" />
      <path
         sodipodi:nodetypes="scscs"
         inkscape:connector-curvature="0"
         id="path4232"
         d="m 126.12356,-87.455319 c -3.28576,25.872435 -21.83672,39.310756 -21.83672,39.310756 0,0 -1.23205,-24.393863 15.4292,-42.354407 4.49109,-4.841241 -3.16295,14.925975 -3.16295,14.925975 0,0 10.4335,-18.678138 9.57041,-11.882359 z"
         style="fill:#89a02c;fill-opacity:1;stroke:none" />
      <path
         style="fill:#89a02c;fill-opacity:1;stroke:none"
         d="m 110.76943,-171.60191 c 24.13292,9.88844 32.29581,31.29157 32.29581,31.29157 0,0 -23.8776,-5.1417 -36.89831,-25.89357 -3.50991,-5.59352 13.5937,6.92858 13.5937,6.92858 0,0 -15.33008,-14.92385 -8.9912,-12.32658 z"
         id="path4234"
         inkscape:connector-curvature="0"
         sodipodi:nodetypes="scscs" />
      <path
         sodipodi:nodetypes="scscs"
         inkscape:connector-curvature="0"
         id="path4236"
         d="m 78.775838,-115.9702 c 15.095552,21.267366 10.538085,43.716486 10.538085,43.716486 0,0 -17.4199,-17.121015 -17.314637,-41.619286 0.02839,-6.60359 7.775927,13.12723 7.775927,13.12723 0,0 -4.964431,-20.81068 -0.999367,-15.22444 z"
         style="fill:#89a02c;fill-opacity:1;stroke:none" />
      <path
         style="fill:#89a02c;fill-opacity:1;stroke:none"
         d="m 150.99952,-84.356789 c 24.68717,8.409497 34.13058,29.279424 34.13058,29.279424 0,0 -24.14513,-3.687065 -38.39789,-23.612785 -3.84185,-5.370984 13.98809,6.093146 13.98809,6.093146 0,0 -16.20524,-13.968675 -9.72078,-11.759787 z"
         id="path4238"
         inkscape:connector-curvature="0"
         sodipodi:nodetypes="scscs" />
      <path
         sodipodi:nodetypes="scscs"
         inkscape:connector-curvature="0"
         id="path4240"
         d="m 157.38124,-135.67426 c 17.50739,-19.33045 40.41097,-19.72648 40.41097,-19.72648 0,0 -12.95697,20.70507 -36.90036,25.89062 -6.45398,1.39772 11.13913,-10.42635 11.13913,-10.42635 0,0 -19.2484,9.33973 -14.64974,4.26221 z"
         style="fill:#89a02c;fill-opacity:1;stroke:none" />
      <path
         style="fill:#89a02c;fill-opacity:1;stroke:none"
         d="m 55.115263,-164.36333 c 24.224953,-9.66069 44.968637,0.0571 44.968637,0.0571 0,0 -20.742778,12.89652 -44.526797,7.02319 -6.411046,-1.58308 14.589587,-4.46471 14.589587,-4.46471 0,0 -21.394507,-0.0776 -15.031421,-2.61526 z"
         id="path4242"
         inkscape:connector-curvature="0"
         sodipodi:nodetypes="scscs" />
      <path
         sodipodi:nodetypes="scscs"
         inkscape:connector-curvature="0"
         id="path4244"
         d="m 43.840021,-115.12471 c 21.979172,14.03905 26.188681,36.555938 26.188681,36.555938 0,0 -22.575699,-9.323113 -31.68111,-32.066618 -2.454371,-6.13049 12.137743,9.24476 12.137743,9.24476 0,0 -12.418484,-17.4217 -6.645314,-13.73408 z"
         style="fill:#89a02c;fill-opacity:1;stroke:none" />
      <path
         style="fill:#89a02c;fill-opacity:1;stroke:none"
         d="m 93.53749,-74.515476 c -0.842489,26.066617 -18.050048,41.187095 -18.050048,41.187095 0,0 -3.516516,-24.170549 11.385064,-43.615816 4.016763,-5.24148 -1.747754,15.157016 -1.747754,15.157016 0,0 8.634012,-19.575131 8.412738,-12.728295 z"
         id="path4246"
         inkscape:connector-curvature="0"
         sodipodi:nodetypes="scscs" />
      <path
         sodipodi:nodetypes="scscs"
         inkscape:connector-curvature="0"
         id="path4248"
         d="m 125.16152,-57.851142 c 21.51656,14.738172 25.00022,37.378672 25.00022,37.378672 0,0 -22.26436,-10.043824 -30.6341,-33.068279 -2.25604,-6.206223 11.83433,9.63003 11.83433,9.63003 0,0 -11.85214,-17.811746 -6.20045,-13.940422 z"
         style="fill:#89a02c;fill-opacity:1;stroke:none" />
      <path
         style="fill:#89a02c;fill-opacity:1;stroke:none"
         d="m 178.91876,-73.570768 c 22.75938,-12.735435 44.59254,-5.804236 44.59254,-5.804236 0,0 -18.88515,15.489777 -43.23173,12.766186 -6.56264,-0.734163 13.8833,-6.328027 13.8833,-6.328027 0,0 -21.22217,2.711236 -15.2441,-0.633926 z"
         id="path4250"
         inkscape:connector-curvature="0"
         sodipodi:nodetypes="scscs" />
      <path
         sodipodi:nodetypes="scscs"
         inkscape:connector-curvature="0"
         id="path4252"
         d="m 171.26491,-112.16122 c 21.80851,-14.30284 44.07467,-8.92257 44.07467,-8.92257 0,0 -17.75037,16.77822 -42.22814,15.77171 -6.59805,-0.27172 13.40443,-7.28764 13.40443,-7.28764 0,0 -20.97925,4.19532 -15.25096,0.4385 z"
         style="fill:#89a02c;fill-opacity:1;stroke:none" />
      <path
         style="fill:#89a02c;fill-opacity:1;stroke:none"
         d="m 184.35945,-134.5513 c 19.29632,17.54516 19.64769,40.44935 19.64769,40.44935 0,0 -20.67972,-12.99728 -25.81868,-36.95068 -1.3851,-6.45675 10.40463,11.15942 10.40463,11.15942 0,0 -9.30211,-19.26653 -4.23359,-14.65808 z"
         id="path4254"
         inkscape:connector-curvature="0"
         sodipodi:nodetypes="scscs" />
    </g>
    <g
       id="g4285"
       transform="matrix(-1,0,0,-1,241.37796,-206.19195)"
       style="opacity:0.86000001">
      <path
         sodipodi:nodetypes="ccccc"
         inkscape:connector-curvature="0"
         id="path4287"
         d="m 193.71722,-72.846859 c 5.87796,18.821772 13.09685,18.740988 -1.48942,36.872542 -20.05671,-23.002748 -5.2815,-19.287952 -4.24523,-36.658769 2.37046,5.132929 1.32193,10.998577 3.693,16.131296 2.56262,-5.62623 -0.5214,-10.718868 2.04132,-16.345163 z"
         style="fill:#000000;stroke:#000000;stroke-width:0.93558675px;stroke-linecap:butt;stroke-linejoin:miter;stroke-opacity:1" />
      <path
         style="fill:#000000;stroke:#000000;stroke-width:0.70437336px;stroke-linecap:butt;stroke-linejoin:miter;stroke-opacity:1"
         d="m 192.85607,-128.64122 c 13.07538,-14.43026 11.14406,-18.2095 28.98114,-21.37439 -12.64739,24.46159 -13.59104,14.39465 -27.33095,24.28642 3.36674,-4.34257 8.18744,-7.31223 11.55422,-11.65447 -5.02641,2.02325 -8.17778,6.71941 -13.2044,8.74249 z"
         id="path4289"
         inkscape:connector-curvature="0"
         sodipodi:nodetypes="ccccc" />
      <path
         sodipodi:nodetypes="ccccc"
         inkscape:connector-curvature="0"
         id="path4291"
         d="m 55.827646,-45.113794 c -18.213974,-6.888341 -21.024308,-3.7076 -30.496928,-19.149719 27.393231,2.819096 18.369533,7.381453 32.603218,16.548384 -5.273248,-1.544297 -9.801108,-4.943816 -15.074377,-6.488147 3.722176,3.937709 9.246011,5.151799 12.968397,9.08912 z"
         style="fill:#000000;stroke:#000000;stroke-width:0.70437336px;stroke-linecap:butt;stroke-linejoin:miter;stroke-opacity:1" />
      <path
         style="fill:#000000;stroke:#000000;stroke-width:0.70437336px;stroke-linecap:butt;stroke-linejoin:miter;stroke-opacity:1"
         d="m 53.666638,-136.77545 c -17.921979,-7.61585 -20.858223,-4.55117 -29.701062,-20.36239 27.257486,3.92023 18.057505,8.11493 31.910237,17.84783 -5.206761,-1.75547 -9.593751,-5.33496 -14.800814,-7.08969 3.560511,4.08438 9.031028,5.51983 12.591727,9.60392 z"
         id="path4293"
         inkscape:connector-curvature="0"
         sodipodi:nodetypes="ccccc" />
      <path
         sodipodi:nodetypes="ccccc"
         inkscape:connector-curvature="0"
         id="path4295"
         d="m 156.56888,-141.75436 c 19.32888,-2.36498 20.33946,-6.48697 35.90291,2.78468 -25.56587,10.23321 -19.69572,2.0003 -36.55902,0.49754 5.38692,-1.08305 10.97589,-0.17696 16.36287,-1.25996 -5.12572,-1.75702 -10.58112,-0.26507 -15.70677,-2.0223 z"
         style="fill:#000000;stroke:#000000;stroke-width:0.70437336px;stroke-linecap:butt;stroke-linejoin:miter;stroke-opacity:1" />
      <path
         style="fill:#000000;stroke:#000000;stroke-width:0.70437336px;stroke-linecap:butt;stroke-linejoin:miter;stroke-opacity:1"
         d="M 85.089955,-33.491711 C 74.666407,-49.93998 70.509222,-49.08568 72.212772,-67.121266 c 20.206103,18.709488 10.251411,16.935946 16.12374,32.815176 -3.287769,-4.402567 -4.86557,-9.840201 -8.153564,-14.242575 0.610267,5.383988 4.297296,9.672758 4.907093,15.056885 z"
         id="path4297"
         inkscape:connector-curvature="0"
         sodipodi:nodetypes="ccccc" />
      <path
         sodipodi:nodetypes="ccccc"
         inkscape:connector-curvature="0"
         id="path4299"
         d="m 172.95859,-56.897214 c -12.02509,15.316567 -9.83186,18.950213 -27.40177,23.364909 10.89105,-25.29254 12.54216,-15.317134 25.55024,-26.15318 -3.0519,4.569251 -7.65131,7.871223 -10.70367,12.44026 4.8714,-2.372805 7.68339,-7.27985 12.55516,-9.652066 z"
         style="fill:#000000;stroke:#000000;stroke-width:0.70437336px;stroke-linecap:butt;stroke-linejoin:miter;stroke-opacity:1" />
      <path
         style="fill:#000000;stroke:#000000;stroke-width:0.70437336px;stroke-linecap:butt;stroke-linejoin:miter;stroke-opacity:1"
         d="m 54.221525,-117.26703 c -19.002098,4.2565 -19.602039,8.45794 -36.002683,0.76349 24.434274,-12.70036 19.403134,-3.9296 36.332505,-4.09419 -5.254177,1.60801 -10.905208,1.25678 -16.159412,2.86468 5.273915,1.24385 10.555859,-0.77778 15.829587,0.46591 z"
         id="path4301"
         inkscape:connector-curvature="0"
         sodipodi:nodetypes="ccccc" />
      <path
         sodipodi:nodetypes="ccccc"
         inkscape:connector-curvature="0"
         id="path4303"
         d="M 49.825869,-78.566768 C 38.421282,-94.35078 34.323706,-93.245278 34.927382,-111.35112 c 21.306455,17.446141 11.262354,16.281382 18.089375,31.773975 -3.549611,-4.194296 -5.454983,-9.525973 -9.004592,-13.720288 0.936476,5.336933 4.877227,9.393709 5.813691,14.730653 z"
         style="fill:#000000;stroke:#000000;stroke-width:0.70437336px;stroke-linecap:butt;stroke-linejoin:miter;stroke-opacity:1" />
      <path
         style="fill:#000000;stroke:#000000;stroke-width:0.70437336px;stroke-linecap:butt;stroke-linejoin:miter;stroke-opacity:1"
         d="m 184.93008,-104.38781 c 10.78515,16.213664 14.9224,15.267459 13.61852,33.336391 -20.61532,-18.257667 -10.62364,-16.705056 -16.84621,-32.450281 3.38467,4.328623 5.08219,9.73006 8.46693,14.058552 -0.72907,-5.369122 -4.51013,-9.575376 -5.23926,-14.944652 z"
         id="path4305"
         inkscape:connector-curvature="0"
         sodipodi:nodetypes="ccccc" />
      <path
         sodipodi:nodetypes="ccccc"
         inkscape:connector-curvature="0"
         id="path4307"
         d="m 69.09793,-150.59516 c 1.243755,-19.4333 -2.621026,-21.18731 9.364003,-34.77213 5.338412,27.01566 -1.669643,19.72662 -6.259417,36.02273 -0.07017,-5.49433 1.852621,-10.81985 1.782109,-16.3142 -2.673252,4.71322 -2.213545,10.35036 -4.886599,15.06363 z"
         style="fill:#000000;stroke:#000000;stroke-width:0.70437336px;stroke-linecap:butt;stroke-linejoin:miter;stroke-opacity:1" />
      <path
         style="fill:#000000;stroke:#000000;stroke-width:0.70437336px;stroke-linecap:butt;stroke-linejoin:miter;stroke-opacity:1"
         d="m 140.88928,-154.30149 c 14.54297,-13.8739 12.81985,-17.54417 31.47074,-20.48352 -14.82264,23.58403 -15.07335,13.83528 -29.97606,23.31253 3.78988,-4.17872 8.98247,-7.01923 12.77228,-11.19802 -5.33722,1.923 -8.92984,6.44577 -14.26701,8.36899 z"
         id="path4309"
         inkscape:connector-curvature="0"
         sodipodi:nodetypes="ccccc" />
      <path
         sodipodi:nodetypes="scscs"
         inkscape:connector-curvature="0"
         id="path4311"
         d="m 122.31287,-133.35757 c 8.73531,24.57377 -1.76193,44.934253 -1.76193,44.934253 0,0 -12.10061,-21.217013 -5.32963,-44.761163 1.82592,-6.34613 3.90834,14.74832 3.90834,14.74832 0,0 0.88879,-21.37617 3.18331,-14.92139 z"
         style="fill:#1a1a1a;fill-opacity:1;stroke:none" />
      <path
         style="fill:#1a1a1a;fill-opacity:1;stroke:none"
         d="m 138.11119,-114.09042 c 22.64444,12.93861 27.95856,35.220604 27.95856,35.220604 0,0 -23.00776,-8.199103 -33.2231,-30.466104 -2.75353,-6.00219 12.57866,8.6351 12.57866,8.6351 0,0 -13.26208,-16.78823 -7.31412,-13.3896 z"
         id="path4313"
         inkscape:connector-curvature="0"
         sodipodi:nodetypes="scscs" />
      <path
         sodipodi:nodetypes="scscs"
         inkscape:connector-curvature="0"
         id="path4315"
         d="m 68.544304,-139.3651 c 23.115768,12.07639 29.265536,34.14241 29.265536,34.14241 0,0 -23.30024,-7.3264 -34.34716,-29.19289 -2.977781,-5.89404 12.894722,8.15571 12.894722,8.15571 0,0 -13.885108,-16.27682 -7.813359,-13.1048 z"
         style="fill:#1a1a1a;fill-opacity:1;stroke:none" />
      <path
         style="fill:#1a1a1a;fill-opacity:1;stroke:none"
         d="m 126.12356,-87.455319 c -3.28576,25.872435 -21.83672,39.310756 -21.83672,39.310756 0,0 -1.23205,-24.393863 15.4292,-42.354407 4.49109,-4.841241 -3.16295,14.925975 -3.16295,14.925975 0,0 10.4335,-18.678138 9.57041,-11.882359 z"
         id="path4317"
         inkscape:connector-curvature="0"
         sodipodi:nodetypes="scscs" />
      <path
         sodipodi:nodetypes="scscs"
         inkscape:connector-curvature="0"
         id="path4319"
         d="m 110.76943,-171.60191 c 24.13292,9.88844 32.29581,31.29157 32.29581,31.29157 0,0 -23.8776,-5.1417 -36.89831,-25.89357 -3.50991,-5.59352 13.5937,6.92858 13.5937,6.92858 0,0 -15.33008,-14.92385 -8.9912,-12.32658 z"
         style="fill:#1a1a1a;fill-opacity:1;stroke:none" />
      <path
         style="fill:#1a1a1a;fill-opacity:1;stroke:none"
         d="m 78.775838,-115.9702 c 15.095552,21.267366 10.538085,43.716486 10.538085,43.716486 0,0 -17.4199,-17.121015 -17.314637,-41.619286 0.02839,-6.60359 7.775927,13.12723 7.775927,13.12723 0,0 -4.964431,-20.81068 -0.999367,-15.22444 z"
         id="path4321"
         inkscape:connector-curvature="0"
         sodipodi:nodetypes="scscs" />
      <path
         sodipodi:nodetypes="scscs"
         inkscape:connector-curvature="0"
         id="path4323"
         d="m 150.99952,-84.356789 c 24.68717,8.409497 34.13058,29.279424 34.13058,29.279424 0,0 -24.14513,-3.687065 -38.39789,-23.612785 -3.84185,-5.370984 13.98809,6.093146 13.98809,6.093146 0,0 -16.20524,-13.968675 -9.72078,-11.759787 z"
         style="fill:#1a1a1a;fill-opacity:1;stroke:none" />
      <path
         style="fill:#1a1a1a;fill-opacity:1;stroke:none"
         d="m 157.38124,-135.67426 c 17.50739,-19.33045 40.41097,-19.72648 40.41097,-19.72648 0,0 -12.95697,20.70507 -36.90036,25.89062 -6.45398,1.39772 11.13913,-10.42635 11.13913,-10.42635 0,0 -19.2484,9.33973 -14.64974,4.26221 z"
         id="path4325"
         inkscape:connector-curvature="0"
         sodipodi:nodetypes="scscs" />
      <path
         sodipodi:nodetypes="scscs"
         inkscape:connector-curvature="0"
         id="path4327"
         d="m 55.115263,-164.36333 c 24.224953,-9.66069 44.968637,0.0571 44.968637,0.0571 0,0 -20.742778,12.89652 -44.526797,7.02319 -6.411046,-1.58308 14.589587,-4.46471 14.589587,-4.46471 0,0 -21.394507,-0.0776 -15.031421,-2.61526 z"
         style="fill:#1a1a1a;fill-opacity:1;stroke:none" />
      <path
         style="fill:#1a1a1a;fill-opacity:1;stroke:none"
         d="m 43.840021,-115.12471 c 21.979172,14.03905 26.188681,36.555938 26.188681,36.555938 0,0 -22.575699,-9.323113 -31.68111,-32.066618 -2.454371,-6.13049 12.137743,9.24476 12.137743,9.24476 0,0 -12.418484,-17.4217 -6.645314,-13.73408 z"
         id="path4329"
         inkscape:connector-curvature="0"
         sodipodi:nodetypes="scscs" />
      <path
         sodipodi:nodetypes="scscs"
         inkscape:connector-curvature="0"
         id="path4331"
         d="m 93.53749,-74.515476 c -0.842489,26.066617 -18.050048,41.187095 -18.050048,41.187095 0,0 -3.516516,-24.170549 11.385064,-43.615816 4.016763,-5.24148 -1.747754,15.157016 -1.747754,15.157016 0,0 8.634012,-19.575131 8.412738,-12.728295 z"
         style="fill:#1a1a1a;fill-opacity:1;stroke:none" />
      <path
         style="fill:#1a1a1a;fill-opacity:1;stroke:none"
         d="m 125.16152,-57.851142 c 21.51656,14.738172 25.00022,37.378672 25.00022,37.378672 0,0 -22.26436,-10.043824 -30.6341,-33.068279 -2.25604,-6.206223 11.83433,9.63003 11.83433,9.63003 0,0 -11.85214,-17.811746 -6.20045,-13.940422 z"
         id="path4333"
         inkscape:connector-curvature="0"
         sodipodi:nodetypes="scscs" />
      <path
         sodipodi:nodetypes="scscs"
         inkscape:connector-curvature="0"
         id="path4335"
         d="m 178.91876,-73.570768 c 22.75938,-12.735435 44.59254,-5.804236 44.59254,-5.804236 0,0 -18.88515,15.489777 -43.23173,12.766186 -6.56264,-0.734163 13.8833,-6.328027 13.8833,-6.328027 0,0 -21.22217,2.711236 -15.2441,-0.633926 z"
         style="fill:#1a1a1a;fill-opacity:1;stroke:none" />
      <path
         style="fill:#1a1a1a;fill-opacity:1;stroke:none"
         d="m 171.26491,-112.16122 c 21.80851,-14.30284 44.07467,-8.92257 44.07467,-8.92257 0,0 -17.75037,16.77822 -42.22814,15.77171 -6.59805,-0.27172 13.40443,-7.28764 13.40443,-7.28764 0,0 -20.97925,4.19532 -15.25096,0.4385 z"
         id="path4337"
         inkscape:connector-curvature="0"
         sodipodi:nodetypes="scscs" />
      <path
         sodipodi:nodetypes="scscs"
         inkscape:connector-curvature="0"
         id="path4339"
         d="m 184.35945,-134.5513 c 19.29632,17.54516 19.64769,40.44935 19.64769,40.44935 0,0 -20.67972,-12.99728 -25.81868,-36.95068 -1.3851,-6.45675 10.40463,11.15942 10.40463,11.15942 0,0 -9.30211,-19.26653 -4.23359,-14.65808 z"
         style="fill:#1a1a1a;fill-opacity:1;stroke:none" />
    </g>
    <path
       sodipodi:nodetypes="ccccc"
       inkscape:connector-curvature="0"
       id="path4343"
       d="m 72.191827,-41.748938 c -5.260596,16.478788 -11.721285,16.408061 1.332986,32.282551 17.950146,-20.139305 4.726783,-16.886937 3.799353,-32.095389 -2.12149,4.493968 -1.183088,9.629445 -3.305124,14.12323 -2.293467,-4.925862 0.466638,-9.384555 -1.826919,-14.310474 z"
       style="opacity:0.86000001;fill:#28220b;stroke:none" />
    <path
       style="opacity:0.86000001;fill:#28220b;stroke:none"
       d="M 72.962531,-90.597871 C 61.26046,-103.23181 62.988933,-106.54061 47.025286,-109.31152 c 11.319032,21.416546 12.16357,12.602765 24.460374,21.263182 -3.01313,-3.801996 -7.327511,-6.401984 -10.340678,-10.203691 4.498486,1.77139 7.318867,5.88296 11.81754,7.654202 z"
       id="path4345"
       inkscape:connector-curvature="0"
       sodipodi:nodetypes="ccccc" />
    <path
       sodipodi:nodetypes="ccccc"
       inkscape:connector-curvature="0"
       id="path4347"
       d="m 182.50792,-26.195431 c 16.30096,-6.030862 18.81612,-3.246068 27.29383,-16.765912 -24.51611,2.468168 -16.44017,6.462591 -29.17889,14.488398 4.71939,-1.352059 8.77169,-4.328397 13.49111,-5.680485 -3.33124,3.447532 -8.2749,4.510489 -11.60632,7.957682 z"
       style="opacity:0.86000001;fill:#28220b;stroke:none" />
    <path
       style="opacity:0.86000001;fill:#28220b;stroke:none"
       d="m 197.53287,-97.719531 c 16.03963,-6.667809 18.66748,-3.984629 26.58155,-17.827629 -24.39462,3.43223 -16.16092,7.10476 -28.5587,15.626088 4.6599,-1.536948 8.58612,-4.670848 13.24629,-6.207148 -3.18655,3.57595 -8.0825,4.83271 -11.26922,8.4084 z"
       id="path4349"
       inkscape:connector-curvature="0"
       sodipodi:nodetypes="ccccc" />
    <path
       sodipodi:nodetypes="ccccc"
       inkscape:connector-curvature="0"
       id="path4351"
       d="m 105.43847,-102.07865 c -17.298764,-2.07058 -18.203203,-5.67946 -32.13202,2.438033 22.880679,8.959353 17.627079,1.751297 32.71922,0.435605 -4.82113,-0.948228 -9.823091,-0.154932 -14.644281,-1.103118 4.58737,-1.5383 9.469791,-0.23207 14.057091,-1.77056 z"
       style="opacity:0.86000001;fill:#28220b;stroke:none" />
    <path
       style="opacity:0.86000001;fill:#28220b;stroke:none"
       d="m 169.40995,-7.2928223 c 9.32876,-14.4007447 13.04932,-13.6527907 11.52469,-29.4432597 -18.08385,16.380482 -9.1747,14.827715 -14.43026,28.7302568 2.94245,-3.8545238 4.35454,-8.6152668 7.29719,-12.4696218 -0.54617,4.713775 -3.84595,8.468668 -4.3917,13.1825643 z"
       id="path4353"
       inkscape:connector-curvature="0"
       sodipodi:nodetypes="ccccc" />
    <path
       sodipodi:nodetypes="ccccc"
       inkscape:connector-curvature="0"
       id="path4355"
       d="m 90.770179,-27.784747 c 10.762091,13.409921 8.79921,16.591241 24.523751,20.456384 -9.74716,-22.144058 -11.22485,-13.410417 -22.866691,-22.897563 2.73136,4.000458 6.84769,6.891392 9.579461,10.891663 -4.359761,-2.077432 -6.876401,-6.373635 -11.236491,-8.450551 z"
       style="opacity:0.86000001;fill:#28220b;stroke:none" />
    <path
       style="opacity:0.86000001;fill:#28220b;stroke:none"
       d="m 197.03626,-80.63957 c 17.00631,3.72664 17.54324,7.405074 32.22132,0.668449 -21.86794,-11.119386 -17.36522,-3.440433 -32.5165,-3.584535 4.70233,1.407841 9.75983,1.100333 14.46219,2.508078 -4.72,1.089012 -9.44718,-0.68096 -14.167,0.407912 z"
       id="path4357"
       inkscape:connector-curvature="0"
       sodipodi:nodetypes="ccccc" />
    <path
       sodipodi:nodetypes="ccccc"
       inkscape:connector-curvature="0"
       id="path4359"
       d="m 200.97024,-46.756818 c 10.20676,-13.819177 13.87397,-12.85129 13.3337,-28.70327 -19.06864,15.2744 -10.07947,14.254633 -16.18945,27.818668 3.1768,-3.67218 4.88205,-8.340155 8.05884,-12.012351 -0.83812,4.672577 -4.36497,8.224355 -5.20308,12.896943 z"
       style="opacity:0.86000001;fill:#28220b;stroke:none" />
    <path
       style="opacity:0.86000001;fill:#28220b;stroke:none"
       d="m 80.056052,-69.363589 c -9.652383,14.195345 -13.355097,13.366926 -12.188164,29.18659 18.450089,-15.984905 9.507837,-14.625567 15.076849,-28.410785 -3.029177,3.789784 -4.548406,8.518836 -7.577646,12.308506 0.652495,-4.700759 4.03643,-8.383408 4.688979,-13.084302 z"
       id="path4361"
       inkscape:connector-curvature="0"
       sodipodi:nodetypes="ccccc" />
    <path
       sodipodi:nodetypes="ccccc"
       inkscape:connector-curvature="0"
       id="path4363"
       d="m 183.72233,-109.81893 c -1.11312,-17.01419 2.34574,-18.54985 -8.3805,-30.4436 -4.77772,23.65268 1.49428,17.271 5.60199,31.53852 0.0628,-4.81038 -1.65804,-9.47296 -1.59494,-14.28336 2.39248,4.12651 1.98106,9.06192 4.37336,13.18847 z"
       style="opacity:0.86000001;fill:#28220b;stroke:none" />
    <path
       style="opacity:0.86000001;fill:#28220b;stroke:none"
       d="m 119.47124,-113.06388 c -13.01552,-12.14684 -11.47338,-15.36023 -28.165361,-17.93368 13.265811,20.64823 13.490191,12.11303 26.827671,20.41052 -3.39183,-3.65854 -8.03904,-6.14545 -11.43081,-9.80406 4.77665,1.68362 7.99194,5.64339 12.76854,7.3272 z"
       id="path4365"
       inkscape:connector-curvature="0"
       sodipodi:nodetypes="ccccc" />
    <path
       sodipodi:nodetypes="scscs"
       inkscape:connector-curvature="0"
       id="path4367"
       d="m 136.09657,-94.727117 c -7.81784,21.514762 1.57687,39.340719 1.57687,39.340719 0,0 10.82968,-18.575863 4.76986,-39.189176 -1.63415,-5.556146 -3.49785,12.91241 -3.49785,12.91241 0,0 -0.79544,-18.715206 -2.84897,-13.063936 z"
       style="opacity:0.86000001;fill:#28220b;fill-opacity:1;stroke:none" />
    <path
       style="opacity:0.86000001;fill:#28220b;fill-opacity:1;stroke:none"
       d="m 121.95755,-77.858393 c -20.26609,11.327978 -25.022071,30.836251 -25.022071,30.836251 0,0 20.591251,-7.178457 29.733671,-26.673603 2.46433,-5.255022 -11.25752,7.56018 -11.25752,7.56018 0,0 11.86916,-14.698387 6.54592,-11.722828 z"
       id="path4369"
       inkscape:connector-curvature="0"
       sodipodi:nodetypes="scscs" />
    <path
       sodipodi:nodetypes="scscs"
       inkscape:connector-curvature="0"
       id="path4371"
       d="m 184.21781,-99.986814 c -20.68792,10.573089 -26.19177,29.892273 -26.19177,29.892273 0,0 20.85301,-6.41439 30.73967,-25.558882 2.66502,-5.160337 -11.54039,7.140465 -11.54039,7.140465 0,0 12.42675,-14.250642 6.99272,-11.47348 z"
       style="opacity:0.86000001;fill:#28220b;fill-opacity:1;stroke:none" />
    <path
       style="opacity:0.86000001;fill:#28220b;fill-opacity:1;stroke:none"
       d="m 132.68611,-54.538899 c 2.94066,22.651767 19.54321,34.41725 19.54321,34.41725 0,0 1.10265,-21.357251 -13.80867,-37.082019 -4.01939,-4.238591 2.83074,13.06795 2.83074,13.06795 0,0 -9.33766,-16.353034 -8.56522,-10.403211 z"
       id="path4373"
       inkscape:connector-curvature="0"
       sodipodi:nodetypes="scscs" />
    <path
       sodipodi:nodetypes="scscs"
       inkscape:connector-curvature="0"
       id="path4375"
       d="m 146.4276,-128.2107 c -21.59824,8.6575 -28.90378,27.39631 -28.90378,27.39631 0,0 21.36973,-4.50165 33.02287,-22.67027 3.14127,-4.89722 -12.16595,6.06609 -12.16595,6.06609 0,0 13.71996,-13.06609 8.04686,-10.79213 z"
       style="opacity:0.86000001;fill:#28220b;fill-opacity:1;stroke:none" />
    <path
       style="opacity:0.86000001;fill:#28220b;fill-opacity:1;stroke:none"
       d="m 175.06089,-79.504173 c -13.51006,18.619949 -9.43126,38.274544 -9.43126,38.274544 0,0 15.59028,-14.989747 15.49607,-36.438409 -0.0254,-5.781557 -6.95922,11.493118 -6.95922,11.493118 0,0 4.44302,-18.220112 0.89441,-13.329261 z"
       id="path4377"
       inkscape:connector-curvature="0"
       sodipodi:nodetypes="scscs" />
    <path
       sodipodi:nodetypes="scscs"
       inkscape:connector-curvature="0"
       id="path4379"
       d="m 110.42288,-51.826082 c -22.094273,7.362661 -30.54584,25.634645 -30.54584,25.634645 0,0 21.60916,-3.22809 34.36495,-20.673404 3.43834,-4.70239 -12.51891,5.334655 -12.51891,5.334655 0,0 14.5032,-12.229817 8.6998,-10.295898 z"
       style="opacity:0.86000001;fill:#28220b;fill-opacity:1;stroke:none" />
    <path
       style="opacity:0.86000001;fill:#28220b;fill-opacity:1;stroke:none"
       d="m 104.71143,-96.75542 c -15.668583,-16.92414 -36.166596,-17.27087 -36.166596,-17.27087 0,0 11.596097,18.127643 33.024706,22.667682 5.77612,1.223728 -9.969181,-9.128452 -9.969181,-9.128452 0,0 17.226731,8.177097 13.111071,3.73164 z"
       id="path4381"
       inkscape:connector-curvature="0"
       sodipodi:nodetypes="scscs" />
    <path
       sodipodi:nodetypes="scscs"
       inkscape:connector-curvature="0"
       id="path4383"
       d="m 196.23639,-121.8732 c -21.6806,-8.4581 -40.24557,0.05 -40.24557,0.05 0,0 18.56416,11.29113 39.85014,6.14893 5.73769,-1.38602 -13.05724,-3.90893 -13.05724,-3.90893 0,0 19.14744,-0.0679 13.45267,-2.28971 z"
       style="opacity:0.86000001;fill:#28220b;fill-opacity:1;stroke:none" />
    <path
       style="opacity:0.86000001;fill:#28220b;fill-opacity:1;stroke:none"
       d="m 206.3274,-78.763931 c -19.6707,12.291432 -23.43808,32.005359 -23.43808,32.005359 0,0 20.20457,-8.162548 28.35363,-28.074882 2.19659,-5.36735 -10.86291,8.093948 -10.86291,8.093948 0,0 11.11417,-15.253001 5.94736,-12.024425 z"
       id="path4385"
       inkscape:connector-curvature="0"
       sodipodi:nodetypes="scscs" />
    <path
       sodipodi:nodetypes="scscs"
       inkscape:connector-curvature="0"
       id="path4387"
       d="m 161.84966,-43.209841 c 0.754,22.821776 16.15425,36.060017 16.15425,36.060017 0,0 3.14717,-21.161736 -10.18929,-38.186405 -3.59488,-4.589007 1.56419,13.270231 1.56419,13.270231 0,0 -7.72718,-17.138367 -7.52915,-11.143843 z"
       style="opacity:0.86000001;fill:#28220b;fill-opacity:1;stroke:none" />
    <path
       style="opacity:0.86000001;fill:#28220b;fill-opacity:1;stroke:none"
       d="m 133.54711,-28.619927 c -19.25667,12.903525 -22.37444,32.7256768 -22.37444,32.7256768 0,0 19.92593,-8.7935428 27.41659,-28.9518528 2.01909,-5.433656 -10.59137,8.431258 -10.59137,8.431258 0,0 10.60731,-15.594493 5.54922,-12.205081 z"
       id="path4389"
       inkscape:connector-curvature="0"
       sodipodi:nodetypes="scscs" />
    <path
       sodipodi:nodetypes="scscs"
       inkscape:connector-curvature="0"
       id="path4391"
       d="m 85.436002,-42.382733 c -20.368958,-11.150095 -39.908976,-5.08171 -39.908976,-5.08171 0,0 16.901638,13.561569 38.691092,11.177018 5.873361,-0.642772 -12.425134,-5.540297 -12.425134,-5.540297 0,0 18.993205,2.373734 13.643009,-0.555014 z"
       style="opacity:0.86000001;fill:#28220b;fill-opacity:1;stroke:none" />
    <path
       style="opacity:0.86000001;fill:#28220b;fill-opacity:1;stroke:none"
       d="m 92.285969,-76.169344 c -19.51796,-12.522385 -39.445501,-7.811866 -39.445501,-7.811866 0,0 15.886045,14.689624 37.792911,13.808407 5.90505,-0.237896 -11.996561,-6.380456 -11.996561,-6.380456 0,0 18.775791,3.673076 13.649151,0.383915 z"
       id="path4393"
       inkscape:connector-curvature="0"
       sodipodi:nodetypes="scscs" />
    <path
       sodipodi:nodetypes="scscs"
       inkscape:connector-curvature="0"
       id="path4395"
       d="M 80.566749,-95.772249 C 63.297125,-80.411156 62.98266,-60.35814 62.98266,-60.35814 c 0,0 18.507725,-11.379344 23.106939,-32.350962 1.239622,-5.652997 -9.31183,9.770266 -9.31183,9.770266 0,0 8.325107,-16.868182 3.788935,-12.833404 z"
       style="opacity:0.86000001;fill:#28220b;fill-opacity:1;stroke:none" />
    <path
       style="opacity:0.86000001;fill:#112b00;stroke:none;display:inline"
       d="m 34.126559,-93.024993 c -6.272156,-20.084037 -13.975167,-19.997777 1.589297,-39.345297 21.401764,24.54532 5.635688,20.58148 4.529928,39.117192 -2.529426,-5.477159 -1.410577,-11.736172 -3.940666,-17.213092 -2.734474,6.00357 0.556369,11.437683 -2.178216,17.441299 z"
       id="path4399"
       inkscape:connector-curvature="0"
       sodipodi:nodetypes="ccccc" />
    <path
       sodipodi:nodetypes="ccccc"
       inkscape:connector-curvature="0"
       id="path4401"
       d="m 55.037236,-45.171557 c -13.300724,14.678955 -11.336119,18.523324 -29.480605,21.74276 12.865356,-24.883165 13.825271,-14.642729 27.801976,-24.704976 -3.424764,4.417412 -8.328545,7.438248 -11.753345,11.855325 5.11303,-2.05812 8.318716,-6.835212 13.431964,-8.893159 z"
       style="opacity:0.86000001;fill:#112b00;stroke:none;display:inline" />
    <path
       style="opacity:0.86000001;fill:#112b00;stroke:none;display:inline"
       d="m 172.3558,-121.87558 c 17.98793,6.80291 20.76332,3.66155 30.11834,18.912 -27.05318,-2.78413 -18.14148,-7.28988 -32.19852,-16.34295 5.20782,1.52508 9.67944,4.88242 14.88728,6.40757 -3.676,-3.88881 -9.13126,-5.08778 -12.80743,-8.97625 z"
       id="path4403"
       inkscape:connector-curvature="0"
       sodipodi:nodetypes="ccccc" />
    <path
       sodipodi:nodetypes="ccccc"
       inkscape:connector-curvature="0"
       id="path4405"
       d="m 174.34057,-30.33278 c 17.92198,7.61585 20.85822,4.55117 29.70106,20.36239 -27.25748,-3.92023 -18.0575,-8.11493 -31.91023,-17.84783 5.20676,1.75547 9.59375,5.33496 14.80081,7.08969 -3.56051,-4.08438 -9.03103,-5.51983 -12.59173,-9.60392 z"
       style="opacity:0.86000001;fill:#112b00;stroke:none;display:inline" />
    <path
       style="opacity:0.86000001;fill:#112b00;stroke:none;display:inline"
       d="m 71.43833,-25.35387 c -19.32888,2.36498 -20.33946,6.48697 -35.90291,-2.78468 25.56587,-10.23321 19.69572,-2.0003 36.55902,-0.49754 -5.38692,1.08305 -10.97589,0.17696 -16.36287,1.25996 5.12572,1.75702 10.58112,0.26507 15.70677,2.0223 z"
       id="path4407"
       inkscape:connector-curvature="0"
       sodipodi:nodetypes="ccccc" />
    <path
       sodipodi:nodetypes="ccccc"
       inkscape:connector-curvature="0"
       id="path4409"
       d="m 142.99095,-133.36906 c 10.27005,16.2062 14.36596,15.36439 12.68753,33.13463 -19.90863,-18.43415 -10.10051,-16.6867 -15.88645,-32.33223 3.23937,4.33777 4.79391,9.69542 8.03362,14.03292 -0.60123,-5.30476 -4.23409,-9.53024 -4.83481,-14.83522 z"
       style="opacity:0.86000001;fill:#112b00;stroke:none;display:inline" />
    <path
       style="opacity:0.86000001;fill:#112b00;stroke:none;display:inline"
       d="m 55.04862,-110.21102 c 12.02509,-15.31656 9.83186,-18.95021 27.40177,-23.3649 -10.89105,25.29254 -12.54216,15.31713 -25.55024,26.15318 3.0519,-4.56926 7.65131,-7.87123 10.70367,-12.44027 -4.8714,2.37281 -7.68339,7.27985 -12.55516,9.65207 z"
       id="path4411"
       inkscape:connector-curvature="0"
       sodipodi:nodetypes="ccccc" />
    <path
       sodipodi:nodetypes="ccccc"
       inkscape:connector-curvature="0"
       id="path4413"
       d="m 173.78568,-49.8412 c 19.0021,-4.2565 19.60204,-8.45794 36.00269,-0.76349 -24.43428,12.70036 -19.40314,3.9296 -36.33251,4.09419 5.25418,-1.60801 10.90521,-1.25678 16.15941,-2.86468 -5.27391,-1.24385 -10.55585,0.77778 -15.82958,-0.46591 z"
       style="opacity:0.86000001;fill:#112b00;stroke:none;display:inline" />
    <path
       style="opacity:0.86000001;fill:#112b00;stroke:none;display:inline"
       d="m 178.18134,-88.541462 c 11.40459,15.784012 15.50216,14.67851 14.89849,32.784352 -21.30646,-17.446141 -11.26236,-16.281382 -18.08938,-31.773975 3.54961,4.194296 5.45499,9.525973 9.00459,13.720288 -0.93647,-5.336933 -4.87722,-9.393709 -5.81369,-14.730653 z"
       id="path4415"
       inkscape:connector-curvature="0"
       sodipodi:nodetypes="ccccc" />
    <path
       sodipodi:nodetypes="ccccc"
       inkscape:connector-curvature="0"
       id="path4417"
       d="m 43.07713,-62.72042 c -10.78515,-16.213664 -14.9224,-15.267459 -13.61852,-33.336391 20.61532,18.257667 10.62364,16.705056 16.84621,32.450281 -3.38467,-4.328623 -5.08219,-9.73006 -8.46693,-14.058552 0.72907,5.369122 4.51013,9.575376 5.23926,14.944652 z"
       style="opacity:0.86000001;fill:#112b00;stroke:none;display:inline" />
    <path
       style="opacity:0.86000001;fill:#112b00;stroke:none;display:inline"
       d="m 158.90928,-16.51307 c -1.24376,19.4333 2.62103,21.18731 -9.364,34.77213 -5.33842,-27.01566 1.66964,-19.72662 6.25941,-36.02273 0.0702,5.49433 -1.85262,10.81985 -1.78211,16.3142 2.67326,-4.71322 2.21355,-10.35036 4.8866,-15.06363 z"
       id="path4419"
       inkscape:connector-curvature="0"
       sodipodi:nodetypes="ccccc" />
    <path
       sodipodi:nodetypes="ccccc"
       inkscape:connector-curvature="0"
       id="path4421"
       d="M 87.11793,-12.80674 C 72.57496,1.06716 74.29808,4.73743 55.64719,7.67678 70.46983,-15.90725 70.72054,-6.1585 85.62325,-15.63575 c -3.78988,4.17872 -8.98247,7.01923 -12.77228,11.19802 5.33722,-1.923 8.92984,-6.44577 14.26701,-8.36899 z"
       style="opacity:0.86000001;fill:#112b00;stroke:none;display:inline" />
    <path
       style="opacity:0.86000001;fill:#112b00;fill-opacity:1;stroke:none;display:inline"
       d="m 105.69434,-33.75066 c -8.73531,-24.57377 1.76193,-44.934253 1.76193,-44.934253 0,0 12.10061,21.217013 5.32963,44.761163 -1.82592,6.34613 -3.90834,-14.74832 -3.90834,-14.74832 0,0 -0.88879,21.37617 -3.18331,14.92139 z"
       id="path4423"
       inkscape:connector-curvature="0"
       sodipodi:nodetypes="scscs" />
    <path
       sodipodi:nodetypes="scscs"
       inkscape:connector-curvature="0"
       id="path4425"
       d="M 89.89602,-53.01781 C 67.25158,-65.95642 61.93746,-88.238414 61.93746,-88.238414 c 0,0 23.00776,8.199103 33.2231,30.466104 2.75353,6.00219 -12.57866,-8.6351 -12.57866,-8.6351 0,0 13.26208,16.78823 7.31412,13.3896 z"
       style="opacity:0.86000001;fill:#112b00;fill-opacity:1;stroke:none;display:inline" />
    <path
       style="opacity:0.86000001;fill:#112b00;fill-opacity:1;stroke:none;display:inline"
       d="m 159.46291,-27.74313 c -23.11577,-12.07639 -29.26554,-34.14241 -29.26554,-34.14241 0,0 23.30024,7.3264 34.34716,29.19289 2.97778,5.89404 -12.89472,-8.15571 -12.89472,-8.15571 0,0 13.88511,16.27682 7.81336,13.1048 z"
       id="path4427"
       inkscape:connector-curvature="0"
       sodipodi:nodetypes="scscs" />
    <path
       sodipodi:nodetypes="scscs"
       inkscape:connector-curvature="0"
       id="path4429"
       d="m 101.88365,-79.652911 c 3.28576,-25.872439 21.83672,-39.310759 21.83672,-39.310759 0,0 1.23205,24.393866 -15.4292,42.35441 -4.49109,4.841241 3.16295,-14.925975 3.16295,-14.925975 0,0 -10.4335,18.678138 -9.57041,11.882359 z"
       style="opacity:0.86000001;fill:#112b00;fill-opacity:1;stroke:none;display:inline" />
    <path
       style="opacity:0.86000001;fill:#112b00;fill-opacity:1;stroke:none;display:inline"
       d="M 117.23778,4.49368 C 93.10486,-5.39476 84.94197,-26.79789 84.94197,-26.79789 c 0,0 23.8776,5.1417 36.89831,25.89357 3.50991,5.59352 -13.5937,-6.92858 -13.5937,-6.92858 0,0 15.33008,14.92385 8.9912,12.32658 z"
       id="path4431"
       inkscape:connector-curvature="0"
       sodipodi:nodetypes="scscs" />
    <path
       sodipodi:nodetypes="scscs"
       inkscape:connector-curvature="0"
       id="path4433"
       d="m 148.71491,-56.149172 c -11.55772,-16.283092 -8.06837,-33.470981 -8.06837,-33.470981 0,0 13.33737,13.10849 13.25678,31.865289 -0.021,5.055957 -5.95353,-10.050706 -5.95353,-10.050706 0,0 3.80097,15.933427 0.76511,11.656402 z"
       style="opacity:0.86000001;fill:#112b00;fill-opacity:1;stroke:none;display:inline" />
    <path
       style="opacity:0.86000001;fill:#112b00;fill-opacity:1;stroke:none;display:inline"
       d="m 77.00769,-82.751441 c -24.68717,-8.409497 -34.13058,-29.279419 -34.13058,-29.279419 0,0 24.14513,3.68706 38.39789,23.61278 3.84185,5.370984 -13.98809,-6.093146 -13.98809,-6.093146 0,0 16.20524,13.968675 9.72078,11.759787 z"
       id="path4435"
       inkscape:connector-curvature="0"
       sodipodi:nodetypes="scscs" />
    <path
       sodipodi:nodetypes="scscs"
       inkscape:connector-curvature="0"
       id="path4437"
       d="m 72.554941,-32.08735 c -19.208666,21.208883 -44.337896,21.643397 -44.337896,21.643397 0,0 14.21606,-22.717081 40.486144,-28.40654 7.081142,-1.533541 -12.221574,11.439532 -12.221574,11.439532 0,0 21.118861,-10.247316 16.073326,-4.676389 z"
       style="opacity:0.86000001;fill:#112b00;fill-opacity:1;stroke:none;display:inline" />
    <path
       style="opacity:0.86000001;fill:#112b00;fill-opacity:1;stroke:none;display:inline"
       d="m 172.89195,-2.7449 c -24.22496,9.66069 -44.96864,-0.0571 -44.96864,-0.0571 0,0 20.74278,-12.89652 44.5268,-7.02319 6.41104,1.58308 -14.58959,4.46471 -14.58959,4.46471 0,0 21.39451,0.0776 15.03142,2.61526 z"
       id="path4439"
       inkscape:connector-curvature="0"
       sodipodi:nodetypes="scscs" />
    <path
       sodipodi:nodetypes="scscs"
       inkscape:connector-curvature="0"
       id="path4441"
       d="m 184.16719,-51.98352 c -21.97917,-14.03905 -26.18868,-36.555938 -26.18868,-36.555938 0,0 22.5757,9.323113 31.68111,32.066618 2.45437,6.13049 -12.13775,-9.24476 -12.13775,-9.24476 0,0 12.41849,17.4217 6.64532,13.73408 z"
       style="opacity:0.86000001;fill:#112b00;fill-opacity:1;stroke:none;display:inline" />
    <path
       style="opacity:0.86000001;fill:#112b00;fill-opacity:1;stroke:none;display:inline"
       d="m 134.46972,-92.592754 c 0.84249,-26.066616 18.05005,-41.187096 18.05005,-41.187096 0,0 3.51651,24.17055 -11.38507,43.615817 -4.01676,5.24148 1.74776,-15.157017 1.74776,-15.157017 0,0 -8.63401,19.575132 -8.41274,12.728296 z"
       id="path4443"
       inkscape:connector-curvature="0"
       sodipodi:nodetypes="scscs" />
    <path
       sodipodi:nodetypes="scscs"
       inkscape:connector-curvature="0"
       id="path4445"
       d="m 102.84569,-109.25709 c -21.51656,-14.73817 -25.00022,-37.37867 -25.00022,-37.37867 0,0 22.26436,10.04382 30.6341,33.06828 2.25604,6.20622 -11.83433,-9.63003 -11.83433,-9.63003 0,0 11.85214,17.81175 6.20045,13.94042 z"
       style="opacity:0.86000001;fill:#112b00;fill-opacity:1;stroke:none;display:inline" />
    <path
       style="opacity:0.86000001;fill:#112b00;fill-opacity:1;stroke:none;display:inline"
       d="m 49.08845,-93.537462 c -22.75938,12.735435 -44.59254,5.804236 -44.59254,5.804236 0,0 18.88515,-15.489774 43.23173,-12.766184 6.56264,0.734161 -13.8833,6.328025 -13.8833,6.328025 0,0 21.22217,-2.711236 15.2441,0.633926 z"
       id="path4447"
       inkscape:connector-curvature="0"
       sodipodi:nodetypes="scscs" />
    <path
       sodipodi:nodetypes="scscs"
       inkscape:connector-curvature="0"
       id="path4449"
       d="m 56.7423,-54.94701 c -21.80851,14.30284 -44.07467,8.92257 -44.07467,8.92257 0,0 17.75037,-16.77822 42.22814,-15.77171 6.59805,0.27172 -13.40443,7.28764 -13.40443,7.28764 0,0 20.97925,-4.19532 15.25096,-0.4385 z"
       style="opacity:0.86000001;fill:#112b00;fill-opacity:1;stroke:none;display:inline" />
    <path
       style="opacity:0.86000001;fill:#112b00;fill-opacity:1;stroke:none;display:inline"
       d="M 43.64776,-32.55693 C 24.35144,-50.10209 24.00007,-73.00628 24.00007,-73.00628 c 0,0 20.67972,12.99728 25.81868,36.95068 1.3851,6.45675 -10.40463,-11.15942 -10.40463,-11.15942 0,0 9.30211,19.26653 4.23359,14.65808 z"
       id="path4451"
       inkscape:connector-curvature="0"
       sodipodi:nodetypes="scscs" />
    <g
       style="opacity:0.86000001"
       transform="matrix(0,1,-1,0,23.249859,-207.8429)"
       id="g4453">
      <path
         style="fill:#000000;stroke:#000000;stroke-width:1.06185353px;stroke-linecap:butt;stroke-linejoin:miter;stroke-opacity:1"
         d="m 194.04609,-75.335011 c 6.67132,21.361958 14.86446,21.270265 -1.69036,41.848858 -22.7636,-26.107197 -5.99434,-21.891052 -4.81822,-41.60624 2.69041,5.825674 1.5004,12.482949 4.19141,18.308383 2.90849,-6.385547 -0.5918,-12.165484 2.31681,-18.551107 z"
         id="path4455"
         inkscape:connector-curvature="0"
         sodipodi:nodetypes="ccccc" />
      <path
         sodipodi:nodetypes="ccccc"
         inkscape:connector-curvature="0"
         id="path4457"
         d="m 192.90362,-128.6715 c 13.03249,-14.38291 11.10746,-18.14971 28.88604,-21.30423 -12.60587,24.38126 -13.54641,14.34738 -27.24121,24.20666 3.35567,-4.32833 8.16054,-7.28824 11.51626,-11.61622 -5.00994,2.01663 -8.15096,6.69734 -13.16108,8.71384 z"
         style="fill:#000000;stroke:#000000;stroke-width:0.702061px;stroke-linecap:butt;stroke-linejoin:miter;stroke-opacity:1" />
      <path
         style="fill:#000000;stroke:#000000;stroke-width:0.71075231px;stroke-linecap:butt;stroke-linejoin:miter;stroke-opacity:1"
         d="m 55.956203,-45.027077 c -18.378921,-6.95073 -21.214708,-3.74118 -30.77312,-19.323153 27.641318,2.844634 18.5359,7.448308 32.898488,16.698251 -5.321019,-1.558273 -9.889868,-4.988583 -15.210905,-6.546897 3.755895,3.973367 9.329755,5.198457 13.085853,9.171436 z"
         id="path4459"
         inkscape:connector-curvature="0"
         sodipodi:nodetypes="ccccc" />
      <path
         sodipodi:nodetypes="ccccc"
         inkscape:connector-curvature="0"
         id="path4461"
         d="m 54.159717,-136.41026 c -18.564851,-7.88903 -21.606421,-4.71443 -30.766461,-21.09277 28.235233,4.06081 18.705237,8.40596 33.054877,18.48805 -5.393536,-1.81844 -9.937877,-5.52637 -15.331725,-7.34404 3.68822,4.23092 9.354973,5.71781 13.0434,9.94841 z"
         style="fill:#000000;stroke:#000000;stroke-width:0.72963971px;stroke-linecap:butt;stroke-linejoin:miter;stroke-opacity:1" />
      <path
         style="fill:#000000;stroke:#000000;stroke-width:0.65799093px;stroke-linecap:butt;stroke-linejoin:miter;stroke-opacity:1"
         d="m 157.72935,-141.59471 c 18.05613,-2.20919 19.00011,-6.05972 33.53873,2.6014 -23.88239,9.55929 -18.39874,1.86853 -34.1516,0.46477 5.03224,-1.01177 10.25315,-0.16533 15.28537,-1.17703 -4.78814,-1.64133 -9.88435,-0.24765 -14.67251,-1.88916 z"
         id="path4463"
         inkscape:connector-curvature="0"
         sodipodi:nodetypes="ccccc" />
      <path
         sodipodi:nodetypes="ccccc"
         inkscape:connector-curvature="0"
         id="path4465"
         d="M 85.164962,-33.239478 C 74.585056,-49.934473 70.36551,-49.067359 72.094611,-67.373499 c 20.509209,18.990142 10.405191,17.190004 16.365607,33.307417 -3.337088,-4.468606 -4.938553,-9.987811 -8.275871,-14.456216 0.619433,5.464757 4.361755,9.817851 4.980702,15.282746 z"
         style="fill:#000000;stroke:#000000;stroke-width:0.71493906px;stroke-linecap:butt;stroke-linejoin:miter;stroke-opacity:1" />
      <path
         style="fill:#000000;stroke:#000000;stroke-width:0.78427482px;stroke-linecap:butt;stroke-linejoin:miter;stroke-opacity:1"
         d="m 174.51275,-58.064285 c -13.38912,17.054026 -10.94709,21.099866 -30.51009,26.015347 12.12648,-28.161648 13.96493,-17.05466 28.44857,-29.119914 -3.3981,5.087569 -8.51931,8.764108 -11.91786,13.851444 5.42401,-2.641963 8.55497,-8.105654 13.97933,-10.746962 z"
         id="path4467"
         inkscape:connector-curvature="0"
         sodipodi:nodetypes="ccccc" />
      <path
         sodipodi:nodetypes="ccccc"
         inkscape:connector-curvature="0"
         id="path4469"
         d="m 56.252683,-117.20526 c -21.166002,4.74118 -21.834258,9.42102 -40.102561,0.8504 27.216775,-14.14673 21.612705,-4.37713 40.469945,-4.56048 -5.852504,1.79115 -12.14706,1.39995 -17.999598,3.1909 5.874489,1.38559 11.757933,-0.86629 17.632211,0.51906 z"
         style="fill:#000000;stroke:#000000;stroke-width:0.78458542px;stroke-linecap:butt;stroke-linejoin:miter;stroke-opacity:1" />
      <path
         style="fill:#000000;stroke:#000000;stroke-width:0.78562391px;stroke-linecap:butt;stroke-linejoin:miter;stroke-opacity:1"
         d="M 50.504432,-76.675915 C 37.784306,-94.280627 33.21407,-93.047612 33.887378,-113.24192 c 23.764178,19.45852 12.561481,18.1594 20.176008,35.439088 -3.959061,-4.678119 -6.084222,-10.624817 -10.04328,-15.302955 1.044487,5.952563 5.439813,10.477288 6.48431,16.429857 z"
         id="path4471"
         inkscape:connector-curvature="0"
         sodipodi:nodetypes="ccccc" />
      <path
         sodipodi:nodetypes="ccccc"
         inkscape:connector-curvature="0"
         id="path4473"
         d="m 184.85412,-104.62618 c 10.93939,16.445535 15.13584,15.485797 13.81332,33.813132 -20.91018,-18.51877 -10.7756,-16.943951 -17.08718,-32.914312 3.43314,4.390487 5.15492,9.869178 8.58805,14.259566 -0.73953,-5.445908 -4.57465,-9.712318 -5.31421,-15.158376 z"
         style="fill:#000000;stroke:#000000;stroke-width:0.71444631px;stroke-linecap:butt;stroke-linejoin:miter;stroke-opacity:1" />
      <path
         style="fill:#000000;stroke:#000000;stroke-width:0.68381685px;stroke-linecap:butt;stroke-linejoin:miter;stroke-opacity:1"
         d="m 69.262593,-151.08429 c 1.207452,-18.86618 -2.544539,-20.56899 9.09072,-33.75737 5.182614,26.22719 -1.62092,19.15093 -6.07674,34.97147 -0.06806,-5.334 1.798558,-10.50409 1.730094,-15.83816 -2.59523,4.57573 -2.148933,10.04834 -4.743984,14.62408 z"
         id="path4475"
         inkscape:connector-curvature="0"
         sodipodi:nodetypes="ccccc" />
      <path
         sodipodi:nodetypes="ccccc"
         inkscape:connector-curvature="0"
         id="path4477"
         d="m 139.89198,-153.74205 c 15.46473,-14.75312 13.63239,-18.65606 33.46535,-21.78171 -15.7621,25.07872 -16.02864,14.71216 -31.87596,24.79003 4.03022,-4.44359 9.55181,-7.46418 13.58181,-11.90771 -5.6755,2.04488 -9.49581,6.85431 -15.17126,8.89937 z"
         style="fill:#000000;stroke:#000000;stroke-width:0.74901432px;stroke-linecap:butt;stroke-linejoin:miter;stroke-opacity:1" />
      <path
         style="fill:#1a1a1a;fill-opacity:1;stroke:none"
         d="m 121.7001,-128.63882 c 6.84966,19.26924 -1.3816,35.234649 -1.3816,35.234649 0,0 -9.48841,-16.637139 -4.1792,-35.098999 1.43173,-4.9762 3.06481,11.5648 3.06481,11.5648 0,0 0.69685,-16.76195 2.49604,-11.70043 z"
         id="path4479"
         inkscape:connector-curvature="0"
         sodipodi:nodetypes="scscs" />
      <path
         sodipodi:nodetypes="scscs"
         inkscape:connector-curvature="0"
         id="path4481"
         d="m 140.71558,-110.04159 c 17.37017,9.92502 21.44647,27.017159 21.44647,27.017159 0,0 -17.64881,-6.289403 -25.48478,-23.370089 -2.11218,-4.60411 9.64884,6.623878 9.64884,6.623878 0,0 -10.17315,-12.877928 -5.61053,-10.270948 z"
         style="fill:#1a1a1a;fill-opacity:1;stroke:none" />
      <path
         style="fill:#1a1a1a;fill-opacity:1;stroke:none"
         d="m 67.97576,-140.17052 c 24.219618,12.65314 30.663057,35.7728 30.663057,35.7728 0,0 -24.412909,-7.67624 -35.987337,-30.58695 -3.119984,-6.17548 13.510476,8.54521 13.510476,8.54521 0,0 -14.548163,-17.05416 -8.186476,-13.73063 z"
         id="path4483"
         inkscape:connector-curvature="0"
         sodipodi:nodetypes="scscs" />
      <path
         sodipodi:nodetypes="scscs"
         inkscape:connector-curvature="0"
         id="path4485"
         d="m 113.60763,-78.112159 c 5.45602,9.875159 2.40669,19.303706 2.40669,19.303706 0,0 -6.65659,-8.205638 -5.42152,-18.731339 0.33296,-2.837187 2.70497,6.020542 2.70497,6.020542 0,0 -1.12335,-9.186773 0.30983,-6.592909 z"
         style="fill:#1a1a1a;fill-opacity:1;stroke:none" />
      <path
         style="fill:#1a1a1a;fill-opacity:1;stroke:none"
         d="m 110.97839,-171.36408 c 23.76235,9.73671 31.79998,30.81124 31.79998,30.81124 0,0 -23.51102,-5.06275 -36.33189,-25.49613 -3.4559,-5.50759 13.38503,6.82231 13.38503,6.82231 0,0 -15.09469,-14.69472 -8.85312,-12.13742 z"
         id="path4487"
         inkscape:connector-curvature="0"
         sodipodi:nodetypes="scscs" />
      <path
         sodipodi:nodetypes="scscs"
         inkscape:connector-curvature="0"
         id="path4489"
         d="m 78.717646,-116.53467 c 15.494134,21.828793 10.816333,44.870633 10.816333,44.870633 0,0 -17.879844,-17.573057 -17.771788,-42.718083 0.02913,-6.77794 7.981231,13.47379 7.981231,13.47379 0,0 -5.095517,-21.36013 -1.025765,-15.62634 z"
         style="fill:#1a1a1a;fill-opacity:1;stroke:none" />
      <path
         style="fill:#1a1a1a;fill-opacity:1;stroke:none"
         d="m 150.85394,-84.501032 c 24.93239,8.493036 34.46946,29.570261 34.46946,29.570261 0,0 -24.38484,-3.723685 -38.77923,-23.847334 -3.87995,-5.424338 14.12709,6.153668 14.12709,6.153668 0,0 -16.36622,-14.107427 -9.81732,-11.876597 z"
         id="path4491"
         inkscape:connector-curvature="0"
         sodipodi:nodetypes="scscs" />
      <path
         sodipodi:nodetypes="scscs"
         inkscape:connector-curvature="0"
         id="path4493"
         d="m 158.31781,-135.99147 c 16.68143,-18.41844 38.50432,-18.79576 38.50432,-18.79576 0,0 -12.34561,19.72816 -35.15941,24.66904 -6.14939,1.33185 10.61369,-9.93441 10.61369,-9.93441 0,0 -18.34032,8.89909 -13.9586,4.06113 z"
         style="fill:#1a1a1a;fill-opacity:1;stroke:none" />
      <path
         style="fill:#1a1a1a;fill-opacity:1;stroke:none"
         d="m 55.631729,-164.31218 c 23.653476,-9.43279 43.907842,0.0551 43.907842,0.0551 0,0 -20.25348,12.59227 -43.476427,6.85751 -6.259807,-1.54568 14.245418,-4.35932 14.245418,-4.35932 0,0 -20.889814,-0.0755 -14.676827,-2.55363 z"
         id="path4495"
         inkscape:connector-curvature="0"
         sodipodi:nodetypes="scscs" />
      <path
         sodipodi:nodetypes="scscs"
         inkscape:connector-curvature="0"
         id="path4497"
         d="m 42.531386,-117.43484 c 24.796554,15.83868 29.545657,41.241864 29.545657,41.241864 0,0 -25.469543,-10.518192 -35.74212,-36.177034 -2.768992,-6.91627 13.693594,10.42975 13.693594,10.42975 0,0 -14.010329,-19.6548 -7.497131,-15.49458 z"
         style="fill:#1a1a1a;fill-opacity:1;stroke:none" />
      <path
         style="fill:#1a1a1a;fill-opacity:1;stroke:none"
         d="m 93.598216,-74.640488 c -0.848053,26.238587 -18.169136,41.458833 -18.169136,41.458833 0,0 -3.539712,-24.33002 11.460177,-43.903583 4.043266,-5.276057 -1.75929,15.257016 -1.75929,15.257016 0,0 8.69097,-19.704277 8.468249,-12.812266 z"
         id="path4499"
         inkscape:connector-curvature="0"
         sodipodi:nodetypes="scscs" />
      <path
         sodipodi:nodetypes="scscs"
         inkscape:connector-curvature="0"
         id="path4501"
         d="m 124.37578,-59.364421 c 23.28477,15.949368 27.05479,40.450483 27.05479,40.450483 0,0 -24.09403,-10.869238 -33.15167,-35.785856 -2.44144,-6.71626 12.80687,10.421432 12.80687,10.421432 0,0 -12.82607,-19.27554 -6.70999,-15.086058 z"
         style="fill:#1a1a1a;fill-opacity:1;stroke:none" />
      <path
         style="fill:#1a1a1a;fill-opacity:1;stroke:none"
         d="m 176.62923,-73.549534 c 25.15348,-14.075116 49.28333,-6.414798 49.28333,-6.414798 0,0 -20.87176,17.119196 -47.77943,14.1091 -7.25298,-0.811386 15.34372,-6.99369 15.34372,-6.99369 0,0 -23.45458,2.996441 -16.84761,-0.700616 z"
         id="path4503"
         inkscape:connector-curvature="0"
         sodipodi:nodetypes="scscs" />
      <path
         sodipodi:nodetypes="scscs"
         inkscape:connector-curvature="0"
         id="path4505"
         d="m 172.63249,-112.25717 c 20.42404,-13.39479 41.27659,-8.35614 41.27659,-8.35614 0,0 -16.6235,15.71312 -39.54727,14.77052 -6.17911,-0.25452 12.55348,-6.82504 12.55348,-6.82504 0,0 -19.64735,3.929 -14.2828,0.41066 z"
         style="fill:#1a1a1a;fill-opacity:1;stroke:none" />
      <path
         style="fill:#1a1a1a;fill-opacity:1;stroke:none"
         d="m 184.8385,-133.12681 c 17.91281,16.28721 18.23909,37.549357 18.23909,37.549357 0,0 -19.19709,-12.065407 -23.96769,-34.301557 -1.28579,-5.99385 9.65867,10.35937 9.65867,10.35937 0,0 -8.63519,-17.88526 -3.93003,-13.60716 z"
         id="path4507"
         inkscape:connector-curvature="0"
         sodipodi:nodetypes="scscs" />
    </g>
  </g>
</svg>
