<?xml version="1.0" encoding="UTF-8" standalone="no"?>
<!-- Created with Inkscape (http://www.inkscape.org/) -->

<svg
   xmlns:dc="http://purl.org/dc/elements/1.1/"
   xmlns:cc="http://creativecommons.org/ns#"
   xmlns:rdf="http://www.w3.org/1999/02/22-rdf-syntax-ns#"
   xmlns:svg="http://www.w3.org/2000/svg"
   xmlns="http://www.w3.org/2000/svg"
   xmlns:xlink="http://www.w3.org/1999/xlink"
   xmlns:sodipodi="http://sodipodi.sourceforge.net/DTD/sodipodi-0.dtd"
   xmlns:inkscape="http://www.inkscape.org/namespaces/inkscape"
   width="1024"
   height="272"
   id="svg6789"
   version="1.1"
   inkscape:version="0.48.4 r9939"
   sodipodi:docname="home.svg">
  <defs
     id="defs6791">
    <linearGradient
       id="linearGradient7696">
      <stop
         style="stop-color:#060534;stop-opacity:1;"
         offset="0"
         id="stop7698" />
      <stop
         style="stop-color:#3a363a;stop-opacity:1;"
         offset="1"
         id="stop7700" />
    </linearGradient>
    <inkscape:path-effect
       effect="interpolate"
       id="path-effect7614"
       is_visible="true"
       trajectory="m -37.949681,-496 0,0"
       equidistant_spacing="true"
       steps="5" />
    <linearGradient
       inkscape:collect="always"
       id="linearGradient7605">
      <stop
         style="stop-color:#000000;stop-opacity:1;"
         offset="0"
         id="stop7607" />
      <stop
         style="stop-color:#000000;stop-opacity:0;"
         offset="1"
         id="stop7609" />
    </linearGradient>
    <linearGradient
       inkscape:collect="always"
       id="linearGradient7571">
      <stop
         style="stop-color:#f9f9f9;stop-opacity:0.19907407"
         offset="0"
         id="stop7573" />
      <stop
         style="stop-color:#ffffff;stop-opacity:0.68518519"
         offset="1"
         id="stop7575" />
    </linearGradient>
    <filter
       inkscape:collect="always"
       id="filter7422"
       x="-0.36175383"
       width="1.7235077"
       y="-0.40996952"
       height="1.819939">
      <feGaussianBlur
         inkscape:collect="always"
         stdDeviation="2.8967037"
         id="feGaussianBlur7424" />
    </filter>
    <linearGradient
       inkscape:collect="always"
       xlink:href="#linearGradient7571"
       id="linearGradient7577"
       x1="751.77228"
       y1="250.29756"
       x2="795.17712"
       y2="151.33447"
       gradientUnits="userSpaceOnUse" />
    <linearGradient
       inkscape:collect="always"
       xlink:href="#linearGradient7571"
       id="linearGradient7581"
       gradientUnits="userSpaceOnUse"
       x1="751.77228"
       y1="250.29756"
       x2="795.17712"
       y2="151.33447" />
    <filter
       inkscape:collect="always"
       id="filter7601">
      <feGaussianBlur
         inkscape:collect="always"
         stdDeviation="1.4394173"
         id="feGaussianBlur7603" />
    </filter>
    <linearGradient
       inkscape:collect="always"
       xlink:href="#linearGradient7605"
       id="linearGradient7611"
       x1="752.25787"
       y1="258.80249"
       x2="794.61261"
       y2="175.01367"
       gradientUnits="userSpaceOnUse" />
    <linearGradient
       inkscape:collect="always"
       xlink:href="#linearGradient7696"
       id="linearGradient7702"
       x1="531.27557"
       y1="-64.821762"
       x2="536.48413"
       y2="280.68097"
       gradientUnits="userSpaceOnUse"
       gradientTransform="matrix(0.99662162,0,0,0.80927835,3.4606582,52.744384)" />
    <filter
       inkscape:collect="always"
       id="filter7863"
       x="-0.13010751"
       width="1.260215"
       y="-0.10230843"
       height="1.2046169">
      <feGaussianBlur
         inkscape:collect="always"
         stdDeviation="11.5044"
         id="feGaussianBlur7865" />
    </filter>
    <filter
       inkscape:collect="always"
       id="filter7875">
      <feGaussianBlur
         inkscape:collect="always"
         stdDeviation="0.59450804"
         id="feGaussianBlur7877" />
    </filter>
  </defs>
  <sodipodi:namedview
     id="base"
     pagecolor="#ffffff"
     bordercolor="#666666"
     borderopacity="1.0"
     inkscape:pageopacity="0.0"
     inkscape:pageshadow="2"
     inkscape:zoom="1.1519446"
     inkscape:cx="-356.11964"
     inkscape:cy="40.731098"
     inkscape:current-layer="layer1"
     inkscape:document-units="px"
     showgrid="false"
     showguides="true"
     inkscape:guide-bbox="true"
     inkscape:window-width="1518"
     inkscape:window-height="1060"
     inkscape:window-x="401"
     inkscape:window-y="19"
     inkscape:window-maximized="0"
     borderlayer="true">
    <sodipodi:guide
       orientation="0,1"
       position="348.97512,272.58256"
       id="guide8225" />
    <sodipodi:guide
       orientation="0,1"
       position="498.28786,0"
       id="guide8227" />
  </sodipodi:namedview>
  <metadata
     id="metadata6794">
    <rdf:RDF>
      <cc:Work
         rdf:about="">
        <dc:format>image/svg+xml</dc:format>
        <dc:type
           rdf:resource="http://purl.org/dc/dcmitype/StillImage" />
        <dc:title></dc:title>
      </cc:Work>
    </rdf:RDF>
  </metadata>
  <g
     inkscape:groupmode="layer"
     id="layer2"
     inkscape:label="sky"
     sodipodi:insensitive="true"
     style="display:inline">
    <rect
       style="fill:url(#linearGradient7702);fill-opacity:1;fill-rule:evenodd;stroke:none"
       id="rect7683"
       width="1024.3547"
       height="272.58255"
       x="1.860073e-08"
       y="0.28553611" />
  </g>
  <g
     inkscape:groupmode="layer"
     id="layer4"
     inkscape:label="backdrop"
     style="display:inline"
     sodipodi:insensitive="true">
    <path
       style="fill:#121212;fill-opacity:1;fill-rule:evenodd;stroke:none"
       d="M 797.4375,19.875 C 785.68182,22.432434 777.62075,32.443959 771.71875,42.25 765.3674,52.974716 758.7677,64.859899 747,70.40625 737.82085,74.781266 727.02582,77.972705 721.21875,87 c -13.32439,16.54246 -25.31164,35.10523 -43.75,46.5 -25.92288,17.06197 -57.77766,26.27445 -88.8125,22.1875 -10.96191,-1.62714 -22.21605,-4.83739 -33.28125,-2.375 -5.40141,3.22715 -5.50123,10.71161 -3.375,15.9375 0.33494,7.48106 -7.69362,12.56499 -14.5625,11.9375 -13.09579,0.0278 -24.31698,-8.01079 -33.8125,-16.21875 -40.6139,-32.97542 -80.58219,-67.524344 -126.8125,-92.5625 -10.91401,-5.966628 -22.71413,-12.252385 -35.53125,-11.5 -9.14708,0.689503 -17.36353,6.19455 -22.59375,13.5625 -7.47735,9.443848 -13.82499,20.172117 -23.96875,27.09375 -16.02032,12.46874 -34.94673,20.36924 -51.53125,32 -13.68712,9.20384 -25.96415,20.60476 -35.46875,34.125 -5.25575,6.51791 -12.53541,13.12043 -21.5,12.5625 -11.209,-0.83393 -19.55466,-9.25862 -29.34375,-13.78125 -13.49775,-6.46744 -28.47095,-8.63723 -42.59375,-13.3125 C 99.952111,148.79947 85.964227,142.64592 74.1875,133.25 60.476801,123.35553 47.004091,111.75704 30.09375,107.9375 c -10.340943,-1.54227 -20.079108,4.71938 -26.3125,12.5 -1.1745315,1.18307 -2.4617922,2.20019 -3.78125,3.125 l 0,131.90625 c 0.527531,0.11459 1.0401142,0.1811 1.5625,0.25 8.3646029,1.68529 16.963882,2.0342 25.34375,3.65625 36.474686,5.19976 73.11809,10.19397 109.90625,12.625 l 708.5625,0 c 14.57723,-0.66783 29.11369,-1.99119 43.4375,-4.9375 30.15742,-5.75641 59.83888,-14.97681 90.65625,-16.5625 15.6949,0.34689 31.03785,3.96481 46.25005,7.53125 0.1365,-0.0556 0.2508,-0.1229 0.375,-0.1875 l 0,-9.75 c -10.4172,-23.42073 -17.0314,-49.39592 -13.5626,-75.125 0.938,-5.45175 2.4626,-10.79652 4.5,-15.9375 -6.1717,1.16939 -13.0631,2.17928 -18.68745,-1.375 -3.57243,-1.7852 -7.74636,-5.18433 -11.84375,-3.03125 -2.76861,1.83974 -2.70328,5.75975 -4.8125,7.9375 C 977.61646,162.376 974.154,158.35628 971,156.40625 958.18121,146.57779 949.35539,132.6868 937.25,122.09375 923.08535,108.24027 906.49763,97.237473 889.84375,86.65625 863.21023,67.074811 842.20013,40.538905 813.78125,23.28125 808.6651,20.98642 803.0632,19.662489 797.4375,19.875 z"
       id="rect8222"
       inkscape:connector-curvature="0" />
  </g>
  <g
     id="layer1"
     inkscape:label="foreground"
     inkscape:groupmode="layer"
     transform="translate(0,-496)"
     style="display:inline"
     sodipodi:insensitive="true">
    <path
       style="fill:#000000;fill-opacity:1;fill-rule:evenodd;stroke:none"
       d="m -0.86809735,496.28125 0,272.59375 1026.08689735,0 0,-272.5 c -1.7114,0.85752 -24.913,12.56614 -33.71607,22.59375 -12.30698,20.08431 -18.50514,42.80999 -25.70926,64.875 -6.37983,14.97997 -12.13939,30.63957 -22.95692,43.3125 -9.70487,10.23468 -23.16276,16.15415 -36.49963,20.75 -42.50171,13.73757 -84.89433,27.88691 -128.17093,39.25 -7.39297,1.88877 -14.7593,3.99136 -22.26884,5.40625 -17.8583,2.90713 -36.0282,0.49304 -53.70169,-2.4375 -10.88862,-1.86869 -21.84649,-3.85938 -32.2773,-7.46875 -10.30736,-4.46158 -17.35018,-13.35883 -24.0516,-21.75 -10.33409,-12.88811 -19.15881,-26.79249 -28.58669,-40.28125 -1.39088,-2.19848 -3.49422,-3.9773 -6.16146,-4.53125 -5.17965,-1.38915 -10.42944,0.43383 -15.23164,2.21875 -7.84621,2.70993 -16.41231,5.39957 -24.77095,3.3125 -8.54391,-2.36284 -14.8068,-9.51761 -17.70248,-17.375 -3.3255,-7.46168 -6.03372,-15.75175 -12.82335,-21.0625 -3.78817,-2.92187 -10.14824,-1.75032 -12.2291,2.5625 -1.85503,3.66266 -2.06826,7.84117 -3.09636,11.75 -2.18945,9.86358 -4.75563,19.65069 -7.53763,29.375 -5.66209,18.88973 -12.87482,37.57378 -23.80139,54.28125 -6.93368,10.16186 -16.90903,18.01692 -27.58584,24.34375 -13.46576,8.59566 -27.13844,16.86667 -40.90961,25 -14.9986,8.31879 -31.32065,15.03769 -48.60362,17.1875 -7.02412,0.62033 -14.33543,-1.27954 -19.76672,-5.6875 -6.1516,-4.49558 -11.58073,-10.43557 -19.29758,-12.4375 -3.92661,-1.15264 -8.09799,-1.09118 -12.10399,-1.71875 -4.43873,-1.81681 -6.05022,-6.5275 -8.38209,-10.1875 -5.06585,-6.5284 -13.35309,-9.4183 -20.79885,-12.65625 -8.35563,-3.34366 -17.84058,-5.87382 -26.80392,-3.28125 -12.13178,3.28098 -21.88151,11.36195 -31.46412,18.84375 -9.73336,7.58962 -19.12805,16.1455 -31.05753,20.4375 -11.4697,3.53074 -24.06357,0.7165 -34.31027,-4.84375 -19.38372,-10.11995 -37.71618,-22.1721 -54.17083,-36.3125 -12.23171,-10.4306 -23.83164,-21.5829 -34.497941,-33.5 C 72.827019,653.53779 63.012133,639.43593 55.648467,624.15625 47.720962,608.08866 42.740149,590.86343 38.978114,573.5 33.820829,551.68596 29.652025,529.37196 19.962026,508.875 16.651496,502.42273 12.363278,498.58038 8.358459,496.28125 l -9.22655635,0 z"
       id="rect7438"
       inkscape:connector-curvature="0" />
    <path
       style="fill:#000000;fill-opacity:1;fill-rule:evenodd;stroke:none"
       d="m 817.4375,137.34375 0,0.21875 -90.5,0 0,67.75 92.5,0 35,-28.25 0,-38.875 z"
       transform="translate(0,496)"
       id="rect6797"
       inkscape:connector-curvature="0"
       sodipodi:nodetypes="cccccccc" />
    <g
       id="g6810"
       transform="translate(10,8)">
      <rect
         y="640.38971"
         x="767.39807"
         height="12.153362"
         width="14.757656"
         id="rect6802"
         style="fill:#f9f9f9;fill-opacity:1;fill-rule:evenodd;stroke:none" />
      <rect
         style="fill:#f9f9f9;fill-opacity:1;fill-rule:evenodd;stroke:none"
         id="rect6804"
         width="14.757656"
         height="12.153362"
         x="784.1557"
         y="640.38971" />
      <rect
         y="654.54309"
         x="784.1557"
         height="12.153362"
         width="14.757656"
         id="rect6806"
         style="fill:#f9f9f9;fill-opacity:1;fill-rule:evenodd;stroke:none" />
      <rect
         style="fill:#f9f9f9;fill-opacity:1;fill-rule:evenodd;stroke:none"
         id="rect6808"
         width="14.757656"
         height="12.153362"
         x="767.39807"
         y="654.54309" />
    </g>
    <path
       style="fill:url(#linearGradient7577);fill-opacity:1;fill-rule:evenodd;stroke:none;filter:url(#filter7422)"
       d="m 779.74674,150.91315 -86.81727,101.49134 108.33408,-2.42733 10.32078,-70.73695 -0.41678,-28.46591 c 0,0 -26.61297,-0.58982 -31.42081,0.13885 z"
       transform="translate(0,496)"
       id="rect6820"
       inkscape:connector-curvature="0"
       sodipodi:nodetypes="cccccc" />
    <path
       sodipodi:nodetypes="ccccc"
       inkscape:connector-curvature="0"
       id="path7579"
       transform="matrix(1,0,0,0.42256706,0,645.76103)"
       d="m 751.09953,155.02183 -58.17006,97.38266 108.33408,-2.42733 2.09112,-97.14852 z"
       style="fill:url(#linearGradient7581);fill-opacity:1;fill-rule:evenodd;stroke:none;filter:url(#filter7422)" />
    <path
       style="fill:url(#linearGradient7611);fill-opacity:1;fill-rule:evenodd;stroke:none;filter:url(#filter7601)"
       d="m 792.0134,181.61937 -14.60157,32.66522 c 0,0 -8.24267,12.08046 -12.59933,18.80916 l -42.32326,0.90665 -2.54951,2.53258 42.90402,-0.31423 -18.53904,25.97096 9.07587,-1.26785 13.18192,-24.76561 37.73498,-0.0347 -0.24959,-2.96662 -35.51664,-0.12368 11.11049,-19.09375 z"
       transform="translate(0,496)"
       id="rect7583"
       inkscape:connector-curvature="0"
       sodipodi:nodetypes="cccccccccccccc" />
    <path
       style="fill:#000000;fill-opacity:1;fill-rule:evenodd;stroke:none"
       d="m 779.86847,118.71185 -72.71222,24.85065 130.21875,0.15625 29.15625,-4.84375 -41.625,-16.8125 z"
       transform="translate(0,496)"
       id="rect7616"
       inkscape:connector-curvature="0"
       sodipodi:nodetypes="cccccc" />
  </g>
  <g
     inkscape:groupmode="layer"
     id="layer3"
     inkscape:label="Logo"
     sodipodi:insensitive="true">
    <g
       id="g7895"
       transform="translate(-100,-4)">
      <g
         style="opacity:0.93518521;filter:url(#filter7863)"
         transform="matrix(0.9052727,0,0,0.9052727,22.212745,-544.39002)"
         id="g7827"
         inkscape:label="Layer 1">
        <g
           transform="matrix(0.6149827,0,0,0.6149827,9.970665,245.73811)"
           id="g7829">
          <g
             transform="matrix(0.94977445,0,0,1.2358035,0,-138.78463)"
             style="font-size:352.0531311px;font-style:normal;font-variant:normal;font-weight:normal;font-stretch:normal;text-align:start;line-height:125%;letter-spacing:0px;word-spacing:0px;writing-mode:lr-tb;text-anchor:start;fill:#000000;fill-opacity:1;stroke:none;font-family:Sans;-inkscape-font-specification:Sans"
             id="g7831">
            <path
               style="fill:#ffffff"
               inkscape:connector-curvature="0"
               id="path7833"
               d="m 199.76702,609.71875 c -7.36951,44.11375 -14.69955,88.23421 -22.09376,132.34375 43.20482,0.27848 86.43632,-0.55284 129.62504,0.40625 3.7697,0.43659 7.88517,0.38717 11.3125,1.96875 1.74745,47.00845 0.25227,94.25153 0.0267,141.34354 -0.0834,6.37504 -0.13471,12.75055 -0.24548,19.12521 -28.17289,-14.67406 -57.04915,-28.15431 -84.15626,-44.5625 -9.01112,-6.37148 -13.68608,-17.74415 -12.71876,-28.6875 -16.51043,0 -33.02085,0 -49.53128,0 1.40412,17.59087 5.56872,36.41232 19.00001,48.8125 23.56984,21.31858 53.19079,34.51594 81.68549,48.10161 25.79847,11.85975 51.93612,23.04522 78.25205,33.77339 -0.16225,-79.42571 1.7869,-158.86273 0.4556,-238.28026 1.09152,-6.74927 -5.23969,-11.03192 -11.17435,-11.75099 -15.63975,-1.74212 -31.66145,-0.13405 -47.4375,-0.6875 -21.72917,0 -43.45834,0 -65.18752,0 1.92709,-13.86458 3.85417,-27.72917 5.78126,-41.59375 39.18751,0.0102 78.37501,0.0219 117.56251,0.0312 0,-20.66667 0,-41.33333 0,-62 -50.29167,0 -100.58334,0 -150.87503,0 l -0.16742,0.98589 -0.11383,0.67036 z" />
          </g>
          <g
             transform="matrix(0.81925029,0,0,1.4363004,0,-141.21124)"
             style="font-size:301.28759766px;font-style:normal;font-variant:normal;font-weight:normal;font-stretch:normal;text-align:start;line-height:125%;letter-spacing:0px;word-spacing:0px;writing-mode:lr-tb;text-anchor:start;fill:#000000;fill-opacity:1;stroke:none;font-family:Sans;-inkscape-font-specification:Sans"
             id="g7835">
            <path
               style="fill:#ffffff"
               inkscape:connector-curvature="0"
               id="path7837"
               d="m 415.26417,524.5 c -4.43832,1.89378 -0.84172,11.83458 -2.01425,16.99999 -0.12178,96.14596 -0.2909,192.29192 -0.5795,288.43751 57.85291,-17.45843 118.262,-30.99563 170.375,-62.6875 14.55195,-8.50471 29.94538,-19.32822 34.375,-36.71875 6.17305,-22.29643 1.81283,-45.94771 -0.38045,-68.5227 -2.38804,-15.82088 -3.78453,-32.08079 -8.8383,-47.2898 -4.26929,-2.55731 -11.43257,-0.23957 -16.75,-1.03125 -38.63542,0 -77.27083,0 -115.90625,0 0.15289,8.9171 0.37606,17.83293 0.53125,26.75 27.73958,0 55.47917,0 83.21875,0 3.15247,21.98995 8.57087,43.76876 10.28125,65.875 1.06817,12.36883 -5.90248,23.96556 -16.21875,30.46875 -30.80519,21.10096 -67.19345,31.64185 -102.49048,42.84513 -5.86901,2.28748 -1.05047,-9.75588 -2.61627,-13.25137 -0.0582,-62.63542 -0.11633,-125.27084 -0.1745,-187.90626 50.82292,0 101.64583,0 152.46875,0 -5.34763,-18.00714 -10.62644,-36.03534 -15.90625,-54.0625 -56.45833,0.0296 -112.91667,0.0628 -169.375,0.0937 z" />
          </g>
        </g>
      </g>
      <g
         style="filter:url(#filter7875)"
         inkscape:label="Layer 1"
         id="layer1-2"
         transform="matrix(0.9052727,0,0,0.9052727,106.21274,-544.39002)">
        <g
           id="g6700"
           transform="matrix(0.6149827,0,0,0.6149827,9.970665,245.73811)">
          <g
             id="text6369"
             style="font-size:352.0531311px;font-style:normal;font-variant:normal;font-weight:normal;font-stretch:normal;text-align:start;line-height:125%;letter-spacing:0px;word-spacing:0px;writing-mode:lr-tb;text-anchor:start;fill:#000000;fill-opacity:1;stroke:none;font-family:Sans;-inkscape-font-specification:Sans"
             transform="matrix(0.94977445,0,0,1.2358035,0,-138.78463)">
            <path
               sodipodi:nodetypes="ccccczczzcczccccc"
               inkscape:connector-curvature="0"
               id="path6388"
               d="m 190.07219,610.06313 0,57.98861 -117.284578,-0.009 -6.365424,45.57373 109.475412,0 c 0,0 12.06882,0.45315 14.17459,6.14985 2.10576,5.69669 0,162.51387 0,239.62179 0,0 -80.55506,-32.71892 -118.343064,-53.99707 C 33.941118,884.11289 27.519316,873.6932 22.236859,863.19427 16.954402,852.69535 15.390121,833.65404 15.390121,833.65404 l 45.278767,0 c 0,0 -2.046445,19.22075 16.844705,30.51803 18.891151,11.29729 83.981677,43.94596 83.981677,43.94596 0,0 2.31902,-161.57937 0,-164.81599 -2.31902,-3.23662 -24.09998,-3.23662 -24.09998,-3.23662 l -116.217329,0 21.70741,-130.00229" />
          </g>
          <g
             id="text6381"
             style="font-size:301.28759766px;font-style:normal;font-variant:normal;font-weight:normal;font-stretch:normal;text-align:start;line-height:125%;letter-spacing:0px;word-spacing:0px;writing-mode:lr-tb;text-anchor:start;fill:#000000;fill-opacity:1;stroke:none;font-family:Sans;-inkscape-font-specification:Sans"
             transform="matrix(0.81925029,0,0,1.4363004,0,-141.21124)">
            <path
               sodipodi:nodetypes="ccccszsccccccsc"
               inkscape:connector-curvature="0"
               id="path6391"
               d="m 376.80721,638.44726 -82.9202,0 -0.48984,-22.75688 128.89833,0 c 3.30832,6.59758 12.19416,61.49862 12.04967,91.68307 -0.14449,30.18445 -12.22215,39.23292 -15.12499,42.81354 -2.90284,3.58062 -26.97895,21.52064 -64.6452,37.30733 -37.66625,15.78669 -88.92264,29.42005 -124.08918,39.79199 0.40522,-100.25785 0.6138,-300.77389 0.6138,-300.77389 l 167.87144,-0.099 14.73124,50.06511 -151.79491,0 0.18592,206.56243 c 11.51126,-3.26637 64.63452,-19.09395 92.66865,-34.92346 28.03414,-15.8295 36.50335,-25.22273 31.13506,-55.96003" />
          </g>
        </g>
      </g>
    </g>
  </g>
</svg>
